<svg xmlns="http://www.w3.org/2000/svg" xmlns:xlink="http://www.w3.org/1999/xlink" viewBox="0 0 129.34 190.23"><defs><linearGradient id="b" x1="144.29" y1="547.11" x2="105.78" y2="585.61" gradientUnits="userSpaceOnUse"><stop offset="0" stop-color="#b4f09a"/><stop offset="1" stop-color="#609e41"/></linearGradient><linearGradient id="c" x1="224.52" y1="627.34" x2="186.01" y2="665.84" gradientUnits="userSpaceOnUse"><stop offset="0" stop-color="#97d67a"/><stop offset="1" stop-color="#6bad4a"/></linearGradient><linearGradient id="d" x1="224.52" y1="627.34" x2="186.01" y2="665.84" gradientUnits="userSpaceOnUse"><stop offset="0" stop-color="#94d477"/><stop offset="1" stop-color="#469120"/></linearGradient><linearGradient id="a" x1="127.27" y1="569.11" x2="145.35" y2="551.03" gradientUnits="userSpaceOnUse"><stop offset="0" stop-color="#fff"/><stop offset="1" stop-color="#fff" stop-opacity=".2"/></linearGradient><linearGradient id="e" x1="201.89" y1="647" x2="221.54" y2="627.34" xlink:href="#a"/><linearGradient id="f" x1="147.34" y1="588.93" x2="183.33" y2="624.92" gradientUnits="userSpaceOnUse"><stop offset="0" stop-color="#e6e6e6"/><stop offset="1" stop-color="#b0b0b0"/></linearGradient><linearGradient id="g" x1="173.95" y1="561.68" x2="209.94" y2="597.67" gradientUnits="userSpaceOnUse"><stop offset="0" stop-color="#2ab1eb"/><stop offset="1" stop-color="#1569a3"/></linearGradient><linearGradient id="h" x1="171.07" y1="610.77" x2="147.17" y2="586.87" xlink:href="#a"/><radialGradient id="i" cx="165.02" cy="719.41" r="46.72" gradientTransform="matrix(1 0 0 .29 -100.35 -31.89)" gradientUnits="userSpaceOnUse"><stop offset="0" stop-opacity=".8"/><stop offset=".21" stop-opacity=".47"/><stop offset="1" stop-opacity="0"/></radialGradient></defs><path d="M122.26 601.2l37.35-37.35-13.39-13.39a26.41 26.41 0 0 0-37.35 37.35z" transform="translate(-100.35 -542.72)" fill="url(#b)"/><path d="M207.77 612L191 628.78l-20.58 20.58 13.39 13.4a26.41 26.41 0 0 0 37.35-37.35z" transform="translate(-100.35 -542.72)" fill="url(#c)"/><path d="M207.77 612L191 628.78l-20.58 20.58 13.39 13.39a26.41 26.41 0 0 0 37.35-37.35z" transform="translate(-100.35 -542.72)" fill="url(#d)"/><path d="M159.61 563.85l-13.39-13.39a26.33 26.33 0 0 0-19.65-7.71 142.93 142.93 0 0 0 15.09 39.06z" transform="translate(-100.35 -542.72)" opacity=".2" fill="url(#a)"/><path d="M207.77 612L191 628.78l-2.75 2.75a143.19 143.19 0 0 0 40 18.15 26.37 26.37 0 0 0-7.13-24.28z" transform="translate(-100.35 -542.72)" opacity=".2" fill="url(#e)"/><path d="M217.5 589a24.68 24.68 0 0 0-34.91-34.9l-70.06 70.05a24.68 24.68 0 0 0 34.91 34.91z" transform="translate(-100.35 -542.72)" fill="url(#f)"/><path d="M183.85 622.68L217.5 589a24.68 24.68 0 0 0-34.91-34.9l-33.64 33.64z" transform="translate(-100.35 -542.72)" fill="url(#g)"/><path d="M205.29 547.47a24.65 24.65 0 0 0-22.69 6.66l-70.06 70.05a24.61 24.61 0 0 0-7.21 18.37 134.68 134.68 0 0 0 99.96-95.08z" transform="translate(-100.35 -542.72)" opacity=".2" fill="url(#h)"/><ellipse cx="64.67" cy="176.68" rx="64.67" ry="13.55" opacity=".15" fill="url(#i)"/></svg>