<svg xmlns="http://www.w3.org/2000/svg" xmlns:xlink="http://www.w3.org/1999/xlink" viewBox="0 0 157.7 205.19"><defs><radialGradient id="a" cx="631.98" cy="618.95" r="113.93" gradientUnits="userSpaceOnUse"><stop offset=".34" stop-color="#2ab1eb"/><stop offset=".75" stop-color="#1569a3"/></radialGradient><radialGradient id="e" cx="631.98" cy="618.95" r="113.94" xlink:href="#a"/><linearGradient id="b" x1="678.31" y1="584.37" x2="678.31" y2="554.13" gradientUnits="userSpaceOnUse"><stop offset="0" stop-color="#fff"/><stop offset="1" stop-color="#fff" stop-opacity=".2"/></linearGradient><linearGradient id="f" x1="590.78" y1="584.67" x2="590.78" y2="556.47" xlink:href="#b"/><radialGradient id="g" cx="631.98" cy="618.94" r="113.93" xlink:href="#a"/><radialGradient id="h" cx="631.98" cy="618.94" r="113.93" xlink:href="#a"/><linearGradient id="c" x1="663.04" y1="533.59" x2="663.04" y2="698.09" gradientUnits="userSpaceOnUse"><stop offset="0" stop-color="#a2e683"/><stop offset="1" stop-color="#57a332"/></linearGradient><linearGradient id="i" x1="606.05" y1="533.59" x2="606.05" y2="698.09" xlink:href="#c"/><linearGradient id="d" x1="672.55" y1="622.28" x2="672.55" y2="551.21" gradientUnits="userSpaceOnUse"><stop offset="0" stop-color="#fff"/><stop offset="1" stop-color="#fff" stop-opacity="0"/></linearGradient><linearGradient id="j" x1="606.06" y1="622.28" x2="606.06" y2="551.21" xlink:href="#d"/><radialGradient id="k" cx="634.54" cy="726.89" r="46.72" gradientTransform="matrix(1 0 0 .29 -555.69 -19.09)" gradientUnits="userSpaceOnUse"><stop offset="0" stop-opacity=".8"/><stop offset=".21" stop-opacity=".47"/><stop offset="1" stop-opacity="0"/></radialGradient></defs><path d="M664.79 583.85h27a65 65 0 0 0-27-27z" transform="translate(-555.69 -535.24)" fill="url(#a)"/><path d="M604.3 583.85v-27a65 65 0 0 0-27 27z" transform="translate(-555.69 -535.24)" fill="url(#e)"/><path d="M664.79 583.85h27a65 65 0 0 0-27-27z" transform="translate(-555.69 -535.24)" opacity=".2" fill="url(#b)"/><path d="M604.3 583.85v-27a65 65 0 0 0-27 27z" transform="translate(-555.69 -535.24)" opacity=".2" fill="url(#f)"/><path d="M664.79 644.34v27a65 65 0 0 0 27-27z" transform="translate(-555.69 -535.24)" fill="url(#g)"/><path d="M604.3 644.34h-27a65 65 0 0 0 27 27z" transform="translate(-555.69 -535.24)" fill="url(#h)"/><path d="M691.53 592.23h-29.84l-49 49v29.84a21.86 21.86 0 1 0 43.72 0V636h35.13a21.86 21.86 0 0 0 0-43.72z" transform="translate(-555.69 -535.24)" fill="url(#c)"/><path d="M607.87 635.41l48.53-48.53V557.1a21.86 21.86 0 1 0-43.72 0v35.13h-35.12a21.86 21.86 0 1 0 0 43.72h29.77z" transform="translate(-555.69 -535.24)" fill="url(#i)"/><path d="M634.54 622.2a354.56 354.56 0 0 0 78.83-8.61 21.87 21.87 0 0 0-13.43-19.68q-1-.4-2-.7-1-.3-2-.51h-.05q-1-.21-2.09-.32-1.08-.11-2.18-.11h-29.93l-29.95 29.95z" transform="translate(-555.69 -535.24)" opacity=".2" fill="url(#d)"/><path d="M575.34 592.34c-.71.07-1.41.18-2.09.31h-.06c-.68.14-1.35.31-2 .51h-.05q-1 .31-1.95.7a21.87 21.87 0 0 0-13.43 19.68 349 349 0 0 0 65.6 8.37l35.08-35.08V557.1a21.86 21.86 0 1 0-43.72 0v35.13h-35.16q-1.1 0-2.18.11z" transform="translate(-555.69 -535.24)" opacity=".2" fill="url(#j)"/><ellipse cx="78.85" cy="191.65" rx="64.67" ry="13.55" opacity=".15" fill="url(#k)"/></svg>