<svg xmlns="http://www.w3.org/2000/svg" viewBox="0 0 458.25 293.21"><path d="M160.78 176.85h71.59a91.1 91.1 0 0 1-86.45 60.71c-48.35-.36-88.33-39-90.2-87.35a90.91 90.91 0 0 1 151.94-71 9.86 9.86 0 0 0 13.41 0l26.3-24.73a9.83 9.83 0 0 0 0-14.29A146.06 146.06 0 0 0 149.49.05C68.7-1.52.57 64.72 0 145.56a146.6 146.6 0 0 0 293 9.29c.11-1 .19-33.65.19-33.65H160.78a9.82 9.82 0 0 0-9.82 9.82v36a9.82 9.82 0 0 0 9.82 9.83zm253.68-52.37V89.3a8.61 8.61 0 0 0-8.61-8.61h-29.6a8.61 8.61 0 0 0-8.61 8.61v35.18h-35.17a8.61 8.61 0 0 0-8.61 8.61v29.6a8.61 8.61 0 0 0 8.61 8.61h35.17v35.18a8.61 8.61 0 0 0 8.61 8.61h29.6a8.61 8.61 0 0 0 8.61-8.61v-35.19h35.17a8.61 8.61 0 0 0 8.61-8.61v-29.6a8.61 8.61 0 0 0-8.61-8.61z" fill="#f34a38"/></svg>