<svg xmlns="http://www.w3.org/2000/svg" viewBox="0 0 380.25 239.88"><path d="M375.25 239.87H5a5 5 0 0 1-4.87-6.14L44.29 44.39a5 5 0 0 1 .13-.69C53.69 7.59 73.92 0 89.25 0a44.53 44.53 0 0 1 17.58 3.57A42.94 42.94 0 0 1 124.25 0a45 45 0 0 1 33 14.43 44.93 44.93 0 0 1 65.85-.13A45 45 0 0 1 256 0a42.94 42.94 0 0 1 17.42 3.57A44.54 44.54 0 0 1 291 0c15.33 0 35.55 7.59 44.84 43.76a4.75 4.75 0 0 1 .11.6l44.16 189.38a5 5 0 0 1-4.87 6.14zm-47.67-10H369L326.18 46.45a4.66 4.66 0 0 1-.18-.64c-6.19-23.74-18-35.8-35-35.8a35.14 35.14 0 0 0-6.66.63c8.61 7.7 14.53 19.25 16.58 33.46v.56zm-81.86 0h71.76l-26.4-183.85a5 5 0 0 1-.07-.64c-2.18-14.82-9.43-26.42-19.93-31.85l-.36-.21A32.81 32.81 0 0 0 256 9.99a35 35 0 0 0-26.79 12.49 44.72 44.72 0 0 1 6 22.49zm-100.45 0H235l-10-184.3v-.63a34.79 34.79 0 0 0-6.12-19.71 5.06 5.06 0 0 1-.59-1.15 35 35 0 0 0-63 20.61v.72zm-82.51 0h72.49l10-184.89v-.24a44.72 44.72 0 0 1 5.93-22.09 35 35 0 0 0-26.94-12.66 32.82 32.82 0 0 0-14.7 3.33l-.36.21c-10.51 5.43-17.76 17-19.93 31.85a5 5 0 0 1-.07.64zm-51.47 0h41.38L79.26 44.71v-.43a63.42 63.42 0 0 1 5.41-18.37c-4.33 1.31-10 4.49-11.81 12.23a5.003 5.003 0 0 1-9.73-2.33C67 19.35 82.4 15 90 15a5 5 0 0 1 1.47.22 44.24 44.24 0 0 1 4.44-4.59 35.2 35.2 0 0 0-6.66-.63c-17 0-28.84 12-35 35.8a4.86 4.86 0 0 1-.13.65zM169 42a5 5 0 0 1-4.87-6.15C168 19.35 183.4 15 191 15a5 5 0 0 1 0 10c-.65 0-14.14.34-17.15 13.15A5 5 0 0 1 169 42zm-65 0a5 5 0 0 1-4.87-6.19C103 19.35 118.4 15 126 15a5 5 0 0 1 0 10c-.65 0-14.14.34-17.15 13.15A5 5 0 0 1 104 42z" fill="#fff"/></svg>