<svg xmlns="http://www.w3.org/2000/svg" viewBox="0 0 476.21 476.21"><path d="M476.21 139.13L455 117.91 420.88 152l-68-7.48 86.63-86.63-21.22-21.18-86.63 86.63-7.48-68 34.12-34.13L337.09 0 78.26 258.83l11.68 106.23L0 455l21.21 21.21 89.94-89.94L217.38 398zM188.64 266.36l-7.48-68L225.48 154l7.52 68zm65.53-23.11l68 7.48-44.32 44.32-68-7.48zm139.52-64l-44.32 44.32-68-7.48 44.32-44.32zm-89.22-28.69l-44.32 44.32-7.48-68L297 82.52zm-194.82 119.3L154 225.54l7.48 68-44.32 44.32zm28.69 89.22l44.32-44.32 68 7.48-44.32 44.32z" fill="#fff"/></svg>