<svg xmlns="http://www.w3.org/2000/svg" viewBox="0 0 512 324.02"><path d="M477.16 115.64c-22.37-20-52.4-37.15-84.55-48.39h-.16a278.76 278.76 0 0 0-45.39-11.66c-9-10.95-39-42.73-90.83-54.78a29 29 0 0 0-35.49 28.2v41.18c-48.7 21.43-87.32 56.39-108.07 77.86-3.09-15.6-9.95-35.33-25.08-50.46-28.81-28.78-75.18-27.58-77.13-27.51A10.8 10.8 0 0 0 0 80.52c-.07 2-1.25 48.32 27.56 77.12a81.65 81.65 0 0 0 23.68 16.24 83.79 83.79 0 0 0-23.68 16.38C-1.23 219.08 0 265.43 0 267.39a10.8 10.8 0 0 0 10.44 10.44h1.7c8.88 0 49.36-1.49 75.44-27.58 15.26-15.26 22.1-35.43 25.15-51.33 15.23 15.71 40 38.66 71.38 58.28v37.81a29.07 29.07 0 0 0 28.95 29 29.32 29.32 0 0 0 8.41-1.24c26.13-7.8 45.91-22 55.07-29.55a181.29 181.29 0 0 0 26.22 2 271.58 271.58 0 0 0 87.73-14.75h.06C457.53 257.6 512 209.64 512 173.49c0-17.25-12.37-37.79-34.84-57.85zm-434.3 26.72c-14.78-14.78-19.3-37-20.66-50.15 13.16 1.34 35.27 5.82 50.13 20.68S91.61 149.43 93 162.35c-13-1.08-35.32-5.16-50.14-19.99zm29.46 92.65c-14.77 14.77-36.93 19.29-50.12 20.66 1.37-13.2 5.9-35.36 20.66-50.13S80 186.21 93 184.87c-1.33 13.14-5.81 35.26-20.68 50.14zm170-206a7.43 7.43 0 0 1 2.83-5.85 7.15 7.15 0 0 1 6.15-1.4 151 151 0 0 1 61.3 30.25q-4.92-.19-9.81-.19a193.34 193.34 0 0 0-60.43 10.13zm-27 273a7.39 7.39 0 0 1-6.59-1.16 7.27 7.27 0 0 1-3-5.95v-25.35a246.86 246.86 0 0 0 42.63 17.38 136.17 136.17 0 0 1-33.05 15.15zm87.48-28.49a161.39 161.39 0 0 1-27.58-2.44c-24.3-4.25-49.44-14.09-74.72-29.24-39.84-23.83-69.82-54.83-81.89-68.36 15.37-17.19 59.81-62.87 117-86.08l.21-.08c22.83-9.24 45.36-13.93 67-13.93a244.73 244.73 0 0 1 36.74 2.8 254.07 254.07 0 0 1 27.88 5.88c-22.67 24.06-37.06 59.51-37.06 93.83 0 31.34 13.89 65.17 35.75 89.35a247.36 247.36 0 0 1-63.34 8.33zm86.5-15.62c-22.53-20.23-37.3-52.46-37.3-81.99 0-32.31 15.77-66.91 38.88-86.32 61.84 23.13 99.57 63.92 99.57 83.9-.05 20.31-38.36 61.45-101.17 84.47z" fill="#fff"/><path d="M429.15 160.26a10.8 10.8 0 0 0-10.8 10.8v4.84a10.8 10.8 0 0 0 21.6 0v-4.84a10.8 10.8 0 0 0-10.8-10.8zM317.3 100.88a10.8 10.8 0 0 0-15.27.39c-1 1.09-2.06 2.23-3 3.4a10.801 10.801 0 1 0 16.52 13.92c.71-.84 1.44-1.66 2.18-2.44a10.8 10.8 0 0 0-.43-15.27zm-1.25 132.13c-12-13.82-18.89-34.79-18.89-57.53a101.91 101.91 0 0 1 6.45-36.22 10.801 10.801 0 0 0-20.16-7.76 123.74 123.74 0 0 0-7.89 44c0 27.87 8.82 54 24.19 71.7a10.806 10.806 0 1 0 16.3-14.19z" fill="#fff"/></svg>