<svg xmlns="http://www.w3.org/2000/svg" viewBox="0 0 348.76 254.7"><path d="M174.38 254.7C76.6 254.7 0 222.25 0 180.83V73.87C0 32.45 76.6-.03 174.38-.03s174.38 32.48 174.38 73.9v106.95c0 41.43-76.59 73.88-174.38 73.88zM10 178.43a4.89 4.89 0 0 1 0 1v1.4c0 34.62 75.28 63.88 164.38 63.88s164.38-29.25 164.38-63.87v-1.4a4.93 4.93 0 0 1 0-1V99.2c-23.76 28.69-87.6 48.77-164.38 48.77S33.8 127.89 10 99.2zm0-103.91c.94 34.34 75.83 63.22 164.37 63.22s163.43-28.89 164.37-63.22v-.65c.02-34.62-75.25-63.9-164.36-63.9S10 39.25 10 73.87v.66zM129.72 219.8a5 5 0 0 1-4-8l12.94-17.57-12.96-17.53a5 5 0 1 1 8.05-5.93l11.25 15.3c6.39-4.65 19.33-12.2 36-12.2 23.54 0 40.6 15 41.31 15.64a8 8 0 0 1 0 9.51c-.71.64-17.78 15.64-41.31 15.64-16.7 0-29.64-7.54-36-12.2l-11.27 15.3a5 5 0 0 1-4.01 2.04zm21.06-25.53c5.2 3.79 16.28 10.4 30.27 10.4s25.56-6.55 31.09-10.39c-5.56-3.83-17.12-10.41-31.09-10.41s-25.05 6.61-30.27 10.4zm23.6-61.53c-40.27 0-78.2-5.74-106.8-16.18-30.19-11-46.82-26.29-46.82-43s16.63-32 46.82-43c28.6-10.43 66.53-16.18 106.8-16.18s78.19 5.75 106.8 16.18c30.19 11 46.82 26.29 46.82 43s-16.63 32-46.82 43c-28.6 10.41-66.53 16.17-106.8 16.17zM152.29 24.97c-30.71 1.68-59 6.85-81.28 15-25.57 9.33-40.24 21.58-40.24 33.62S45.43 97.84 71 107.17c27.53 10 64.25 15.57 103.37 15.57s75.84-5.53 103.37-15.57c25.57-9.33 40.24-21.58 40.24-33.62s-14.67-24.3-40.24-33.63c-21.63-7.89-48.91-13-78.58-14.82l.11.3L208 49.28a15.08 15.08 0 0 1-14.17 20.23h-34.78a15.08 15.08 0 0 1-14.43-19.45l7.24-23.88c.14-.42.27-.83.43-1.21zm14 .53a5 5 0 0 0-4.86 3.61l-7.24 23.86a5.08 5.08 0 0 0 4.86 6.55h34.75a5.08 5.08 0 0 0 4.77-6.82l-8.68-23.88a5.1 5.1 0 0 0-4.77-3.34h-18.83zm18.95 28.34l-18.07-.11a5 5 0 0 1 0-10l18.07.11a5 5 0 0 1 0 10z" fill="#fff"/></svg>