<svg xmlns="http://www.w3.org/2000/svg" viewBox="0 0 395.76 551.28"><path d="M395.76 194.64v14.88a3.63 3.63 0 0 0-.19.79c-.18 10.6-1 21.15-2.18 31.68a206.52 206.52 0 0 1-5.19 29.12 274.73 274.73 0 0 1-23.44 59.36 268.14 268.14 0 0 1-54.62 71.66 234.89 234.89 0 0 1-58.45 39.79c-26.1 12.5-53.65 19.81-82.35 22.92a305.37 305.37 0 0 1-40.71 1.62q-16.73-.43-33.35-2.38a1.41 1.41 0 0 0-1.6.82 177.81 177.81 0 0 0-14.25 28.32 209.44 209.44 0 0 0-12 44.67 1.6 1.6 0 0 1-.82 1.09c-8.68 3.09-17.4 6.1-26.08 9.19-2.58.92-5.09 2.07-7.63 3.11h-.48c1-5.57 2-11.17 3.14-16.72a348.33 348.33 0 0 1 18.2-61.58c6-14.85 13.2-29.1 22.57-42.16 6.56-9.15 14-17.47 23.23-24.05a462.32 462.32 0 0 0 61.28-52.38 490.62 490.62 0 0 0 34.6-39.18 547.45 547.45 0 0 0 68.88-113.17 519.4 519.4 0 0 0 26.44-70.28c.4-1.36.77-2.73 1.16-4.1a3.31 3.31 0 0 0-.66 1.26 382.14 382.14 0 0 1-20.66 49.84 522.88 522.88 0 0 1-43.52 72.46 608.83 608.83 0 0 1-75.62 86.93 669.56 669.56 0 0 1-61.12 51.73c-6.95 5.2-13.88 10.41-20.06 16.54a223.67 223.67 0 0 0-29.23 36.26c-1.6 2.43-3.12 4.91-4.81 7.57-.79-1-1.55-2-2.2-2.94a150.19 150.19 0 0 1-12-22.75A256.3 256.3 0 0 1 .38 334.42c-.1-1.86-.24-3.72-.36-5.58v-12a5 5 0 0 0 .19-.91 209.54 209.54 0 0 1 4.19-36.64 213.23 213.23 0 0 1 26.78-68.24c14.74-24.39 33.48-45.35 55-63.89a388.45 388.45 0 0 1 61-42.56 578.69 578.69 0 0 1 86.58-40c11.74-4.35 23.33-9 34.33-15a310.77 310.77 0 0 0 46.47-31.31c7.2-5.87 14.13-12.18 21.2-18.29h.24c2 3.21 4.1 6.38 6.05 9.63A378.17 378.17 0 0 1 377.27 88a372.41 372.41 0 0 1 18.29 104.56c.02.69.13 1.39.2 2.08z" fill="#fff"/></svg>