<svg xmlns="http://www.w3.org/2000/svg" viewBox="0 0 426.667 426.667"><g fill="#fff"><path d="M171.947 179.017l-25.861 25.86 67.264 67.264v-51.725z"/><path d="M213.35 0C164.834 35.482 105.233 56.585 40.657 57.067v100.134c0 119.543 70.767 222.566 172.693 269.466 101.91-46.9 172.66-149.927 172.66-269.466V57.067C321.442 56.585 261.807 35.482 213.35 0zm0 272.141l-.004-.009.004 111.569C131.212 338.7 79.057 251.656 79.057 157.201V93.043c47.71-5.751 93.265-21.619 134.281-46.818l.009 174.187.004.004 69.214-69.21 25.86 25.86-95.075 95.075z"/></g></svg>