<svg xmlns="http://www.w3.org/2000/svg" xmlns:xlink="http://www.w3.org/1999/xlink" viewBox="0 0 551.03 551.03"><defs><linearGradient id="a" x1="275.52" y1="787.43" x2="275.52" y2="242.28" gradientTransform="translate(0 -238)" gradientUnits="userSpaceOnUse"><stop offset="0" stop-color="#e09b3d"/><stop offset=".3" stop-color="#c74c4d"/><stop offset=".6" stop-color="#c21975"/><stop offset="1" stop-color="#7024c4"/></linearGradient><linearGradient id="b" x1="418.31" y1="787.43" x2="418.31" y2="242.28" xlink:href="#a"/></defs><path d="M386.88 0H164.16C73.64 0 0 73.64 0 164.16v222.72C0 477.39 73.64 551 164.16 551h222.72C477.39 551 551 477.39 551 386.88V164.16C551 73.64 477.39 0 386.88 0zM495.6 386.88A108.72 108.72 0 0 1 386.88 495.6H164.16A108.72 108.72 0 0 1 55.43 386.88V164.16A108.72 108.72 0 0 1 164.16 55.43h222.72A108.72 108.72 0 0 1 495.6 164.16v222.72z" fill="url(#a)"/><path d="M275.52 133C196.93 133 133 196.93 133 275.52S196.93 418 275.52 418 418 354.1 418 275.52 354.1 133 275.52 133zm0 229.6a87.08 87.08 0 1 1 87.08-87.08 87.08 87.08 0 0 1-87.08 87.08z" fill="url(#a)"/><circle cx="418.31" cy="134.07" r="34.15" fill="url(#b)"/></svg>