<svg xmlns="http://www.w3.org/2000/svg" viewBox="0 0 400.86 66.04"><path d="M0 0h80.54l-3.42 5.6H45l-4.56-4.51-4.51 4.51H3.38zm45.69 17.93a10.45 10.45 0 0 1 5.13 8.48l12.1-19.68h5.64l-20.8 33.84-2.61-4.28a10.48 10.48 0 0 1-4.78 1.16 10.25 10.25 0 0 1-4.86-1.2l11.35 18.67-3 4.71-21.27-35h5.83L29.87 27A10.58 10.58 0 0 1 35 17.93L10.89 18 7.5 12.33h44.15l-3.43 5.6zm-5.33 2.88a6.4 6.4 0 1 0 6.42 6.38 6.41 6.41 0 0 0-6.42-6.38zm7.94 20.65L51.68 47 76.42 6.73h-6.73zm7.9-34.73l-7.38 12 2.84 4.63L61.84 6.73zm-18 31.39l9.44 15.48 3.42-5.45-6.1-10zM14.93 24.66L40 66l3.46-5.56L21.7 24.66zm-3.39-5.6l2.72 4.47H29L31.7 19zM4 6.73l2.77 4.47H52.3l2.77-4.47z" fill="#1b75bc" fill-rule="evenodd"/><path d="M93.45 12.7h8.91a26 26 0 0 1 3.95.22 5.82 5.82 0 0 1 2.33.92 5.72 5.72 0 0 1 1.71 1.85 5 5 0 0 1 .68 2.59 5.14 5.14 0 0 1-.84 2.86 5.22 5.22 0 0 1-2.29 1.95 5.87 5.87 0 0 1 3.13 2 5.32 5.32 0 0 1 1.09 3.34 6.55 6.55 0 0 1-.71 2.94 5.93 5.93 0 0 1-1.93 2.28 6.39 6.39 0 0 1-3 1.05q-1.12.12-5.43.15h-7.6zm4.5 3.69v5.12h3q2.63 0 3.27-.08a3 3 0 0 0 1.82-.79 2.33 2.33 0 0 0 .66-1.73 2.42 2.42 0 0 0-.57-1.67 2.58 2.58 0 0 0-1.7-.78q-.67-.08-3.85-.08zm0 8.81v5.92h4.17a20.68 20.68 0 0 0 3.08-.12 2.79 2.79 0 0 0 1.63-.88 2.71 2.71 0 0 0 .63-1.88 2.88 2.88 0 0 0-.49-1.69 2.75 2.75 0 0 0-1.41-1 15.36 15.36 0 0 0-4-.32zm21.13-1.5l-3.88-.7a6 6 0 0 1 2.25-3.45 8.27 8.27 0 0 1 4.74-1.12 10.27 10.27 0 0 1 4.26.67 4.24 4.24 0 0 1 2 1.71 8.71 8.71 0 0 1 .57 3.8v5a17.13 17.13 0 0 0 .21 3.12 9.07 9.07 0 0 0 .77 2.15h-4.23q-.17-.42-.41-1.25c-.07-.25-.12-.42-.15-.5a7.71 7.71 0 0 1-2.34 1.59 6.74 6.74 0 0 1-2.66.53 5.52 5.52 0 0 1-3.93-1.34 4.46 4.46 0 0 1-1.44-3.4 4.54 4.54 0 0 1 .65-2.42 4.26 4.26 0 0 1 1.83-1.63 14.42 14.42 0 0 1 3.4-1 23.26 23.26 0 0 0 4.15-1V24a2.19 2.19 0 0 0-.61-1.75 3.66 3.66 0 0 0-2.3-.52 2.56 2.56 0 0 0-2.81 2zm5.72 3.45a26.76 26.76 0 0 1-2.6.65 7.86 7.86 0 0 0-2.33.74A1.77 1.77 0 0 0 119 30a2.08 2.08 0 0 0 .67 1.54 2.34 2.34 0 0 0 1.7.65 3.71 3.71 0 0 0 2.2-.76 2.66 2.66 0 0 0 1-1.4 8.34 8.34 0 0 0 .23-2.03zm8.28-8.35h4v2.36a6 6 0 0 1 2.1-2 5.82 5.82 0 0 1 2.93-.75 6.17 6.17 0 0 1 4.77 2.19 8.84 8.84 0 0 1 2 6.11 9.11 9.11 0 0 1-2 6.25 6.17 6.17 0 0 1-4.79 2.23 5.47 5.47 0 0 1-2.43-.53 8.18 8.18 0 0 1-2.29-1.81V41h-4.27zm4.23 7.75a6.15 6.15 0 0 0 1.08 4 3.31 3.31 0 0 0 2.61 1.3 3.09 3.09 0 0 0 2.48-1.19 6.08 6.08 0 0 0 1-3.89 5.77 5.77 0 0 0-1-3.75 3.16 3.16 0 0 0-2.52-1.22 3.29 3.29 0 0 0-2.6 1.2 5.33 5.33 0 0 0-1.05 3.56zm28.27 8.3h-12.23v4.23h-3.47v-7.7h1.75a9.41 9.41 0 0 0 1.81-3.78 40.45 40.45 0 0 0 .85-8.8h13v12.58h1.73v7.71h-3.48zm-2.48-3.48v-9.08h-5.17q-.26 6.65-2.13 9.08zm6.84 3.48l5.82-8.27-5.58-7.78h5.21l2.86 4.41 3-4.41h5l-5.47 7.6 6 8.45h-5.25l-3.28-5-3.31 5zm19.49-16.05h5.29l4 11.18 4-11.18H208v16h-3.63V24.29l-3.94 10.56h-3.65l-3.76-10.56v10.56h-3.65zm26.11 4.9l-3.88-.7a6 6 0 0 1 2.25-3.45 8.27 8.27 0 0 1 4.74-1.12 10.27 10.27 0 0 1 4.26.67 4.24 4.24 0 0 1 2 1.71 8.71 8.71 0 0 1 .57 3.8v5a17.13 17.13 0 0 0 .21 3.12 9.07 9.07 0 0 0 .77 2.15h-4.23q-.17-.42-.41-1.25c-.07-.25-.12-.42-.15-.5a7.71 7.71 0 0 1-2.34 1.59 6.74 6.74 0 0 1-2.66.53 5.52 5.52 0 0 1-3.93-1.34 4.46 4.46 0 0 1-1.44-3.4 4.54 4.54 0 0 1 .65-2.42 4.26 4.26 0 0 1 1.83-1.63 14.42 14.42 0 0 1 3.4-1 23.26 23.26 0 0 0 4.15-1V24a2.19 2.19 0 0 0-.61-1.75 3.66 3.66 0 0 0-2.3-.52 2.56 2.56 0 0 0-2.81 2zm5.72 3.45a26.76 26.76 0 0 1-2.6.65 7.86 7.86 0 0 0-2.33.74 1.77 1.77 0 0 0-.84 1.5 2.08 2.08 0 0 0 .67 1.54 2.34 2.34 0 0 0 1.7.65 3.71 3.71 0 0 0 2.2-.76 2.66 2.66 0 0 0 1-1.4 8.34 8.34 0 0 0 .17-2.07zm8.24-8.35h4.27v5.88h6.11V18.8h4.29v16h-4.29v-6.69h-6.11v6.74h-4.27zm25.39 16.05l7.62-11.56-6.91-10.59h5.26l4.47 7.12 4.38-7.12h5.22L268 23.46l7.62 11.4h-5.43l-4.94-7.66-5 7.66zm32.36-5.11l4.26.71a7 7 0 0 1-2.6 3.55 7.65 7.65 0 0 1-4.43 1.22q-4.21 0-6.23-2.73a9.15 9.15 0 0 1-1.6-5.53 8.83 8.83 0 0 1 2.1-6.25 6.93 6.93 0 0 1 5.31-2.26 7.19 7.19 0 0 1 5.69 2.36q2.08 2.37 2 7.25H281a4.28 4.28 0 0 0 1 2.94 3.24 3.24 0 0 0 2.46 1 2.63 2.63 0 0 0 1.69-.54 3.36 3.36 0 0 0 1.1-1.72zm.24-4.29a4.07 4.07 0 0 0-1-2.8 3.1 3.1 0 0 0-4.53.05 3.9 3.9 0 0 0-.9 2.75zm8.88-6.65h14.31v16h-4.26V22.25h-5.82v7.21a8.33 8.33 0 0 1-.64 3.86 3.32 3.32 0 0 1-1.41 1.46 6.54 6.54 0 0 1-2.49.35 17.71 17.71 0 0 1-2.69-.27v-3.14h1.71q.87 0 1.06-.57a14 14 0 0 0 .2-3.15zm32.7 4.75l-4.21.75a3 3 0 0 0-1-1.89 2.93 2.93 0 0 0-2-.63 3.2 3.2 0 0 0-2.55 1.1 5.59 5.59 0 0 0-1 3.67 6.46 6.46 0 0 0 1 4 3.18 3.18 0 0 0 2.69 1.2 2.89 2.89 0 0 0 2-.69 4.12 4.12 0 0 0 1.09-2.37l4.2.71a7.4 7.4 0 0 1-2.51 4.34 7.8 7.8 0 0 1-5 1.46 7.41 7.41 0 0 1-5.62-2.2 8.58 8.58 0 0 1-2.16-6.16 8.6 8.6 0 0 1 2.11-6.19 7.53 7.53 0 0 1 5.72-2.21 7.84 7.84 0 0 1 4.69 1.26 7 7 0 0 1 2.55 3.85zm3.07-4.75h4.26v6.56a2.21 2.21 0 0 0 1.5-.65 8.58 8.58 0 0 0 1.1-2.31 6.13 6.13 0 0 1 1.79-3 4.45 4.45 0 0 1 2.55-.67q.49 0 1.69.08v2.81a4.59 4.59 0 0 0-2.16.32 4.39 4.39 0 0 0-1 2 4 4 0 0 1-2.14 2.74q2 .56 3.42 3.49l.17.32 2.39 4.43h-4.59L339 30.21a5.65 5.65 0 0 0-1.13-1.81 2.18 2.18 0 0 0-1.42-.4v6.85h-4.26zm25.11 10.94l4.26.71a7 7 0 0 1-2.6 3.55 7.65 7.65 0 0 1-4.43 1.22q-4.21 0-6.23-2.73a9.15 9.15 0 0 1-1.6-5.53 8.83 8.83 0 0 1 2.1-6.25 6.93 6.93 0 0 1 5.31-2.26 7.19 7.19 0 0 1 5.69 2.36q2.08 2.37 2 7.25H351a4.28 4.28 0 0 0 1 2.94 3.24 3.24 0 0 0 2.46 1 2.63 2.63 0 0 0 1.69-.54 3.36 3.36 0 0 0 1.1-1.72zm.24-4.29a4.07 4.07 0 0 0-1-2.8 3.1 3.1 0 0 0-4.53.05 3.9 3.9 0 0 0-.9 2.75zm7.62-6.65h4.11v10.08l6.57-10.08H380v16h-4.11V24.59l-6.66 10.26h-4.11zm10.23-6.51h2.08a4.77 4.77 0 0 1-1.42 3.23 5.21 5.21 0 0 1-6.58 0 4.77 4.77 0 0 1-1.45-3.23H370a2.32 2.32 0 0 0 .76 1.63 3.56 3.56 0 0 0 3.8 0 2.33 2.33 0 0 0 .78-1.63zm8.9 6.51h4v2.36a6 6 0 0 1 2.1-2 5.82 5.82 0 0 1 2.93-.75 6.17 6.17 0 0 1 4.73 2.22 8.84 8.84 0 0 1 2 6.11 9.11 9.11 0 0 1-2 6.26 6.17 6.17 0 0 1-4.79 2.23 5.47 5.47 0 0 1-2.43-.53 8.18 8.18 0 0 1-2.29-1.81V41h-4.27zm4.23 7.75a6.15 6.15 0 0 0 1.08 4 3.31 3.31 0 0 0 2.63 1.29 3.09 3.09 0 0 0 2.48-1.19 6.08 6.08 0 0 0 1-3.89 5.77 5.77 0 0 0-1-3.75 3.16 3.16 0 0 0-2.52-1.22 3.29 3.29 0 0 0-2.6 1.2 5.33 5.33 0 0 0-1.08 3.57zM95.92 59.58V48.85H100a5 5 0 0 1 2 .33 2.55 2.55 0 0 1 1.17 1 2.63 2.63 0 0 1 .42 1.42 2.42 2.42 0 0 1-.38 1.3 2.68 2.68 0 0 1-1.13 1 2.82 2.82 0 0 1 1.51 1 2.59 2.59 0 0 1 .53 1.63 3.12 3.12 0 0 1-.32 1.4 2.73 2.73 0 0 1-.79 1 3.31 3.31 0 0 1-1.18.53 7.2 7.2 0 0 1-1.74.18zm1.43-6.23h2.34a5.29 5.29 0 0 0 1.36-.12 1.41 1.41 0 0 0 1.1-1.47 1.72 1.72 0 0 0-.26-.94 1.31 1.31 0 0 0-.74-.56 6.21 6.21 0 0 0-1.64-.15h-2.16zm0 5H100a6.24 6.24 0 0 0 1-.05 2.34 2.34 0 0 0 .83-.29 1.56 1.56 0 0 0 .54-.6 1.86 1.86 0 0 0 .21-.91 1.77 1.77 0 0 0-.31-1 1.64 1.64 0 0 0-.86-.62 5.37 5.37 0 0 0-1.58-.18h-2.5zm9.21-6.54h1.33V55h3.68v-3.19h1.33v7.78h-1.33v-3.46h-3.68v3.45h-1.33zm9 0h1.33v5.93l3.68-5.93H122v7.78h-1.33v-5.9L117 59.58h-1.43zm9.15 0h2.06l2.06 6.19 2.29-6.23H133v7.78h-1.3v-6.23l-2.31 6.26h-1.19L126 53v6.56h-1.3zm16.12 6.82a5 5 0 0 1-1.42.88 4.14 4.14 0 0 1-1.46.26 2.86 2.86 0 0 1-2-.63 2.06 2.06 0 0 1-.69-1.6 2.13 2.13 0 0 1 .26-1 2.17 2.17 0 0 1 .69-.76 3.23 3.23 0 0 1 1-.43 9.56 9.56 0 0 1 1.18-.2 12.21 12.21 0 0 0 2.37-.45v-.34a1.45 1.45 0 0 0-.38-1.13 2.23 2.23 0 0 0-1.51-.45 2.36 2.36 0 0 0-1.38.33 2 2 0 0 0-.66 1.15l-1.3-.18a3.19 3.19 0 0 1 .58-1.34 2.56 2.56 0 0 1 1.17-.78 5.27 5.27 0 0 1 1.78-.27 4.72 4.72 0 0 1 1.63.23 2.14 2.14 0 0 1 .92.59 2.06 2.06 0 0 1 .41.9 7.39 7.39 0 0 1 .07 1.21v1.76a18.5 18.5 0 0 0 .08 2.33 2.91 2.91 0 0 0 .33.93h-1.4a2.8 2.8 0 0 1-.27-1.01zm-.11-2.95a9.79 9.79 0 0 1-2.17.5 5 5 0 0 0-1.16.26 1.15 1.15 0 0 0-.52.43 1.16 1.16 0 0 0 .22 1.5 1.74 1.74 0 0 0 1.18.35 2.75 2.75 0 0 0 1.36-.33 2.06 2.06 0 0 0 .88-.91 3.17 3.17 0 0 0 .21-1.32zm3.37-3.87h6.36v1.09h-2.52v6.69h-1.33V52.9h-2.52zm13.66 5.27l1.37.17a3.33 3.33 0 0 1-1.2 1.85 3.63 3.63 0 0 1-2.24.66 3.59 3.59 0 0 1-2.68-1.05 4.09 4.09 0 0 1-1-2.95 4.28 4.28 0 0 1 1-3 3.45 3.45 0 0 1 2.64-1.08 3.36 3.36 0 0 1 2.56 1.06 4.2 4.2 0 0 1 1 3v.35h-5.84a3 3 0 0 0 .73 2 2.18 2.18 0 0 0 1.64.68 2 2 0 0 0 1.25-.38 2.53 2.53 0 0 0 .77-1.31zm-4.35-2.13h4.37a2.62 2.62 0 0 0-.5-1.47 2 2 0 0 0-1.64-.76 2.11 2.11 0 0 0-1.54.61 2.4 2.4 0 0 0-.7 1.62zm8.71-3.14h6.16v7.78H167V52.9h-3.51v3.88a11.09 11.09 0 0 1-.09 1.79 1.29 1.29 0 0 1-.49.75 1.79 1.79 0 0 1-1.15.32c-.31 0-.67 0-1.07-.06v-1.1h.58a1.47 1.47 0 0 0 .59-.08.43.43 0 0 0 .24-.27 6.25 6.25 0 0 0 .06-1.19zm8.81 0h1.33v3h1.68a4.32 4.32 0 0 1 2.53.63 2 2 0 0 1 .89 1.75 2.2 2.2 0 0 1-.74 1.67 3.39 3.39 0 0 1-2.37.69h-3.32zm1.33 6.69h1.39a3.85 3.85 0 0 0 1.8-.31 1 1 0 0 0 .54-1 1.24 1.24 0 0 0-.4-.9 2.66 2.66 0 0 0-1.76-.4h-1.57zm7.25-6.69h1.33V55h3.68v-3.19h1.33v7.78h-1.34v-3.46h-3.68v3.45h-1.32zm9.03 0h1.33v3h1.68a4.32 4.32 0 0 1 2.53.63 2 2 0 0 1 .89 1.75 2.2 2.2 0 0 1-.74 1.67 3.39 3.39 0 0 1-2.37.69h-3.32zm1.33 6.69h1.39a3.84 3.84 0 0 0 1.8-.31 1 1 0 0 0 .54-1 1.24 1.24 0 0 0-.4-.9 2.66 2.66 0 0 0-1.76-.4h-1.57zm6.14-6.69h1.33v7.78H196zm8.89 0h1.33v3.36a1.28 1.28 0 0 0 .89-.24 5.29 5.29 0 0 0 .75-1.41 5.59 5.59 0 0 1 .63-1.22 1.21 1.21 0 0 1 .56-.4 3.61 3.61 0 0 1 1-.1h.27v1.1H210a1 1 0 0 0-.67.15 3.84 3.84 0 0 0-.47 1 4 4 0 0 1-.55 1.05 2.23 2.23 0 0 1-.77.53 3.2 3.2 0 0 1 1.68 1.58l1.45 2.41h-1.46l-1.42-2.41a3.29 3.29 0 0 0-.76-1 1.3 1.3 0 0 0-.77-.23v3.6h-1.33zm12.11 0h1.33v3.36a1.28 1.28 0 0 0 .89-.24 5.29 5.29 0 0 0 .75-1.41 5.59 5.59 0 0 1 .63-1.22 1.21 1.21 0 0 1 .56-.4 3.61 3.61 0 0 1 1-.1h.27v1.1h-.37a1 1 0 0 0-.67.15 3.84 3.84 0 0 0-.47 1 4 4 0 0 1-.55 1.05 2.23 2.23 0 0 1-.77.53 3.2 3.2 0 0 1 1.68 1.58l1.45 2.41h-1.46l-1.42-2.41a3.29 3.29 0 0 0-.76-1 1.3 1.3 0 0 0-.77-.23v3.6H217zm6.84 3.89a4 4 0 0 1 1.21-3.2 3.65 3.65 0 0 1 2.46-.86 3.52 3.52 0 0 1 2.64 1.05 4 4 0 0 1 1 2.9 5.13 5.13 0 0 1-.45 2.36 3.19 3.19 0 0 1-1.32 1.34 3.85 3.85 0 0 1-1.89.48 3.53 3.53 0 0 1-2.66-1 4.17 4.17 0 0 1-.99-3.07zm1.36 0a3.3 3.3 0 0 0 .66 2.24 2.19 2.19 0 0 0 3.29 0 3.38 3.38 0 0 0 .66-2.28 3.2 3.2 0 0 0-.66-2.19 2.19 2.19 0 0 0-3.29 0 3.28 3.28 0 0 0-.65 2.23zm8.24-3.89h2.06l2.06 6.19 2.29-6.23h1.91v7.78h-1.33v-6.23l-2.31 6.26h-1.19L234.74 53v6.56h-1.3zm11.03 0h6.17v7.78h-1.33V52.9h-3.52v6.69h-1.33zm9.53 0h6.16v7.78h-1.36V52.9h-3.51v3.88a11.09 11.09 0 0 1-.09 1.79 1.29 1.29 0 0 1-.49.75 1.79 1.79 0 0 1-1.15.32c-.31 0-.67 0-1.07-.06v-1.1h.58a1.47 1.47 0 0 0 .59-.08.43.43 0 0 0 .24-.27 6.25 6.25 0 0 0 .06-1.19zm14.15 5.27l1.37.17a3.33 3.33 0 0 1-1.2 1.85 3.63 3.63 0 0 1-2.24.66 3.59 3.59 0 0 1-2.72-1.05 4.09 4.09 0 0 1-1-2.95 4.28 4.28 0 0 1 1-3 3.45 3.45 0 0 1 2.64-1.13 3.36 3.36 0 0 1 2.56 1.06 4.2 4.2 0 0 1 1 3v.35h-5.84a3 3 0 0 0 .73 2 2.18 2.18 0 0 0 1.64.68 2 2 0 0 0 1.25-.38 2.53 2.53 0 0 0 .81-1.26zm-4.35-2.13h4.37a2.62 2.62 0 0 0-.5-1.47 2 2 0 0 0-1.64-.76 2.11 2.11 0 0 0-1.54.61 2.4 2.4 0 0 0-.69 1.62zm8.06-3.14h1.33v3.36a1.28 1.28 0 0 0 .89-.24 5.29 5.29 0 0 0 .75-1.41 5.59 5.59 0 0 1 .63-1.22 1.21 1.21 0 0 1 .56-.4 3.61 3.61 0 0 1 1-.1h.27v1.1h-.37a1 1 0 0 0-.67.15 3.84 3.84 0 0 0-.47 1 4 4 0 0 1-.55 1.05 2.23 2.23 0 0 1-.77.53 3.2 3.2 0 0 1 1.68 1.58l1.45 2.41h-1.46l-1.42-2.41a3.29 3.29 0 0 0-.76-1 1.3 1.3 0 0 0-.77-.23v3.6h-1.33zm12.4 4.92l1.3.17a3.36 3.36 0 0 1-1.09 2.1 3.2 3.2 0 0 1-2.16.76 3.37 3.37 0 0 1-2.58-1 4.22 4.22 0 0 1-1-3 5.38 5.38 0 0 1 .42-2.21 2.91 2.91 0 0 1 1.28-1.42 3.81 3.81 0 0 1 1.87-.47 3.26 3.26 0 0 1 2.08.64 2.94 2.94 0 0 1 1 1.82l-1.29.2a2.13 2.13 0 0 0-.65-1.18 1.7 1.7 0 0 0-1.13-.4 2.06 2.06 0 0 0-1.63.71 3.37 3.37 0 0 0-.63 2.26 3.49 3.49 0 0 0 .6 2.28 2 2 0 0 0 1.58.71 1.86 1.86 0 0 0 1.3-.48 2.35 2.35 0 0 0 .73-1.49zm3.12-4.92h1.33V55h3.68v-3.19h1.33v7.78h-1.33v-3.46h-3.68v3.45h-1.33zm8.52 3.89a4 4 0 0 1 1.21-3.2 3.65 3.65 0 0 1 2.46-.86 3.52 3.52 0 0 1 2.64 1.05 4 4 0 0 1 1 2.9 5.13 5.13 0 0 1-.45 2.36 3.19 3.19 0 0 1-1.32 1.34 3.85 3.85 0 0 1-1.89.48 3.53 3.53 0 0 1-2.66-1 4.17 4.17 0 0 1-.99-3.07zm1.36 0a3.3 3.3 0 0 0 .66 2.24 2.19 2.19 0 0 0 3.29 0 3.38 3.38 0 0 0 .66-2.28 3.2 3.2 0 0 0-.66-2.19 2.19 2.19 0 0 0-3.29 0 3.28 3.28 0 0 0-.66 2.23zm8.24-3.89h2.06l2.06 6.19 2.29-6.23h1.91v7.78h-1.33v-6.23l-2.31 6.26H309L306.79 53v6.56h-1.3zm10.96 10.77l-.15-1.24a3 3 0 0 0 .76.12 1.46 1.46 0 0 0 .71-.15 1.2 1.2 0 0 0 .43-.41 6.38 6.38 0 0 0 .41-1l.12-.32-3-7.79h1.43l1.63 4.5q.32.86.57 1.8a17.74 17.74 0 0 1 .55-1.77l1.67-4.53h1.33l-3 7.91a15.48 15.48 0 0 1-.74 1.76 2.59 2.59 0 0 1-.81 1 1.93 1.93 0 0 1-1.09.3 2.67 2.67 0 0 1-.82-.18zm14.88-6.51V55a7.52 7.52 0 0 0 1.15-.07 1.08 1.08 0 0 0 .58-.35 1 1 0 0 0 .27-.73A1.09 1.09 0 0 0 333 53a1.34 1.34 0 0 0-.92-.32 1.63 1.63 0 0 0-1.59 1.32l-1.26-.21a2.69 2.69 0 0 1 2.84-2.19 2.73 2.73 0 0 1 2 .68 2.18 2.18 0 0 1 .71 1.63 1.71 1.71 0 0 1-.93 1.52 2.23 2.23 0 0 1 .88.8 2.19 2.19 0 0 1 .29 1.15 2.12 2.12 0 0 1-.77 1.7 3.21 3.21 0 0 1-2.14.65q-2.67 0-3.1-2.37l1.25-.26a2 2 0 0 0 .69 1.16 1.87 1.87 0 0 0 1.19.41 1.67 1.67 0 0 0 1.12-.38 1.26 1.26 0 0 0 .17-1.75 1.19 1.19 0 0 0-.6-.42 5.22 5.22 0 0 0-1.15-.08zm6.92-4.26h5.45v6.69h.85v3.29h-1.09v-2.21h-6.16v2.21h-1.09V58.5h.7q1.4-1.89 1.34-6.69zm1.11 1.09a12.77 12.77 0 0 1-1.18 5.6h4.21v-5.6zm6.83 2.8a4 4 0 0 1 1.21-3.2 3.65 3.65 0 0 1 2.46-.86 3.52 3.52 0 0 1 2.64 1.05 4 4 0 0 1 1 2.9 5.13 5.13 0 0 1-.45 2.36 3.19 3.19 0 0 1-1.32 1.34 3.85 3.85 0 0 1-1.89.48 3.53 3.53 0 0 1-2.66-1 4.17 4.17 0 0 1-.99-3.07zm1.36 0a3.3 3.3 0 0 0 .66 2.24 2.19 2.19 0 0 0 3.29 0 3.38 3.38 0 0 0 .66-2.28 3.2 3.2 0 0 0-.66-2.19 2.19 2.19 0 0 0-3.29 0 3.28 3.28 0 0 0-.65 2.23zm8.21 6.86V51.81H357v1a3 3 0 0 1 1-.89 2.66 2.66 0 0 1 1.3-.3 3.11 3.11 0 0 1 1.77.51 3.16 3.16 0 0 1 1.16 1.45 5.27 5.27 0 0 1 .39 2 5.17 5.17 0 0 1-.43 2.15 3.27 3.27 0 0 1-3 2 2.5 2.5 0 0 1-1.19-.28 2.7 2.7 0 0 1-.87-.7v3.79zm1.2-6.83a3.37 3.37 0 0 0 .61 2.22 1.88 1.88 0 0 0 1.48.72 1.92 1.92 0 0 0 1.51-.74 3.51 3.51 0 0 0 .63-2.3 3.42 3.42 0 0 0-.62-2.23 1.86 1.86 0 0 0-1.47-.74 1.92 1.92 0 0 0-1.5.79 3.51 3.51 0 0 0-.61 2.29zm7.38-.03a4 4 0 0 1 1.21-3.2 3.65 3.65 0 0 1 2.46-.86 3.52 3.52 0 0 1 2.64 1.05 4 4 0 0 1 1 2.9 5.13 5.13 0 0 1-.45 2.36 3.19 3.19 0 0 1-1.32 1.34 3.85 3.85 0 0 1-1.89.48 3.53 3.53 0 0 1-2.66-1 4.17 4.17 0 0 1-.99-3.07zm1.36 0a3.3 3.3 0 0 0 .66 2.24 2.19 2.19 0 0 0 3.29 0 3.38 3.38 0 0 0 .66-2.28 3.2 3.2 0 0 0-.66-2.19 2.19 2.19 0 0 0-3.29 0 3.28 3.28 0 0 0-.66 2.23zm8.21-3.89H377a5.59 5.59 0 0 1 1.68.19 2 2 0 0 1 .94.69 1.86 1.86 0 0 1 .39 1.19 2 2 0 0 1-.23 1 1.88 1.88 0 0 1-.7.69 1.84 1.84 0 0 1 .92.69 2 2 0 0 1 .36 1.19 2.09 2.09 0 0 1-.8 1.64 3.49 3.49 0 0 1-2.1.54h-3.53zm1.33 3.27h1.42a5.09 5.09 0 0 0 1.16-.09 1.22 1.22 0 0 0 .57-.36.91.91 0 0 0 .25-.64.89.89 0 0 0-.44-.86 3.34 3.34 0 0 0-1.5-.24h-1.46zm0 3.42H377a3.19 3.19 0 0 0 1.55-.26 1 1 0 0 0 .44-.9 1.12 1.12 0 0 0-.24-.69 1.06 1.06 0 0 0-.63-.4 6.56 6.56 0 0 0-1.25-.08h-1.61zm7.34-6.69h1.33v3h1.68a4.32 4.32 0 0 1 2.53.63 2 2 0 0 1 .89 1.75 2.2 2.2 0 0 1-.74 1.67 3.39 3.39 0 0 1-2.37.69h-3.32zm1.33 6.69h1.39a3.85 3.85 0 0 0 1.8-.31 1 1 0 0 0 .54-1 1.24 1.24 0 0 0-.4-.9 2.66 2.66 0 0 0-1.76-.4h-1.57zm7.25-6.69h1.33v3.25h1.61a4.11 4.11 0 0 1 1-2.55 3.06 3.06 0 0 1 2.27-.88 3.24 3.24 0 0 1 1.87.48 3.66 3.66 0 0 1 1.13 1.31 4.79 4.79 0 0 1 .45 2.25 4.48 4.48 0 0 1-.92 3.05 3.17 3.17 0 0 1-2.5 1 3 3 0 0 1-2.35-1 4.2 4.2 0 0 1-1-2.65h-1.61v3.44h-1.33zm6.32.94a1.77 1.77 0 0 0-1.51.74 3.49 3.49 0 0 0-.54 2.08 4 4 0 0 0 .54 2.35 1.72 1.72 0 0 0 1.46.75 1.85 1.85 0 0 0 1.49-.69 3.47 3.47 0 0 0 .58-2.23 4.09 4.09 0 0 0-.5-2.25 1.7 1.7 0 0 0-1.52-.75z" fill="#1b75bc"/></svg>