<svg xmlns="http://www.w3.org/2000/svg" viewBox="0 0 80.54 66.04"><path d="M0 0h80.54l-3.42 5.56H44.95l-4.51-4.42-4.51 4.51H3.33zm45.69 17.93a10.45 10.45 0 0 1 5.13 8.48L62.95 6.73h5.64l-20.8 33.84-2.61-4.28a10.48 10.48 0 0 1-4.78 1.16 10.25 10.25 0 0 1-4.86-1.2L46.9 54.92l-3 4.71-21.27-35h5.83l1.4 2.34a10.58 10.58 0 0 1 5.09-9.07H10.84l-3.38-5.64H51.6l-3.43 5.6zm-5.33 2.88a6.4 6.4 0 1 0 6.42 6.38 6.4 6.4 0 0 0-6.42-6.38zm7.93 20.65l3.39 5.56L76.41 6.73h-6.73zm7.9-34.73l-7.38 12 2.84 4.63 10.19-16.6zm-18 31.39l9.45 15.48L51 48.14l-6.1-10zM14.95 24.66L40 66l3.46-5.56-21.78-35.82zm-3.39-5.6l2.72 4.47h14.67l2.72-4.51zM4.01 6.73l2.72 4.47h45.52l2.77-4.47z" fill="#1e76bc"/></svg>