<svg xmlns="http://www.w3.org/2000/svg" viewBox="0 0 403.438 403.438" fill="#1b75bc"><path d="M375.208 350.702l-12.288-77.824c-6.464-42.822-23.135-82.132-48.238-115.175l15.982.999c2.56 0 4.608-2.048 5.12-4.608.512-3.072-1.536-5.632-4.608-5.632l-24.064-1.536a5.608 5.608 0 0 0-1.16-.072 245.953 245.953 0 0 0-6.825-7.664c4.657-2.28 8.881-5.064 13.105-8.137 2.048-1.536 2.56-5.12 1.024-7.168s-5.12-2.56-7.168-1.024c-4.405 3.426-9.283 6.373-14.623 8.417l-3.297-3.297c-3.363-3.363-6.952-6.498-10.757-9.274a99.86 99.86 0 0 1 24.581-13.254 5.254 5.254 0 0 0 1.575-.998c5.326-2.714 8.665-10.784 8.665-21.53 0-11.264-5.12-22.528-13.312-22.528-.995 0-1.868.235-2.614.63l-11.722 2.442c-8.744 1.785-17.295 4.395-25.58 7.71.228-12.464-3.523-23.5-11.284-31.262-6.97-6.97-16.439-10.561-27.072-11.033a68.39 68.39 0 0 1 3.52-7.399l6.656-11.264c1.024-2.56.512-5.632-2.048-7.168-2.56-1.536-5.632-.512-7.168 2.048l-6.656 11.264c-2.391 4.383-4.16 8.767-5.793 13.15a70.28 70.28 0 0 0-4.544.846c.177-6.202 1.231-12.403 3.169-18.605.512-3.072-1.024-5.632-3.584-6.656-3.072-.512-5.632 1.024-6.656 3.584-2.72 8.16-3.829 16.323-3.693 24.838a88.085 88.085 0 0 0-4.556 1.86 83.093 83.093 0 0 0-8.646-32.842c-1.024-2.56-4.096-3.072-6.656-2.048-2.56 1.024-3.072 4.096-2.048 6.656 5.373 10.257 7.943 21.448 7.724 33.125-7.672 4.453-15.158 10.149-22.06 17.051-9.154 9.154-16.286 19.469-21.117 29.951.521-4.997 1.413-10.407 2.685-16.639l2.048-10.24a5.54 5.54 0 0 0-.012-1.903c.001-.05.012-.095.012-.145 0-9.728-16.896-14.336-33.28-14.336s-33.28 4.096-33.28 14.336c0 .012.003.022.003.033a5.254 5.254 0 0 0-.003 2.015l1.536 4.608c6.144 30.72 6.144 46.592 1.024 76.8l-5.632 32.768a5.76 5.76 0 0 0-.073.925 79.181 79.181 0 0 0-2.069 3.88c-8.096-1.564-15.749-4.071-22.947-8.389l-11.264-6.656c-2.56-1.024-5.632-.512-7.168 2.048-1.024 2.56-.512 5.632 2.048 7.168l11.264 6.656c7.459 3.949 15.67 7.135 23.988 8.935a94.758 94.758 0 0 0-2.336 7.718c-3.09.437-6.396.931-9.365 1.779L32.68 204.27c-2.56.512-4.096 3.584-3.584 6.144 1.024 2.048 3.072 3.584 5.12 3.584.512 0 1.024 0 .512.512l20.992-5.632a59.042 59.042 0 0 1 5.135-1.219c-4.407 29.794 3.3 61.267 14.833 76.995a680.727 680.727 0 0 0 6.31 8.448 5.099 5.099 0 0 0-.166 1.28c-1.024 16.896-3.584 33.792-7.168 48.64l-3.584 16.896a4.365 4.365 0 0 0-.041 1.37c-1.149 9.036 11.991 15.558 25.641 18.086 3.584.512 8.704 1.024 13.312 1.024 9.179 0 18.354-2.035 19.944-8.628.239-.484.436-1.01.536-1.612l3.246-25.966c32.476 24.306 70.307 40.177 111.442 46.446l77.824 12.288c2.048.512 4.608.512 7.168.512 11.776 0 23.552-4.608 32.256-12.8 10.24-10.752 15.36-25.088 12.8-39.936zM281 135.15l4.608 4.608a235.953 235.953 0 0 1 18.859 21.281c.012.248.037.494.085.735 1.536 6.656-.512 13.312-4.608 17.408-3.584 3.584-9.216 5.12-15.872 4.608-8.704-1.024-16.896-5.632-22.016-13.312-3.882-5.607-8.864-10.115-14.621-13.848 4.177-10.344 10.121-19.541 17.693-27.112a91.948 91.948 0 0 1 3.961-3.914c4.344 2.684 8.132 5.768 11.911 9.546zm16.638-63.732l1.203-.251c1.174 1.642 3.151 5.909 3.151 11.759 0 7.057-1.983 11.13-3.022 12.232-2.453-.563-5.17-5.49-5.17-12.232 0-5.527 1.828-9.825 3.838-11.508zM165.8 64.494c13.921-13.921 30.26-22.528 44.828-24.945.238.135.48.265.74.369h1.536c.99 0 1.978-.365 2.852-.967 10.135-.665 19.096 1.924 25.308 8.135 6.446 6.446 9.516 16.738 7.844 28.542-9.439 4.57-18.446 10.092-26.894 16.411-1.048-1.556-2.42-2.873-3.989-3.994-7.168-5.12-17.92-.512-25.088 9.728-3.389 5.325-5.857 13.398-.057 23.351-2.686 3.506-5.301 7.083-7.623 10.953l-2.305 3.841c-10.507-8.055-25.192-10.903-41.226-8.546-5.006-18.274 4.737-43.541 24.074-62.878zM107.944 53.23c14.528.484 20.805 3.714 22.743 5.363-1.549 2.332-9.531 6.413-23.255 6.413-11.755 0-19.295-2.996-22.194-5.322l-.235-.939c1.673-2.081 7.858-6.017 22.941-5.515zM83.88 175.086c.279-.349.506-.698.692-1.046a39.307 39.307 0 0 1 1.868-2.026c10.752-11.776 23.04-20.48 36.352-25.088 1.536-.512 2.048-1.536 1.536-3.072s-1.536-2.048-3.072-1.536c-13.716 5.08-26.925 13.693-38.133 25.829-.088-.076-.174-.154-.267-.229-.063-.051-.128-.092-.192-.14l4.288-24.948c3.916-25.456 4.076-50.447-.392-76.757 5.569 2.332 13.369 3.541 20.872 3.541 8.082 0 16.509-1.402 22.119-4.1l-.615 3.076c-5.12 27.136-4.096 40.448 3.072 66.56.512 2.048 2.56 3.584 4.608 3.584h1.536a3.986 3.986 0 0 0 1.797-.892c16.628-3.474 30.779-.324 39.675 8.572 8.192 8.704 12.8 22.528 11.264 37.376-1.536 20.48-12.8 39.424-30.208 51.712-28.16 19.968-37.376 46.08-43.008 61.952-2.048 5.12-4.608 11.776-5.632 12.8-3.072 0-12.8-10.752-28.16-31.744-14.848-19.968-22.528-71.68 0-103.424zm36.434 193.396c-.025.048-.057.092-.082.14-2.048 1.024-10.752 2.56-21.504.512-10.022-1.503-16.107-5.453-17.322-7.06l3.498-16.492c2.933-12.151 5.179-26.359 6.46-40.66 3.205 3.816 5.982 6.812 8.458 9.119.245.471.548.926.954 1.332l4.608 4.096a253.14 253.14 0 0 0 18.893 17.304l-3.963 31.709zm234.926 14.476c-8.192 8.192-19.456 12.288-30.72 10.24l-77.824-12.288c-48.89-7.822-93.571-29.66-129.155-63.264 4.176-3.039 6.615-9.438 9.347-17.632a277.96 277.96 0 0 1 2.727-7.876c11.61 14.673 25.622 26.861 41.305 36.548.512.512 1.024.512 1.536.512 1.024 0 2.048-.512 2.048-1.024.512-1.024 0-3.072-1.024-3.584-16.044-10.21-30.236-22.734-41.71-37.999 4.844-11.77 12.395-25.357 26.219-37.317 6.586 10.718 14.067 20.587 23.171 29.236.512.512 1.536.512 2.048.512s1.024 0 2.048-.512c1.024-1.024 1.024-2.56 0-3.584-8.824-8.824-16.787-18.499-23.162-29.007a98.265 98.265 0 0 1 3.706-2.737c10.04-6.951 18.266-15.845 24.227-25.964 6.994 9.92 15.128 19.029 24.413 26.988.512.512 1.024.512 1.536.512s1.536 0 1.536-1.024c1.024-1.024 1.024-2.56 0-3.584-9.408-8.468-17.509-17.811-24.721-28.007 4.281-8.65 6.977-18.049 7.825-27.801 1.817-15.895-2.017-30.573-10.408-41.192l3.24-5.4c3.072-4.608 6.144-9.216 9.728-13.312 2.048-2.048 1.536-5.632-.512-7.168a4.343 4.343 0 0 0-1.452-.951c-2.7-4.538-2.86-8.66-.084-12.361 4.096-6.144 9.216-8.192 11.264-7.168 1.024 1.024 1.536 2.56 1.536 3.584.067.334.163.659.281.972.126.957.525 1.882 1.255 2.612 1.024 1.536 2.56 2.048 4.096 2.048s2.56-.512 3.072-1.024c18.432-15.36 40.448-26.112 64-31.232l4.688-.977c-1.051 2.853-1.615 6.358-1.615 10.193 0 6.22 1.471 11.59 4.133 14.663-13.198 5.7-25.775 14.146-35.877 24.249-12.8 12.8-21.504 29.184-25.6 48.128l-2.048 9.216c-.512 2.56 1.536 5.632 4.096 6.144h1.024c2.56 0 4.608-1.536 5.12-3.584l2.048-9.216a99.708 99.708 0 0 1 1.38-5.65c3.757 2.751 6.829 6.114 9.372 9.746 5.146 6.984 12.144 12.37 20.036 15.24l14.268 31.864c3.584 8.192 6.656 16.384 8.704 25.088.512 1.024 1.536 2.048 2.56 2.048 0 0 .512 0 .512-.512 1.536-.512 2.56-1.536 2.048-3.072-2.56-8.704-5.632-17.92-9.216-26.112l-12.34-27.559c1.033.179 2.072.331 3.124.423h3.584c8.704 0 15.872-3.072 20.992-7.68 3.223-3.223 5.476-7.289 6.72-11.727 19.794 29.319 33.103 63.167 38.848 99.792l12.288 77.824c1.535 11.263-2.049 22.527-10.241 30.719z"/><path d="M169.896 304.11c-1.024-1.024-2.56-1.024-3.584 0s-1.024 2.56 0 3.584c3.072 2.56 6.656 5.12 9.728 7.68.512.512 1.024.512 1.536.512 1.024 0 1.536-.512 2.048-.512 1.024-1.024.512-2.56-.512-3.584l-9.216-7.68zm22.016 29.696c-2.56-1.536-5.12-2.56-7.168-3.584-1.536-.512-3.072 0-3.584 1.024-.512 1.536 0 3.072 1.024 3.584 2.56 1.536 4.608 2.56 7.168 3.584h1.024c1.024 0 2.048-.512 3.072-1.024.512-1.536 0-3.072-1.536-3.584zm-54.784-14.848c-1.024-1.024-2.56-1.024-3.584 0s-1.024 2.56 0 3.584c3.584 3.072 6.656 6.144 10.24 8.704.512.512 1.024.512 1.536.512 1.024 0 1.536-.512 2.048-.512.512-1.024.512-2.56-.512-3.584-3.584-3.072-6.656-5.632-9.728-8.704zm74.752-23.04c-3.584-2.048-7.168-4.608-10.752-7.168-1.024-1.024-2.56-.512-3.584.512s-.512 2.56.512 3.584c3.584 2.56 7.168 5.12 10.752 7.168.512.512 1.024.512 1.536.512 1.024 0 2.048-.512 2.56-1.024.512-1.024 0-3.072-1.024-3.584zm15.36 8.704c-2.048-1.024-4.608-2.56-6.656-3.584-1.536-.512-3.072-.512-3.584 1.024s0 3.072 1.024 3.584c2.56 1.536 4.608 2.56 7.168 3.584h1.024c1.024 0 1.536-.512 2.048-1.024 1.024-1.535 0-3.072-1.024-3.584zm68.096 40.448c-1.536 0-3.072.512-3.072 2.048l-.512 3.584c0 1.536.512 2.56 2.56 3.072 1.024 0 2.048-1.024 2.56-2.048l.512-3.584c.512-1.536-.512-2.56-2.048-3.072zm24.576-22.528c-1.536 0-3.072.512-3.072 2.048l-2.56 13.824c0 1.536.512 2.56 2.56 3.072 1.024 0 2.048-1.024 2.56-2.048l2.56-13.824c.512-1.536-.512-3.072-2.048-3.072zM301.48 311.79c-1.536 0-3.072.512-3.072 2.048l-3.584 19.456c0 1.024 1.024 2.56 2.56 3.072 1.536 0 2.56-1.024 2.56-2.56l3.584-18.944c.512-1.536-.512-3.072-2.048-3.072zm-13.824-42.496c-1.536 0-2.56 1.024-2.56 2.56 1.024 12.288 0 25.088-2.048 37.376 0 1.536.512 2.56 2.56 3.072 1.536 0 2.56-.512 2.56-1.536 2.048-12.8 3.072-26.112 2.048-38.912 0-1.536-1.024-2.56-2.56-2.56zm13.824-8.192c-1.536.512-2.048 1.536-2.048 3.072.512 3.584.512 7.68 1.024 11.776 0 1.536 1.024 2.56 2.56 2.56 2.048 0 3.072-1.024 3.072-3.072l-1.536-12.288c-.512-1.536-1.536-2.048-3.072-2.048zm28.16-.512c-.512-1.536-1.536-2.048-3.072-2.048-1.536.512-2.048 1.536-2.048 3.072.512 2.048 1.024 3.584 1.024 5.12 0 1.024 1.536 2.048 2.56 2.048 2.048 0 3.072-1.536 2.56-3.072s-.512-3.584-1.024-5.12zm-12.288-11.776c-1.024-3.584-1.536-7.168-2.56-10.752-.512-1.536-1.536-2.56-3.072-2.048s-2.56 1.536-2.048 3.072c.512 3.584 1.536 7.168 2.048 10.752.512 1.024 1.536 2.048 2.56 2.048 1.536 0 2.56-1.536 3.072-3.072z"/></svg>