<svg xmlns="http://www.w3.org/2000/svg" viewBox="0 0 485.197 485.197" fill="#1b75bc"><path d="M484.141 213.718c-5.926-8.06-89.627-120.68-148.272-134.008-9.422-2.141-20.256-3.182-33.12-3.182-40.812 0-96.15 10.782-160.229 23.266-35.694 6.954-76.15 14.837-117.933 21.53a4.25 4.25 0 0 0-3.478 5.116l13.667 61.668a4.248 4.248 0 0 0 4.979 3.249c1.919-.382 192.605-38.274 255.64-45.278 3.619-.402 7.421-.606 11.3-.606 74.295 0 170.67 73.67 171.635 74.414a4.242 4.242 0 0 0 2.566.884h.05a4.25 4.25 0 0 0 3.195-7.053zm-59.528-38.564c-45.728-25.336-85.401-38.182-117.917-38.182-4.191 0-8.31.221-12.238.658-58.218 6.469-224.089 39.013-252.28 44.581l-11.794-53.213a2215.744 2215.744 0 0 0 18.794-3.144l7.411 37.98a4.251 4.251 0 0 0 4.985 3.357 4.251 4.251 0 0 0 3.358-4.985l-7.377-37.804c30.581-5.355 59.917-11.068 86.591-16.265 63.646-12.4 118.612-23.109 158.604-23.109 12.223 0 22.44.972 31.236 2.971 41.066 9.333 97.882 73.816 126.127 108.718-9.688-6.401-21.857-14.005-35.5-21.563z"/><path d="M294.458 120.623c-15.02 1.669-38.356 5.194-69.364 10.48a4.25 4.25 0 0 0 1.427 8.379c30.847-5.257 54.019-8.76 68.875-10.41 30.966-3.44 72.282 8.125 119.481 33.449a4.25 4.25 0 0 0 4.019-7.49c-49.42-26.516-91.283-38.09-124.438-34.408zM8.407 135.966a4.25 4.25 0 1 0-8.312 1.781l12 56a4.251 4.251 0 0 0 5.045 3.265 4.251 4.251 0 0 0 3.266-5.046l-11.999-56zm300.03 167.314c.452 0 .912-.073 1.364-.226 40.443-13.703 79.681-36.435 116.622-67.564a4.25 4.25 0 1 0-5.477-6.5c-36.126 30.443-74.439 52.653-113.872 66.014a4.25 4.25 0 0 0 1.363 8.276zm-81.475 15.323a294.429 294.429 0 0 0 55.714-7.737 4.251 4.251 0 0 0-1.968-8.27 285.998 285.998 0 0 1-54.102 7.514 4.248 4.248 0 0 0-4.068 4.424 4.249 4.249 0 0 0 4.424 4.069z"/><path d="M449.287 298.112c-.222.032-21.31 2.731-41.955-13.426a426.827 426.827 0 0 0 19.092-15.183 4.25 4.25 0 1 0-5.477-6.5c-93.563 78.842-183.462 86.527-242.405 79.089-64.015-8.077-106.482-35.212-106.904-35.485a4.249 4.249 0 0 0-5.877 1.25 4.243 4.243 0 0 0 .665 5.411c-.129 34.605 21.324 70.124 22.257 71.65a4.25 4.25 0 0 0 5.844 1.408 4.25 4.25 0 0 0 1.408-5.843c-.204-.333-18.964-31.376-20.859-62.039 10.697 5.831 31.54 15.905 60.001 23.665 6.405 34.152 33.974 63.94 35.168 65.216a4.238 4.238 0 0 0 3.104 1.345 4.25 4.25 0 0 0 3.101-7.154c-.264-.282-24.898-26.877-32.187-57.055a307.383 307.383 0 0 0 32.821 6.016 297.12 297.12 0 0 0 37.601 2.399c.298 0 .596-.006.894-.007 16.971 29.509 51.734 46.121 53.24 46.829a4.25 4.25 0 0 0 3.617-7.692c-.326-.154-30.521-14.574-46.983-39.333a293.67 293.67 0 0 0 58.287-8.055c23.623 23.158 60.905 27.905 62.517 28.099a4.25 4.25 0 0 0 1.021-8.438c-.345-.042-32.009-4.109-53.696-22.217 19.734-5.486 39.179-13.066 58.239-22.699 23.564 23.897 61.74 28.759 63.372 28.956a4.25 4.25 0 0 0 1.018-8.439c-.359-.043-34.778-4.416-56.463-24.656 13.72-7.385 27.231-15.84 40.5-25.344 17.845 14.894 36.329 16.932 45.072 16.932 3.006 0 4.861-.24 5.143-.279a4.25 4.25 0 0 0 3.624-4.795c-.329-2.328-2.472-3.956-4.8-3.626zM166.443 185.769a4.248 4.248 0 0 0-4.935-3.432l-117 21a4.25 4.25 0 0 0 1.502 8.367l117-21a4.252 4.252 0 0 0 3.433-4.935z"/></svg>