<svg xmlns="http://www.w3.org/2000/svg" viewBox="0 0 485.259 485.259" fill="#1b75bc"><path d="M200.521 149.009c16.705-33.029 24.825-68.496 24.825-108.429 0-22.376-18.204-40.58-40.579-40.58s-40.579 18.204-40.579 40.58c0 67.748-8.489 113.153-29.093 154C94.49 153.733 86 108.328 86 40.58 86 18.204 67.796 0 45.42 0 23.045 0 4.842 18.204 4.842 40.58c0 39.933 8.12 75.399 24.825 108.429 14.555 28.778 33.797 52.059 50.773 72.6 3.558 4.305 6.951 8.41 10.26 12.505-4.216 5.865-8.604 11.722-13.214 17.876-34.05 45.452-72.644 96.97-72.644 192.69 0 22.375 18.204 40.579 40.579 40.579S86 467.055 86 444.68c0-83.863 4.462-132.913 29.094-176.06 24.631 43.147 29.093 92.196 29.093 176.06 0 22.375 18.204 40.579 40.579 40.579h.002c10.839 0 21.029-4.221 28.693-11.885 7.664-7.664 11.885-17.855 11.885-28.694 0-95.72-38.594-147.238-72.645-192.691-4.61-6.154-8.997-12.01-13.213-17.875 3.309-4.094 6.703-8.2 10.26-12.505 16.976-20.541 36.217-43.822 50.773-72.6zm-69.684 82.299a4.248 4.248 0 0 0-.147 5.113c4.848 6.834 9.88 13.552 15.208 20.663 22.902 30.572 47.908 63.955 61.259 112.117h-44.312a4.25 4.25 0 1 0 0 8.5h46.502a258.748 258.748 0 0 1 3.882 19.5h-14.384a4.25 4.25 0 1 0 0 8.5h15.601c1.549 12.123 2.399 25.07 2.399 38.979 0 8.569-3.337 16.625-9.396 22.684-6.059 6.059-14.114 9.395-22.682 9.395h-.002c-17.688 0-32.079-14.391-32.079-32.079 0-89.449-5.085-140.187-33.985-186.6a4.251 4.251 0 0 0-7.216 0c-28.9 46.413-33.986 97.151-33.986 186.6 0 17.688-14.391 32.079-32.079 32.079s-32.079-14.391-32.079-32.079c0-92.89 37.692-143.203 70.947-187.595 5.328-7.112 10.36-13.829 15.209-20.664a4.25 4.25 0 0 0-.147-5.113c-3.987-4.986-8.054-9.906-12.358-15.114-18.906-22.875-39.194-47.423-53.679-79.158h17.533a4.25 4.25 0 1 0 0-8.5H29.649c-6.69-16.475-11.776-34.86-14.376-55.834h30.572a4.25 4.25 0 1 0 0-8.5H14.366a267.055 267.055 0 0 1-1.024-23.621c0-17.69 14.391-32.08 32.079-32.08 17.688 0 32.08 14.391 32.08 32.08 0 73.24 9.811 121.096 33.863 165.178a4.251 4.251 0 0 0 7.462 0c14.14-25.915 23.353-53.143 28.548-86.057h15.472a4.25 4.25 0 1 0 0-8.5h-14.239c1.286-9.643 2.254-19.775 2.922-30.5h19.317a4.25 4.25 0 1 0 0-8.5h-18.853c.466-10.01.695-20.52.695-31.621 0-17.69 14.391-32.08 32.079-32.08 17.689 0 32.079 14.391 32.079 32.08 0 86.503-39.128 133.845-73.65 175.613-4.305 5.207-8.372 10.127-12.359 15.114z"/><path d="M73.727 296.756a4.248 4.248 0 0 0-5.844 1.404c-17.328 28.287-40.365 74.252-40.365 146.52a4.25 4.25 0 1 0 8.5 0c0-70.119 22.322-114.67 39.113-142.08a4.251 4.251 0 0 0-1.404-5.844zM204.088 36.33a4.25 4.25 0 0 0-4.25 4.25c0 31.376-5.086 59.508-15.548 86.003a4.25 4.25 0 0 0 7.906 3.122c10.862-27.507 16.142-56.659 16.142-89.124a4.25 4.25 0 0 0-4.25-4.251zm-21.182 104.303a4.252 4.252 0 0 0-5.687 1.946c-3.844 7.845-8.136 15.489-13.122 23.369a4.25 4.25 0 1 0 7.183 4.544c5.153-8.143 9.592-16.05 13.572-24.174a4.249 4.249 0 0 0-1.946-5.685zM449.107 9.059c-17.264 0-31.309 15.345-31.309 34.207 0 22.605-13.188 56.603-35.257 74.366-5.757 4.633-11.683 9.402-17.504 14.605-5.823-5.205-11.748-9.974-17.504-14.605-22.069-17.765-35.257-51.761-35.257-74.366 0-18.862-14.045-34.207-31.309-34.207s-31.309 15.345-31.309 34.207c0 24.778 7.617 48.11 22.027 67.475 16.528 22.212 39.561 42.618 55.972 55.825a734.072 734.072 0 0 1 7.966 6.486c12.721 25.993 5.327 103.544-.624 165.975-5.256 55.14-8.226 89.568-3.268 102.043 7.396 18.606 20.807 29.715 35.875 29.715 15.316 0 29.027-11.091 36.675-29.667 18.058-43.86-5.636-243.766-8.719-268.982a812.953 812.953 0 0 1 6.856-5.569c13.924-11.206 36.907-32.51 55.852-55.671 14.489-17.713 22.148-41.098 22.148-67.629-.001-18.863-14.046-34.208-31.311-34.208zm2.583 96.455c-18.532 22.655-40.996 43.481-54.602 54.432a691.012 691.012 0 0 0-8.751 7.136 4.251 4.251 0 0 0-1.497 3.792c.212 1.7 16.178 130.803 15.717 211.328h-22.713a4.25 4.25 0 1 0 0 8.5h22.598c-.462 21.071-2.248 38.012-6.022 47.181-6.292 15.28-17.063 24.403-28.815 24.403-11.456 0-21.914-9.104-27.975-24.354-4.453-11.203-.429-53.41 3.831-98.097 4.986-52.309 10.485-110.02 6-146.133h22.051a4.25 4.25 0 1 0 0-8.5h-23.333c-.014 0-.026.004-.04.004-1.288-6.716-3.042-12.411-5.359-16.832a4.253 4.253 0 0 0-1.044-1.292 683.491 683.491 0 0 0-8.75-7.136c-11.155-8.978-30.55-25.569-46.458-44.244h26.984a4.25 4.25 0 1 0 0-8.5h-33.847c-.389-.511-.779-1.021-1.16-1.534-.318-.428-.615-.867-.926-1.299h7.267a4.25 4.25 0 1 0 0-8.5h-11.334c-.461 0-.896.092-1.312.228a101.97 101.97 0 0 1-9.668-22.395h18.313a4.25 4.25 0 1 0 0-8.5h-20c-.151 0-.295.029-.442.045a108.168 108.168 0 0 1-2.245-21.979c0-14.175 10.232-25.707 22.809-25.707 12.577 0 22.809 11.532 22.809 25.707 0 24.267 13.468 60.897 38.428 80.987 6.598 5.311 13.421 10.801 19.944 16.848a4.251 4.251 0 0 0 5.778 0c6.52-6.044 13.344-11.536 19.944-16.848 24.96-20.09 38.428-56.721 38.428-80.987 0-14.175 10.232-25.707 22.809-25.707 12.577 0 22.81 11.532 22.81 25.707 0 24.545-6.995 46.069-20.227 62.246z"/><path d="M452.924 39.017a4.25 4.25 0 0 0-4.25 4.25c0 24.546-6.995 46.07-20.227 62.246a4.25 4.25 0 0 0 3.288 6.941 4.241 4.241 0 0 0 3.292-1.559c14.489-17.713 22.148-41.098 22.148-67.629a4.25 4.25 0 0 0-4.251-4.249zM369.485 217.2a4.251 4.251 0 0 0-4.207 4.293c.172 16.877-.711 37.092-2.778 63.617a4.25 4.25 0 0 0 8.474.66c2.087-26.78 2.978-47.232 2.804-64.363a4.24 4.24 0 0 0-4.293-4.207zm-5.18 96.723c-2.336-.225-4.407 1.502-4.624 3.84a7765.25 7765.25 0 0 1-2.007 21.257c-5.256 55.144-8.227 89.575-3.269 102.05a4.252 4.252 0 0 0 5.519 2.38 4.25 4.25 0 0 0 2.38-5.519c-4.453-11.204-.429-53.415 3.831-98.104.666-6.987 1.345-14.105 2.009-21.28a4.247 4.247 0 0 0-3.839-4.624z"/></svg>