<svg xmlns="http://www.w3.org/2000/svg" viewBox="0 0 484.47 484.47" fill="#1b75bc"><path d="M391.745 114.138a4.248 4.248 0 0 0-3.251-1.706c-.367-.014-35.121-1.422-51.205-12.485 3.222-8.449 9.949-28.502 5.212-37.722-1.381-2.689-3.611-4.463-6.449-5.131-5.178-1.218-11.607-1.598-17.826-1.965-6.818-.402-14.374-.848-18.805-2.454l9.026-25.79a4.251 4.251 0 0 0-3.855-5.651c-.788-.029-79.312-3.105-123.326-20.853a4.266 4.266 0 0 0-.851-.244 11.013 11.013 0 0 0-1.85-.137c-3.549 0-15.517 1.498-20.512 20.766-1.353 5.217-2.554 10.132-3.715 14.885-3.186 13.042-6.195 25.359-11.495 40.2a333.692 333.692 0 0 1-2.837 7.592c-3.173 8.275-5.088 13.271-2.841 18.025 2.019 4.272 6.726 6.545 14.173 9.027 6.715 2.238 19.115 2.331 34.815 2.447 26.736.199 63.316.47 81.36 12.918.808.686 2.686 1.995 5.263 1.995 8.389 0 11.413-12.35 12.779-23.575 4.569 1.318 12.032 4.512 17.67 12.029.326.436.646.873.965 1.312 6.734 9.229 13.697 18.771 77.842 25.898a4.251 4.251 0 0 0 4.585-3.162l5.836-22.617a4.25 4.25 0 0 0-.708-3.602zM178.565 8.5l.114.001c38.887 15.473 100.714 19.917 119.863 20.955l-3.092 8.834c-10.094-.554-85.517-5.228-127.018-21.474 3.613-7.613 8.488-8.316 10.133-8.316zM379.31 134.655c-57.015-6.641-62.978-14.814-68.253-22.043a126.03 126.03 0 0 0-1.032-1.401c-10.91-14.547-27.128-16.21-27.813-16.274a4.249 4.249 0 0 0-4.625 3.847c-1.371 15.079-3.956 19.299-4.865 20.343a3.375 3.375 0 0 1-.139-.093c-20.14-14.098-56.861-14.371-86.366-14.59-14.355-.106-26.753-.199-32.19-2.011-5.517-1.839-8.604-3.385-9.176-4.596-.695-1.471 1.06-6.049 3.093-11.35.578-1.507 1.21-3.162 1.876-4.955h71.634a4.25 4.25 0 0 0 0-8.5H152.81c2.448-7.329 4.378-14.083 6.114-20.697h16.543a4.25 4.25 0 0 0 0-8.5h-14.385a2450.02 2450.02 0 0 0 1.514-6.166 1201.98 1201.98 0 0 1 3.182-12.805c44.175 17.798 119.641 21.551 126.724 21.853l-2.29 6.543a4.25 4.25 0 0 0 1.356 4.722c5.515 4.413 15.543 5.005 26.158 5.631 5.858.346 11.916.704 16.38 1.754.293.069.54.167.835.74 2.729 5.31-2.281 22.864-6.709 33.633a4.25 4.25 0 0 0 1.152 4.833c13.546 11.699 41.803 15.099 53.554 16.027l-3.628 14.055zm-7.086 72.786c-.085.011-8.685 1.062-19.517 1.063-14.407 0-25.723-1.806-33.021-5.245 1.836-8.857 5.285-29.719-.857-38.066-1.792-2.435-4.275-3.832-7.183-4.039a48.72 48.72 0 0 0-3.427-.113c-4.501 0-9.576.513-14.485 1.01-4.689.474-9.537.965-13.59.965-2.14 0-3.932-.136-5.364-.406l4.806-26.886a4.247 4.247 0 0 0-4.705-4.965c-.325.04-32.923 4.019-68.242 4.02-23.162.001-42.282-1.676-56.832-4.983a4.371 4.371 0 0 0-.954-.105c-.672 0-16.493.272-18.72 23.925-.505 5.369-.909 10.414-1.299 15.294-1.07 13.38-2.081 26.018-4.951 41.51-.551 2.972-1.104 5.614-1.592 7.946-1.816 8.675-2.913 13.912.063 18.249 2.673 3.896 7.682 5.392 15.429 6.657 1.419.232 3.048.345 4.979.345 7.192 0 17.66-1.607 29.779-3.469 16.425-2.522 35.042-5.381 52.008-5.381 13.093 0 23.028 1.695 30.36 5.182.775.475 2.327 1.234 4.319 1.234 2.18 0 4.168-.895 5.748-2.588 2.179-2.335 4.884-7.24 4.317-22.811 4.785.58 12.627 2.558 19.367 9.06.391.377.775.758 1.16 1.139 6.892 6.825 14.018 13.882 55.447 13.882 7.513 0 16.101-.235 25.526-.698a4.251 4.251 0 0 0 4.023-3.852l2.163-23.258a4.25 4.25 0 0 0-1.273-3.444 4.239 4.239 0 0 0-3.482-1.172zm-5.529 23.402c-7.847.343-15.039.517-21.427.517-37.933 0-43.796-5.806-49.466-11.421-.412-.408-.822-.814-1.24-1.217-11.226-10.831-24.903-11.672-28.827-11.672-.788 0-1.221.032-1.221.032-2.333.172-4.116 2.2-3.955 4.534 1.046 15.104-.835 19.682-1.566 20.858a4.524 4.524 0 0 1-.152-.07c-8.534-4.132-19.751-6.141-34.292-6.141-17.614 0-36.572 2.911-53.298 5.48-11.776 1.809-21.946 3.37-28.489 3.37-1.446 0-2.661-.079-3.609-.233-5.739-.937-9.033-1.973-9.79-3.077-.92-1.342.085-6.142 1.248-11.699.19-.907.392-1.876.597-2.878a4.207 4.207 0 0 0 1.98.511h63.788a4.25 4.25 0 0 0 0-8.5h-63.788c-.159 0-.31.03-.464.047a289.334 289.334 0 0 0 1.485-9.348h43.482a4.25 4.25 0 0 0 0-8.5h-42.393c.856-7.46 1.425-14.549 2.009-21.852.388-4.85.789-9.865 1.289-15.174 1.344-14.272 8.383-15.989 9.917-16.194 15.087 3.358 34.639 5.062 58.125 5.061 27.071 0 52.565-2.305 63.579-3.452l-2.199 12.3H220.71a4.25 4.25 0 0 0 0 8.5h45.79l-.722 4.038a4.252 4.252 0 0 0 2.09 4.447c2.9 1.641 6.8 2.405 12.275 2.405 4.482 0 9.548-.513 14.446-1.008 4.699-.476 9.558-.967 13.629-.967 1.018 0 1.967.031 2.821.092.3.022.56.079.942.598 3.539 4.808 1.386 22.935-1.273 34.272a4.252 4.252 0 0 0 1.907 4.589c8.516 5.251 22.004 7.914 40.09 7.914 6.173-.001 11.603-.32 15.332-.619l-1.342 14.457zm-10.52 98.44c-.086.011-8.72 1.062-19.517 1.062-14.407 0-25.724-1.806-33.022-5.245 1.836-8.857 5.285-29.718-.857-38.066-1.792-2.435-4.275-3.832-7.183-4.039a48.743 48.743 0 0 0-3.428-.114c-4.501 0-9.576.514-14.485 1.01-4.689.475-9.536.965-13.589.965-2.139 0-3.932-.136-5.363-.406l4.806-26.887a4.247 4.247 0 0 0-4.705-4.965c-.325.04-32.923 4.02-68.242 4.02-23.161 0-42.282-1.676-56.831-4.982a4.372 4.372 0 0 0-.954-.106c-.672 0-16.493.272-18.72 23.925-.505 5.368-.909 10.414-1.299 15.293-1.07 13.38-2.081 26.019-4.952 41.512a339.014 339.014 0 0 1-1.592 7.946c-1.816 8.675-2.912 13.911.063 18.248 2.673 3.897 7.681 5.392 15.429 6.658 1.42.232 3.049.345 4.979.345 7.192 0 17.66-1.607 29.78-3.469 16.425-2.522 35.042-5.381 52.008-5.381 13.092 0 23.027 1.695 30.359 5.182.775.475 2.327 1.234 4.319 1.234 2.18 0 4.167-.895 5.748-2.588 2.179-2.335 4.884-7.24 4.317-22.811 4.785.58 12.627 2.558 19.367 9.06.391.377.775.758 1.16 1.139 6.892 6.825 14.018 13.882 55.448 13.882 7.512 0 16.1-.235 25.525-.698a4.251 4.251 0 0 0 4.023-3.851l2.164-23.258a4.252 4.252 0 0 0-1.273-3.444 4.25 4.25 0 0 0-3.483-1.171zm-223.711-69.227c15.087 3.359 34.639 5.061 58.125 5.061 27.071 0 52.565-2.305 63.579-3.452l-2.048 11.457c-.159.004-.316-.004-.477.019-.825.117-82.487 11.528-128.891 1.364 1.73-12.662 8.243-14.252 9.712-14.449zm218.181 92.629c-7.847.343-15.039.517-21.427.517-37.933 0-43.796-5.806-49.467-11.421-.412-.408-.822-.814-1.24-1.217-11.225-10.831-24.902-11.672-28.827-11.672-.788 0-1.221.032-1.221.032-2.333.172-4.116 2.2-3.955 4.534 1.046 15.103-.835 19.682-1.566 20.857a4.524 4.524 0 0 1-.152-.07c-8.534-4.132-19.751-6.141-34.291-6.141-17.615 0-36.573 2.911-53.298 5.48-11.776 1.808-21.946 3.37-28.49 3.37-1.446 0-2.661-.079-3.609-.233-5.739-.938-9.033-1.973-9.79-3.077-.92-1.342.084-6.141 1.247-11.698.357-1.705.749-3.58 1.151-5.632.381.112.775.19 1.192.19h60.079a4.25 4.25 0 0 0 0-8.5h-59.778c1.796-10.92 2.729-20.503 3.532-30.162h18.386a4.25 4.25 0 0 0 0-8.5h-17.698c.167-2.07.338-4.173.52-6.318 14.926 3.146 32.882 4.246 50.66 4.246 34.779 0 68.818-4.188 77.952-5.401l-.829 4.636a4.252 4.252 0 0 0 2.09 4.447c2.9 1.641 6.8 2.405 12.275 2.405 4.482 0 9.547-.512 14.445-1.008 4.699-.476 9.557-.967 13.629-.967 1.018 0 1.968.031 2.823.092.3.022.56.079.941.598 3.539 4.807 1.387 22.935-1.272 34.271a4.252 4.252 0 0 0 1.907 4.589c8.517 5.251 22.005 7.914 40.092 7.914 6.172 0 11.601-.319 15.331-.619l-1.342 14.458zm-7.043 95.613c-.086.011-8.72 1.062-19.517 1.062-14.407 0-25.724-1.806-33.022-5.245 1.836-8.857 5.285-29.718-.857-38.066-1.792-2.435-4.275-3.832-7.183-4.039a48.722 48.722 0 0 0-3.428-.114c-4.5 0-9.576.514-14.484 1.01-4.688.475-9.537.965-13.589.965-2.139 0-3.932-.136-5.363-.406l4.805-26.887a4.247 4.247 0 0 0-4.706-4.965c-.325.04-32.898 4.02-68.241 4.02-23.162.001-42.282-1.676-56.831-4.982a4.372 4.372 0 0 0-.954-.106c-.672 0-16.493.272-18.72 23.925-.505 5.366-.908 10.409-1.298 15.286-1.07 13.382-2.081 26.023-4.952 41.518-.551 2.973-1.104 5.615-1.592 7.947-1.816 8.675-2.912 13.911.063 18.248 2.673 3.897 7.681 5.392 15.429 6.658 1.42.232 3.049.345 4.979.345 7.192 0 17.66-1.607 29.78-3.469 16.425-2.522 35.042-5.381 52.008-5.381 13.092 0 23.027 1.695 30.359 5.182.775.475 2.327 1.234 4.319 1.234 2.18 0 4.167-.895 5.748-2.588 2.179-2.335 4.884-7.24 4.317-22.812 4.785.58 12.628 2.558 19.367 9.06.391.377.775.757 1.16 1.139 6.892 6.825 14.019 13.882 55.448 13.882 7.513 0 16.1-.235 25.525-.698a4.251 4.251 0 0 0 4.023-3.852l2.164-23.258a4.252 4.252 0 0 0-4.757-4.613zM119.89 379.072c15.087 3.359 34.638 5.062 58.125 5.061 27.071 0 52.565-2.305 63.579-3.452l-1.446 8.089c-10.79 1.181-84.429 8.668-127.468-1.114a4.181 4.181 0 0 0-1.12-.085c2.579-7.256 7.132-8.339 8.33-8.499zM338.071 471.7c-7.847.343-15.039.517-21.427.517-37.933 0-43.797-5.807-49.467-11.422-.412-.408-.822-.814-1.24-1.217-11.225-10.831-24.902-11.672-28.827-11.672-.788 0-1.221.032-1.221.032-2.333.172-4.116 2.2-3.955 4.534 1.046 15.103-.835 19.682-1.566 20.858a3.131 3.131 0 0 1-.152-.07c-8.534-4.132-19.751-6.141-34.291-6.141-17.615 0-36.573 2.911-53.298 5.48-11.776 1.808-21.946 3.37-28.49 3.37-1.446 0-2.661-.079-3.609-.233-5.739-.938-9.033-1.973-9.79-3.077-.921-1.342.084-6.141 1.247-11.698a340.345 340.345 0 0 0 1.63-8.14c2.484-13.405 3.604-24.632 4.546-35.964h18.386a4.25 4.25 0 0 0 0-8.5h-17.698a958.58 958.58 0 0 1 1.087-12.711c.271.127.556.23.859.299 17.409 3.957 38.702 5.228 58.899 5.228 34.669 0 66.073-3.747 68.969-4.103l-1.51 8.449a4.25 4.25 0 0 0 2.09 4.446c2.899 1.641 6.8 2.405 12.275 2.405 4.482 0 9.547-.512 14.445-1.008 4.699-.476 9.558-.967 13.629-.967 1.018 0 1.968.031 2.823.092.3.022.56.079.942.598 3.539 4.807 1.387 22.935-1.273 34.272a4.253 4.253 0 0 0 1.907 4.589c8.517 5.251 22.005 7.914 40.092 7.914 6.172 0 11.601-.319 15.331-.619l-1.343 14.459z"/></svg>