<svg xmlns="http://www.w3.org/2000/svg" viewBox="0 0 478.588 478.588" fill="#1b75bc"><path d="M382.067 108.468c-15.649-28.271-23.768-61.677-24.132-99.29-.023-2.347-1.966-4.21-4.291-4.209a4.25 4.25 0 0 0-4.209 4.291c.378 39.041 8.854 73.804 25.195 103.325 4.572 8.259 8.842 16.281 12.783 24.24h-55.415a4.25 4.25 0 0 0 0 8.5h59.505c3.552 7.617 6.789 15.232 9.686 22.999h-54.191a4.25 4.25 0 0 0 0 8.5h29.186c.021.371.07.744.193 1.114 8.002 24.117 12.17 48.707 13.118 77.386a4.25 4.25 0 0 0 8.495-.281c-.955-28.901-5.112-53.806-13.044-78.219h19.25c20.692 61.764 19.915 136.199-15.132 296.606a4.249 4.249 0 0 0 4.155 5.158 4.25 4.25 0 0 0 4.148-3.344c48.104-220.159 32.278-280.828-15.3-366.776z"/><path d="M393.492 288.628a4.257 4.257 0 0 0-4.469 4.02c-2.437 46.116-11.431 103.561-28.303 180.783a4.249 4.249 0 0 0 4.155 5.158 4.25 4.25 0 0 0 4.148-3.344c16.974-77.683 26.025-135.562 28.487-182.149a4.246 4.246 0 0 0-4.018-4.468zm-257.181-181.82a4.247 4.247 0 0 0-5.776 1.66c-30.336 54.8-45.536 95.58-44.425 166.386a4.25 4.25 0 0 0 4.248 4.183l.068-.001a4.25 4.25 0 0 0 4.183-4.316c-1.081-68.89 13.755-108.65 43.362-162.136a4.249 4.249 0 0 0-1.66-5.776zm143.738 170.413c-.156.186-15.94 18.575-38.563 19.274-14.72.455-29.227-6.68-43.119-21.205a4.25 4.25 0 0 0-6.143 5.875c10.339 10.81 21.128 17.97 32.235 21.429-.604 9.64-5.742 88.316-17.251 168.875a4.251 4.251 0 0 0 8.415 1.203c11.119-77.832 16.316-153.937 17.233-168.191 2.415.343 4.841.536 7.281.536.535 0 1.074-.008 1.61-.025a52.036 52.036 0 0 0 4-.29c.953 14.778 6.154 90.514 17.219 167.97a4.251 4.251 0 0 0 8.415-1.203c-11.322-79.258-16.48-156.721-17.218-168.359 19.37-5.26 31.762-19.674 32.379-20.404a4.249 4.249 0 0 0-.505-5.989 4.247 4.247 0 0 0-5.988.504zm-41.936-66.38a4.25 4.25 0 0 0 4.25-4.25v-14.456a4.25 4.25 0 0 0-8.5 0v14.456a4.25 4.25 0 0 0 4.25 4.25z"/><path d="M174.507 89.926H114.54c3.783-9.715 6.829-19.891 9.147-30.498h49.319a4.25 4.25 0 1 0 0-8.5h-47.635c2.634-14.8 3.916-30.382 3.785-46.712A4.248 4.248 0 0 0 124.908 0h-.035a4.251 4.251 0 0 0-4.216 4.284c.318 39.625-7.802 74.677-24.136 104.184-47.578 85.948-63.404 146.616-15.302 366.777a4.252 4.252 0 0 0 5.059 3.245 4.25 4.25 0 0 0 3.244-5.059C42.04 256.103 57.457 196.585 103.957 112.586c2.541-4.59 4.867-9.321 7.026-14.159h63.522a4.25 4.25 0 0 0 4.25-4.25 4.247 4.247 0 0 0-4.248-4.251z"/></svg>