<svg xmlns="http://www.w3.org/2000/svg" viewBox="0 0 471.426 471.426" fill="#1b75bc"><path d="M99.865 30.082c-2.048-.512-3.584-1.024-5.12-1.536-1.024-.512-2.56 0-3.072 1.536-.512 1.024 0 2.56 1.536 3.072 2.048.512 3.584 1.024 5.632 1.536h.512c1.024 0 2.56-1.024 2.56-1.536 0-1.536-.512-2.56-2.048-3.072zm31.744 5.12c-4.096-3.072-9.216-4.096-14.336-4.096h-5.632c-1.536 0-2.56 1.024-2.56 2.56s1.024 2.56 2.56 2.56h6.144c4.096 0 8.192 1.024 11.776 3.072.512.512 1.024.512 1.536.512 1.024 0 1.536-.512 1.536-1.024.512-1.024 0-3.072-1.024-3.584zm-25.6 223.744c2.048 0 3.072-1.024 3.072-2.56-.512-3.072 0-5.632.512-8.704 0-1.536-.512-2.56-2.048-3.072-1.536 0-2.56.512-3.072 2.048-1.024 3.072-1.536 6.656-1.024 10.24 0 1.024 1.024 2.048 2.56 2.048zm0-23.552c0 1.536 1.024 2.56 2.56 2.56s2.56-1.024 3.072-3.072c-.512-3.584-1.024-6.656-2.56-10.24-1.024-1.536-2.048-2.048-3.584-1.536-1.536 1.024-2.048 2.048-1.536 3.584 1.024 3.072 2.048 5.632 2.048 8.704zm-9.216-18.432c1.024.512 1.536 1.536 2.048 2.048s1.536 1.024 2.048 1.024 1.024-.512 1.536-1.024c1.024-1.024 1.024-2.56 0-3.584-.512-.512-1.024-1.536-2.048-2.048l-.512-.512c-1.024-1.024-2.56-1.024-3.584 0s-1.024 2.56 0 3.584l.512.512z"/><path d="M437.273 223.618l-4.096-11.264c-3.584-8.704-3.584-18.944-1.024-28.16l2.56-9.216c5.632-17.408 6.144-36.352 1.536-54.272l-2.048-9.216c-2.048-7.68-1.536-16.384 1.024-24.064l1.536-5.12c5.632-16.896 2.56-35.328-8.192-49.664l-.512-.512c-4.608-6.144-12.288-10.24-20.48-11.264l-5.12-.512c-8.704-1.024-16.896-3.072-25.088-6.144l-6.144-2.56c-12.288-4.608-26.112-3.584-37.376 2.56l-8.704 5.12c-6.656 3.584-14.336 4.608-21.504 3.584l-13.824-2.048c-15.872-2.56-32.256 0-46.592 7.168l-9.728 4.608c-6.144 2.56-12.8 2.56-18.432-1.024l-9.216-5.632c-10.752-6.656-23.552-9.216-36.352-7.168l-14.336 2.56c-4.608.512-9.728-.512-13.824-3.072L127.513 9.09c-10.752-7.168-23.04-10.24-35.84-8.704L82.969 1.41c-7.68 1.024-14.848 4.608-20.48 10.24l-1.024 1.024c-11.776 12.8-16.384 30.72-12.8 47.616l.512 2.048c.512 4.608-.512 8.704-3.072 12.288l-.512.512c-10.752 13.312-14.336 31.232-10.24 47.616l3.584 13.312c1.024 3.584 1.024 7.68-.512 11.264l-6.656 18.432c-5.12 15.36-3.584 31.744 3.584 45.568l9.216 15.36c2.56 4.608 3.584 9.728 2.048 14.848l-2.048 7.68c-4.608 17.408-.512 35.84 11.264 49.664l2.048 2.048c9.728 10.752 23.04 17.408 37.376 18.432l1.536-.512c4.93.379 9.789.053 14.475-.895 2.529 6.931 3.957 14.151 3.957 21.375l.512 12.8c0 3.072 2.56 5.12 5.12 5.12 3.072 0 5.12-2.56 4.608-5.632l-.512-12.8c0-8.266-1.358-16.192-4.027-23.79a55.117 55.117 0 0 0 11.697-6.556c18.822 16.822 43.466 25.738 68.618 25.738 2.258 0 4.517-.001 6.904-.257a53.4 53.4 0 0 0 4.872 18.177l9.728 20.48c1.024 3.072 2.048 6.656 1.536 10.24l-1.536 18.432c-1.024 12.288 2.048 25.088 9.216 35.328l19.456 28.16c.433.433.961.862 1.539 1.217 2.632 3.61 6.935 5.439 11.261 5.439.512 0 1.536-.512 2.56 0 4.608-1.024 10.24-5.632 10.24-14.848 0-.151-.011-.298-.023-.444.006-.023.017-.045.023-.068l2.048-17.408c1.536-8.192 1.024-16.896-1.536-24.576l-2.048-6.144c-1.024-3.584 0-7.168 2.56-9.728l1.536-1.024c6.366-5.877 9.911-14.564 9.312-23.373 9.016 5.549 18.838 8.525 29.088 8.525 8.192 0 16.384-2.048 23.04-5.632l11.776-6.144c5.632-2.56 11.776-4.608 17.92-4.608h3.072c26.624-.512 48.64-21.504 51.712-47.616l1.024-9.728c.512-4.608 1.536-8.704 3.584-12.8l5.632-12.288c8.704-19.456 9.216-40.448 1.536-59.904zm-269.232 99.757c1.878-.137 4.029-.497 6.576-1.452 4.608 0 8.192-2.048 10.24-4.608 3.072-4.608 1.536-10.752.512-16.384-1.024-3.584-1.536-7.168-1.024-9.216 2.048-6.144 9.728-7.168 15.872-7.68 4.608-.512 7.68-1.024 8.704-3.072.512-1.024 0-3.072-1.024-3.584s-2.56 0-3.072 1.024c-.512.512-3.072 1.024-5.12 1.024-7.168 1.024-17.408 2.56-20.48 11.264-1.536 3.584-.512 7.68.512 12.288 1.024 4.608 2.048 9.728 0 12.288-1.024 1.536-3.072 2.048-6.656 2.56-12.8 1.024-17.408-.512-19.456-1.536a3.758 3.758 0 0 0-1.435-.184 102.406 102.406 0 0 1-15.483-10.807l3.605-2.833c5.12-4.096 9.216-9.728 10.752-16.384 3.584-15.36.512-32.256-9.216-45.056l-2.56-3.072c-4.608-6.144-6.144-13.824-4.096-20.992l2.436-8.283c.813-1.829 1.688-4.074 2.684-6.565 5.12-13.312 12.288-33.28 27.136-32.256 3.072.512 5.12 6.656 4.608 10.752 0 1.024 1.536 2.56 2.56 2.56s2.56-1.024 2.56-2.56c.512-6.656-2.048-15.872-9.216-16.384-14.517-1.21-22.997 12.824-28.447 25.595-.669-8.658-3.396-17.057-7.905-24.571l-3.723-6.013c15.398-16.068 40.745-20.533 60.555-10.883 3.072 1.536 6.144 3.072 9.216 5.12 3.584 2.048 7.68 4.608 11.776 6.144 3.584 1.536 7.68 2.56 11.264 3.072 1.024 0 2.048-1.024 3.072-2.048 0-1.024-1.024-2.56-2.56-2.56-3.072-.512-6.144-1.024-9.216-2.56-4.096-1.536-7.68-4.096-11.264-6.144-3.072-2.048-6.144-4.096-9.728-5.632-11.236-5.226-24.07-6.442-36.193-4.075-.844-4.672-2.194-10.706-4.473-16.55 1.306-6.514 4.677-12.425 8.922-15.727 1.024-1.024 1.536-2.56.512-3.584s-2.56-1.536-3.584-.512c-3.938 3.222-7.12 7.699-9.031 13.074-1.967-3.458-4.371-6.592-7.353-8.978-1.024-1.024-2.56-.512-3.584.512s-.512 2.56.512 3.584c8.028 6.611 11.698 21.492 13.024 29.389-9.176 2.602-17.729 7.311-24.598 13.945l-6.858-11.078c-3.072-5.12-3.584-11.776-1.536-17.408l1.024-3.072c4.608-11.776 4.096-24.576-1.536-35.84l-1.536-3.584a33.371 33.371 0 0 1-2.244-5.792 53.265 53.265 0 0 0 6.852-.352l2.56-.512c4.608-.512 9.216.512 12.8 3.072l13.312 8.704c11.776 7.68 25.6 10.24 38.912 8.192l7.68-1.536c8.704-1.536 17.408-.512 25.088 3.072l6.144 2.56c7.86 3.723 16.724 5.774 25.509 6.424-6.557 6.956-10.619 15.964-11.261 25.504-.472-.42-.952-.827-1.448-1.208-6.496-4.967-22.403-9.932-40.058-10.005.427-.725.822-1.472 1.146-2.283 2.048-5.632 1.536-12.288 0-17.92-.512-1.536-1.536-2.56-3.072-2.048s-2.56 1.536-2.048 3.072c1.536 5.12 2.048 10.24.512 14.848-.5 2.001-1.497 3.506-2.976 4.529-3.945.258-7.929.776-11.872 1.615-1.536.512-2.56 1.536-2.048 3.072s1.536 2.56 3.072 2.048c23.552-5.12 47.616 2.048 54.272 7.168 5.278 3.839 8.758 10.376 9.174 17.083-2.664.176-5.285.792-7.638 1.861-1.024 1.024-1.536 2.048-1.024 3.584 1.024 1.024 2.048 1.536 3.584 1.024 4.608-2.048 9.728-2.048 14.336 0 1.536.512 3.584 1.536 5.12 2.56 2.048 1.024 4.608 2.56 7.168 3.584 4.096 1.536 8.704 1.536 12.8 1.536 5.12 0 9.728 0 13.312 2.56 1.024 1.024 2.56 2.048 3.584 3.584 1.024 1.024 2.048 2.56 3.584 3.584.512.512 1.024.512 1.536.512s1.024 0 1.536-1.024.512-2.56-.512-3.584l-3.072-3.072c-1.536-1.536-2.56-3.072-4.608-4.608-5.12-3.072-10.752-3.072-16.384-3.072-3.584 0-7.68 0-10.752-1.024-2.048-.512-4.096-1.536-6.144-3.072-1.536-1.024-3.584-2.048-5.632-3.072-1.77-.804-3.692-1.355-5.669-1.654-.227-4.958-1.91-9.862-4.585-14.054.003-.056.014-.107.014-.164-.888-11.546 4.393-23.854 13.491-31.262 9.839-.153 19.678-2.159 29.517-5.602l8.192-3.072c7.68-3.072 16.384-4.096 24.576-2.56l5.12 1.024c1.798.359 3.61.612 5.427.776.066.084.127.169.205.248 4.096 4.608 5.632 11.264 4.096 17.408 0 1.536.512 2.56 2.048 3.072h.512c1.024 0 2.048-1.024 2.048-2.048 1.676-6.287.605-12.915-2.646-18.483 11.644-.348 23.141-4.569 32.342-12.237l1.024-.512a12.55 12.55 0 0 1 2.508-1.531l3.123 23.035c.512 3.072 0 6.144-1.024 9.216l-9.216 22.016c-4.608 10.24-5.12 21.504-2.56 32.256l6.656 25.088c1.536 4.096.512 8.704-1.536 12.8l-7.68 13.824c-6.144 11.264-10.752 23.04-13.824 35.84l-6.144 27.136-10.752-1.024c-15.872-1.024-32.256.512-47.616 4.096-.512 0-1.024-.512-1.536-1.024-11.264-11.776-28.672-14.848-43.008-7.68l-1.536 1.024c-18.312 9.156-29.021 28.268-29.14 47.965a98.655 98.655 0 0 1-39.898-5.553zm259.504-44.461l-5.632 12.288c-2.048 5.12-3.584 10.24-4.096 15.872l-1.024 9.728c-2.56 21.504-20.48 38.4-41.984 38.912h-3.072c-7.68 0-15.36 2.048-22.528 5.632l-11.776 6.144c-14.336 7.68-31.744 6.144-45.056-3.584l-33.792-24.576c-2.048-1.536-5.632-1.024-7.168 1.024s-1.024 5.632 1.024 7.168l25.3 18.4.812 7.712c.512 5.632-1.536 11.776-6.144 15.872l-1.536 1.024c-5.632 5.12-7.68 13.312-5.632 20.48l2.048 6.144c2.048 6.144 2.56 13.312 1.536 19.968l-2.048 17.408c0 .32.032.64.093.956a6.295 6.295 0 0 0-.093 1.091c.512 2.56-.512 4.096-2.048 4.608-1.024 0-3.072-.512-4.096-2.048-.266-.355-.609-.645-.979-.905l-18.477-26.743c-6.144-8.192-8.704-18.432-7.68-28.672l1.536-18.432c.512-5.12-.512-10.752-2.56-15.36l-9.728-19.968c-10.24-21.504-1.536-47.104 19.456-57.856l1.536-1.024c10.24-5.12 22.528-3.072 31.232 5.632 2.048 2.048 5.632 5.12 9.728 4.096 14.848-4.096 30.208-5.12 45.568-4.096l15.36 1.024c2.56 0 5.12-1.536 5.632-4.096l7.168-31.232c2.56-11.264 6.656-22.528 12.8-32.768l7.68-13.824c3.584-6.656 4.608-13.824 2.56-20.992l-6.656-25.088c-2.048-8.704-1.536-17.408 2.048-25.6l8.192-22.528c2.048-4.608 2.56-9.216 2.048-14.336L383.9 82.796c9.131-.499 17.565-5.377 22.653-12.777l2.048-2.56c1.536-2.56 1.024-5.632-1.536-7.168-2.56-1.536-5.632-1.024-7.168 1.536l-2.048 2.56c-3.499 4.998-9.925 8.522-16.421 8.211-1.031-.886-2.475-1.306-4.059-1.042-1.515 0-2.78.749-3.612 1.814-3.568.831-6.915 2.367-9.7 4.842l-1.024.512c-10.24 8.192-23.04 11.776-35.84 9.216l-5.12-1.024c-10.24-2.048-20.992-1.024-30.72 3.072l-8.192 3.072c-17.408 6.656-36.864 6.656-53.76-1.024l-6.144-2.56c-9.728-4.608-20.48-5.632-30.72-4.096l-7.68 1.536c-10.752 2.048-22.016-.512-31.232-6.656l-13.312-8.704c-5.632-3.584-12.8-5.632-19.456-4.608l-2.56.512c-3.148.35-6.321.337-9.456.009-.902-.637-2.021-1.033-3.344-1.033-.38.076-.743.196-1.096.338-8.983-1.874-17.362-6.512-23.48-13.65-2.048-2.048-5.12-2.56-7.168-.512s-2.56 5.12-.512 7.168c7.364 8.703 17.36 14.538 28.259 16.979.773 4.348 2.103 8.418 3.997 12.205l1.024 3.072c4.608 8.704 5.12 18.944 1.536 27.648l-1.024 3.072c-3.072 8.192-2.56 18.432 2.56 26.112l13.312 21.504c6.656 10.24 8.192 23.04 5.12 34.816l-2.56 9.216c-2.56 10.24-.512 21.504 5.632 29.696l3.072 2.048c7.68 10.752 10.24 24.064 7.168 36.864-1.024 4.096-3.584 8.192-7.168 10.752l-7.168 5.632a43.097 43.097 0 0 1-9.697 5.462c3.713-11.154 2.529-23.274-3.102-34.134l-3.072-5.632c-1.024-1.024-2.56-1.536-3.584-1.024-1.024 1.024-1.536 2.56-1.024 3.584l3.072 5.632c5.771 10.654 6.145 22.844 1.473 33.574a46.872 46.872 0 0 1-13.249 1.242h-1.024c-11.776-.512-22.528-6.144-30.208-14.848l-2.048-2.048c-9.728-10.752-13.312-26.112-9.216-39.936l2.048-7.68c2.048-7.68 1.024-15.872-3.072-22.528l-9.216-15.36c-6.656-10.752-7.68-24.064-3.584-36.352l6.656-18.432c1.536-5.632 2.048-11.776.512-17.408l-3.584-13.312c-3.584-13.312-.512-27.648 8.192-38.4l.512-.512c5.12-6.144 6.656-13.824 5.12-20.992l-.512-2.048c-3.072-13.824 1.024-28.16 10.24-38.4l1.024-1.024c3.584-4.096 8.704-6.656 14.336-7.168l8.704-1.024c10.24-1.024 20.48 1.536 29.184 7.168l13.824 9.216c6.144 4.096 13.824 5.632 20.992 4.608l13.824-3.072c10.24-1.536 20.992.512 29.696 5.632l9.216 5.632c8.704 5.12 18.944 5.632 28.16 1.024l9.728-4.608c12.288-6.144 26.624-8.192 40.448-6.144l13.824 2.048c9.728 1.536 19.456 0 28.16-4.608l8.704-5.12c8.704-4.608 19.456-5.12 28.672-1.536l6.144 2.56c3.818 1.572 7.837 2.833 11.919 3.857l-.143.239c-4.096 5.632-11.264 8.704-18.432 8.704-5.12-.512-10.24 1.536-14.336 4.608l-1.024.512c-10.24 8.192-23.552 11.776-36.352 9.216l-5.12-1.024c-9.728-2.048-19.456-1.024-28.16 2.56l-7.68 3.072c-16.896 6.656-36.352 6.144-53.248-1.024l-5.632-2.56c-8.704-4.096-18.432-5.12-28.16-3.584l-7.68 1.024c-11.264 2.048-22.528-.512-31.744-6.656-1.024-1.024-2.56-.512-3.584.512s-.512 2.56.512 3.584c10.24 6.656 23.04 9.216 35.328 7.168l7.68-1.024c8.192-1.536 16.896-.512 25.088 3.072l5.632 2.56c9.216 4.096 19.456 6.144 29.696 6.144 9.216 0 18.432-1.536 28.16-3.584l7.68-3.072c8.192-3.072 16.896-4.096 25.088-2.56l5.12 1.024c14.336 2.56 29.184-1.024 40.448-10.24l1.024-.512c3.072-2.56 7.168-3.584 11.264-3.584 8.704.512 17.408-4.096 22.528-11.264l1.274-2.123c3.519.699 7.047 1.227 10.502 1.611l5.632.512c5.12.512 10.24 3.584 13.312 7.68l.512.512c8.704 11.264 11.264 26.112 6.656 39.936l-1.536 5.12c-3.072 9.728-3.584 19.968-1.024 29.696l2.048 9.216c4.096 16.384 3.584 33.28-1.024 49.152l-2.56 9.216c-3.072 11.264-2.56 23.552 1.536 34.816l4.096 11.264c6.655 16.894 6.143 35.326-1.025 51.71z"/><path d="M396.825 198.018h1.024c1.024 0 2.048-.512 2.56-1.024 0-.512.512-1.024.512-1.536.512-1.536 0-3.072-1.536-3.584s-3.072 0-3.584 1.536c0 .512-.512 1.024-.512 1.536-.512 1.024 0 2.56 1.536 3.072zm-.512 12.288c1.536 0 2.56-1.024 2.56-3.584v-3.584c0-1.024-1.024-2.56-2.56-2.56-1.024 0-2.56 1.024-2.56 2.56v4.608c0 1.536 1.024 2.56 2.56 2.56zm1.024 6.656c-1.536.512-2.048 1.536-1.536 3.072l1.536 3.584c.512 1.024 1.536 1.536 2.56 1.536h.512c1.536-.512 2.048-1.536 1.536-3.072l-1.536-3.584c-.512-1.536-1.536-2.048-3.072-1.536zm5.12 13.824c-1.536.512-2.048 1.536-2.048 3.072.512 1.536.512 3.584.512 5.12s1.024 2.56 2.56 2.56 2.56-1.024 2.56-3.072c0-1.536 0-3.584-.512-5.632-.512-1.536-1.536-2.048-3.072-2.048zm.512 15.36c-1.536-.512-3.072.512-3.072 2.048-1.024 5.632-3.072 10.752-6.144 15.872-.512 1.024 0 3.072 1.024 3.584.512.512 1.024.512 1.536.512 1.024 0 2.048-.512 2.048-1.024 3.072-5.632 5.632-11.776 6.656-17.92.512-1.536-.512-3.072-2.048-3.072zm-10.752 25.6c-1.024-.512-3.072 0-3.584 1.024-2.048 3.072-3.584 7.168-4.608 10.752l-1.536 7.168c-3.072 15.872-19.968 27.136-39.424 26.112h-2.56c-1.536 0-2.56 1.024-2.56 2.56s1.024 2.56 2.56 2.56h5.12c20.48 0 38.912-12.288 42.496-30.208l1.536-7.168c.512-3.072 1.536-6.144 3.584-9.216.512-1.024 0-3.072-1.024-3.584zm-70.144 48.128l-10.24 3.584c-1.024.512-2.048 1.536-1.536 3.072.512 1.024 1.536 1.536 2.56 1.536h.512l10.24-3.584c1.024-.512 2.048-1.536 1.536-3.072-.512-1.024-1.536-2.048-3.072-1.536zm-24.576 5.12c-3.072 0-6.144-.512-9.216-1.024-1.536 0-2.56.512-3.072 2.048 0 1.536.512 2.56 2.048 3.072 3.072.512 6.656 1.024 10.24 1.024 1.536 0 2.56-1.024 2.56-2.56s-1.024-2.56-2.56-2.56zm-20.992-5.12l-4.608-3.072c-1.024-1.024-2.56-.512-3.584.512s-.512 2.56.512 3.584c1.536 1.024 3.584 2.048 5.12 3.072 0 .512.512.512 1.024.512 1.024 0 1.536-.512 2.56-1.024.512-1.536 0-3.072-1.024-3.584zm-64.512-134.656c5.632 7.168 5.632 17.92 5.12 27.136 0 2.048 0 4.096.512 5.632 2.56 8.192 11.264 9.728 15.36 10.24h1.024c20.48 4.096 23.04 10.752 28.672 23.552l1.024 2.56c1.536 3.072 1.536 6.656 1.024 9.216-.512 2.048-1.536 3.072-4.608 3.072-1.536 0-2.56 1.024-2.56 2.56s1.024 2.56 2.56 2.56c5.12 0 8.192-2.56 10.752-6.656 1.024-3.584.512-8.192-1.024-12.288l-1.024-2.56c-5.632-13.312-9.216-22.016-32.256-26.624-.512-.512-1.024-.512-1.536-.512-4.608-1.024-9.728-2.048-11.264-6.656-.512-1.024-.512-2.56-.512-4.096 0-10.24 0-21.504-6.656-30.208-4.608-5.632-11.776-9.216-21.504-10.752-1.536-.512-2.56.512-3.072 2.048s.512 3.072 2.048 3.072c8.192 1.024 13.824 4.096 17.92 8.704zm-41.472 87.04c-1.024-.512-2.56 0-3.072 1.536-1.024 2.56-1.024 5.12-.512 7.68.512 1.024 1.536 2.048 2.56 2.048.512 0 .512-.512.512 0 1.536-.512 2.56-1.536 2.048-3.072v-5.12c.512-1.024 0-2.56-1.536-3.072zm8.704-13.824c-1.536 1.024-2.56 2.048-3.584 3.072l-1.024 1.024c-1.024 1.024-1.024 2.56 0 3.584.512.512 1.536 1.024 2.048 1.024s1.536 0 1.536-.512l1.024-1.024 3.584-3.584c1.024-1.024 1.024-2.56 0-3.584s-2.56-1.024-3.584 0zm0-32.256c-2.048-1.536-4.608-3.072-6.144-5.12-6.656-7.168-6.656-17.408-1.024-27.648.512-1.536 0-3.072-1.024-3.584-1.536-.512-3.072 0-3.584 1.024-7.168 12.288-6.656 24.576 1.536 33.792 2.048 2.56 4.608 4.608 7.168 6.144 3.072 2.048 6.144 4.096 7.68 7.168 2.56 4.608 2.56 9.216 1.024 13.312-.512 1.536 0 3.072 1.536 3.584h1.024c1.024 0 1.536-1.024 2.048-1.536 2.56-6.144 2.048-11.776-1.024-17.92-2.048-4.608-5.632-6.656-9.216-9.216z"/><path d="M252.953 257.41l-3.072-1.024c-1.024-.512-2.56 0-3.072 1.536-.512 1.024 0 2.56 1.536 3.072l3.584 1.024h.512c1.536 0 2.56-1.024 2.048-1.536.512-1.536 0-2.56-1.536-3.072zm-9.216-3.072c-2.048-.512-3.584-1.024-5.632-1.536-1.024-.512-2.56 0-3.072 1.536-.512 1.024 0 2.56 1.536 3.072 2.048.512 3.584 1.024 5.632 1.536h.512c1.024 0 2.048-.512 2.56-1.536s0-2.56-1.536-3.072zm-28.672 17.92c1.024 0 2.048-.512 2.56-.512 1.024-1.024 1.024-2.56 0-3.584s-2.048-1.024-3.072-.512c-1.024-.512-4.096-2.048-4.608-5.12-.512-5.12 0-7.68 2.56-9.728 3.072-2.048 7.168-1.024 11.776.512l3.072 1.024c1.024.512 2.56 0 3.072-1.536.512-1.024 0-2.56-1.536-3.072l-3.072-1.024c-4.096-1.536-11.264-4.096-16.384 0-5.632 4.096-5.632 9.216-4.608 14.336 1.024 4.608 4.608 7.68 7.68 8.704 1.024.512 2.048.512 2.56.512zm64.512-27.648l-2.56 2.048c-1.024 1.024-1.536 2.56-.512 3.584.512.512 1.536 1.024 2.048 1.024s1.024 0 1.536-.512l2.56-2.048c1.024-1.024 1.536-2.56.512-3.584s-2.56-1.536-3.584-.512zm11.264-10.24c-1.536 1.536-3.584 3.072-5.12 4.608-1.024 1.024-1.024 2.56 0 3.584.512.512 1.536 1.024 2.048 1.024s1.024 0 1.536-1.024c1.536-1.536 3.584-3.072 5.12-4.608 1.024-1.024 1.024-2.56 0-3.584s-2.56-1.024-3.584 0z"/><path d="M299.033 231.298c1.024 1.024 2.56 1.024 3.584 0 2.56-2.56 4.608-5.12 7.168-7.68l1.536-2.048c4.096-4.608 8.192-9.216 12.8-12.288 6.656-4.608 13.824-6.144 21.504-5.632 2.56 0 4.608 1.024 6.144 2.048 3.072 3.072 2.048 9.216-.512 13.824-3.072 5.632-7.168 11.264-12.288 15.36-2.56 2.048-5.632 4.096-8.704 6.144-6.593 4.564-13.181 8.63-17.286 15.672-5.315.891-10.528 3.167-14.97 5.832-1.536 1.024-1.536 2.56-1.024 3.584.512.512 1.024 1.024 2.048 1.024.512 0 1.024-.512 2.048 0 3.615-2.41 7.549-4.176 11.794-5.079a65.247 65.247 0 0 0 .494 15.831c.512 1.024 1.536 2.048 2.56 2.048 2.048 0 3.072-1.536 2.56-3.072-.988-5.929-1.013-11.386-.094-17.282.194-.402.266-.805.094-1.15l-.026-.046a3.86 3.86 0 0 0-.098-.563c3.662-4.99 9.06-8.591 14.46-12.191 3.072-2.048 6.144-4.096 9.216-6.656 5.632-4.608 10.24-10.24 13.824-16.896 3.584-6.144 5.12-14.848-.512-19.968-2.56-2.56-6.656-3.584-9.216-3.584-3.512-.413-7.022-.234-10.433.419a1.988 1.988 0 0 0-.319-.419c-3.072-4.096-4.608-8.704-4.608-13.824v-2.56c0-3.584 0-7.168-2.048-10.752-1.024-1.536-2.56-3.072-4.096-4.096-1.024-.512-1.536-1.024-2.048-1.536-2.56-2.56-3.584-5.632-3.584-8.192 0-2.107.975-3.955 2.406-5.085l.154-.035 2.048-.512c1.359-.453 2.312-1.308 2.161-2.563a2.261 2.261 0 0 0-.113-1.022c-.512-1.536-1.536-2.56-3.072-2.048-1.125.25-2.188.686-3.162 1.273-8.878 1.989-18.057 4.071-23.462-2.809-1.536-2.048-3.072-4.096-4.608-6.656l-1.024-1.536c-2.048-3.072-4.608-6.144-7.168-8.704-1.024-1.024-2.56-1.024-3.584 0s-1.024 2.56 0 3.584c2.56 2.56 4.608 5.12 6.144 7.68l1.024 1.536c1.536 2.56 3.072 5.12 5.12 7.68 4.096 5.12 9.216 6.656 14.848 6.656 2.579 0 5.159-.39 7.672-.908-.244.782-.42 1.597-.504 2.444 0 4.608 1.536 8.704 5.12 12.288.512 1.024 1.536 1.536 2.048 2.048 1.024 1.024 2.56 2.048 3.072 3.072 1.024 2.048 1.024 5.12 1.024 8.192v3.072c0 5.551 1.681 11.091 4.269 15.509a41.685 41.685 0 0 0-7.853 3.947c-5.632 3.584-9.728 8.704-13.824 13.312l-1.536 2.048c-2.048 2.56-4.608 5.12-7.168 7.68-1.024 1.025-1.024 2.561 0 3.585z"/><path d="M252.441 183.17c1.024.512 2.56 3.584 3.584 5.632 3.072 5.632 7.68 14.848 18.432 14.848 3.584 0 7.68-1.024 12.8-3.072 9.216-4.608 11.776-10.24 13.312-14.848.512-1.024 0-2.56-1.536-3.072-1.024-.512-2.56 0-3.072 1.536-1.024 4.096-3.072 8.192-10.752 11.776-15.872 7.68-20.48-1.024-24.576-9.216-2.048-4.096-3.584-7.168-6.656-8.192-1.024-.512-2.56 0-3.072 1.536-.512 1.024 0 2.56 1.536 3.072zm39.424 23.552c.512-1.024 0-2.56-1.536-3.072-1.024-.512-2.56 0-3.072 1.536-1.536 6.144 0 12.8 4.096 17.92.512.512 1.536 1.024 2.048 1.024s1.024-.512 1.024-.512c1.536-1.024 1.536-2.56.512-3.584-3.072-3.584-4.608-8.704-3.072-13.312zm-16.384-84.992c-2.56-1.024-4.608-2.048-7.168-3.072-1.024-.512-2.56.512-3.072 1.536s0 2.56 1.536 3.072l6.144 3.072c.512.512 1.024.512 1.536.512s1.536-.512 2.048-1.536c.512-1.536 0-3.072-1.024-3.584zm45.568 6.144c9.728-1.024 17.408.512 20.992 4.096 3.584 3.072 3.072 7.168 3.072 9.216v.512c0 8.704-8.192 20.992-13.824 29.184-.512 1.024-.512 3.072.512 3.584.512.512 1.024.512 1.536.512 1.024 0 1.536-.512 2.56-.512 7.68-11.264 14.848-23.04 14.848-32.768.313-1.253.428-4.039-.696-7.184.443-.399.91-.71 1.208-1.008l4.608-3.072c1.536-1.024 2.048-2.048 1.024-3.584s-2.56-1.536-3.584-1.024l-4.608 3.072c-.402.402-.804.72-1.206 1.026a17.242 17.242 0 0 0-1.354-1.538c-4.608-4.608-13.312-6.656-25.088-5.632-5.12.512-11.264-3.584-13.312-8.704-1.024-1.536-2.048-2.048-3.584-1.536-1.536 1.024-2.048 2.048-1.536 3.584 3.072 7.168 11.264 12.288 18.432 11.776zm40.448-2.048h1.536c1.536-1.024 2.56-1.536 3.584-2.048 1.024-1.024 1.536-2.56 1.024-3.584-1.024-1.024-2.56-1.536-3.584-1.024s-2.56 1.536-3.584 2.048c-1.536 1.024-1.536 2.56-1.024 3.584.512.512 1.024 1.024 2.048 1.024z"/></svg>