<svg xmlns="http://www.w3.org/2000/svg" viewBox="0 0 64.961 64.961" width="512" height="512"><g fill="#FFF"><path d="M50.213 26.995H29.386a.81.81 0 0 1 0-1.618h20.827a.81.81 0 0 1 0 1.618zm0 17.723H29.386a.81.81 0 0 1 0-1.618h20.827a.81.81 0 0 1 0 1.618z"/><path d="M50.782 4.627h-.801V1a1 1 0 1 0-2 0v3.627h-3.5V1a1 1 0 1 0-2 0v3.627h-3.5V1a1 1 0 1 0-2 0v3.627h-3.5V1a1 1 0 1 0-2 0v3.627h-3.5V1a1 1 0 1 0-2 0v3.627h-3.5V1a1 1 0 1 0-2 0v3.627h-3.5V1a1 1 0 1 0-2 0v3.627h-.802c-4.963 0-9 4.038-9 9V55.96c0 4.962 4.037 9 9 9h36.603c4.963 0 9-4.038 9-9V13.627c0-4.962-4.037-9-9-9zm7 51.334c0 3.86-3.141 7-7 7H14.179c-3.859 0-7-3.14-7-7V13.627c0-3.86 3.141-7 7-7h.802v2.905a1 1 0 1 0 2 0V6.627h3.5v2.905a1 1 0 1 0 2 0V6.627h3.5v2.905a1 1 0 1 0 2 0V6.627h3.5v2.905a1 1 0 1 0 2 0V6.627h3.5v2.905a1 1 0 1 0 2 0V6.627h3.5v2.905a1 1 0 1 0 2 0V6.627h3.5v2.905a1 1 0 1 0 2 0V6.627h.801c3.859 0 7 3.14 7 7v42.334zM23.775 22.356l-4.916 7.866a1.004 1.004 0 0 1-.847.471.995.995 0 0 1-.578-.184l-4.078-2.891a.999.999 0 0 1-.237-1.394.999.999 0 0 1 1.394-.238l3.214 2.278 4.354-6.967a.999.999 0 1 1 1.694 1.059zm0 17.75l-4.916 7.866a1.004 1.004 0 0 1-.847.471.995.995 0 0 1-.578-.184l-4.078-2.891a.999.999 0 0 1-.237-1.394.999.999 0 0 1 1.394-.238l3.214 2.278 4.354-6.967a1 1 0 1 1 1.694 1.059z"/></g></svg>