<svg xmlns="http://www.w3.org/2000/svg" xmlns:xlink="http://www.w3.org/1999/xlink" viewBox="0 0 157.7 205.19"><defs><radialGradient id="a" cx="631.98" cy="618.95" r="113.93" gradientUnits="userSpaceOnUse"><stop offset="0.34" stop-color="#2ab1eb"/><stop offset="0.75" stop-color="#1569a3"/></radialGradient><radialGradient id="b" cx="631.98" cy="618.95" r="113.94" xlink:href="#a"/><linearGradient id="c" x1="678.31" y1="584.37" x2="678.31" y2="554.13" gradientUnits="userSpaceOnUse"><stop offset="0" stop-color="#fff"/><stop offset="1" stop-color="#fff" stop-opacity="0.2"/></linearGradient><linearGradient id="d" x1="590.78" y1="584.67" x2="590.78" y2="556.47" xlink:href="#c"/><radialGradient id="e" cx="631.98" cy="618.94" r="113.93" xlink:href="#a"/><radialGradient id="f" cx="631.98" cy="618.94" r="113.93" xlink:href="#a"/><linearGradient id="g" x1="663.04" y1="533.59" x2="663.04" y2="698.09" gradientUnits="userSpaceOnUse"><stop offset="0" stop-color="#a2e683"/><stop offset="1" stop-color="#57a332"/></linearGradient><linearGradient id="h" x1="606.05" y1="533.59" x2="606.05" y2="698.09" xlink:href="#g"/><linearGradient id="i" x1="672.55" y1="622.28" x2="672.55" y2="551.21" gradientUnits="userSpaceOnUse"><stop offset="0" stop-color="#fff"/><stop offset="1" stop-color="#fff" stop-opacity="0"/></linearGradient><linearGradient id="j" x1="606.06" y1="622.28" x2="606.06" y2="551.21" xlink:href="#i"/><radialGradient id="k" cx="634.54" cy="726.89" r="46.72" gradientTransform="translate(-555.69 -19.09) scale(1 0.29)" gradientUnits="userSpaceOnUse"><stop offset="0" stop-opacity="0.8"/><stop offset="0.21" stop-opacity="0.47"/><stop offset="1" stop-opacity="0"/></radialGradient></defs><title>about1</title><path d="M664.79,583.85h27a65,65,0,0,0-27-27Z" transform="translate(-555.69 -535.24)" fill="url(#a)"/><path d="M604.3,583.85v-27a65,65,0,0,0-27,27Z" transform="translate(-555.69 -535.24)" fill="url(#b)"/><path d="M664.79,583.85h27a65,65,0,0,0-27-27Z" transform="translate(-555.69 -535.24)" opacity="0.2" fill="url(#c)"/><path d="M604.3,583.85v-27a65,65,0,0,0-27,27Z" transform="translate(-555.69 -535.24)" opacity="0.2" fill="url(#d)"/><path d="M664.79,644.34v27a65,65,0,0,0,27-27Z" transform="translate(-555.69 -535.24)" fill="url(#e)"/><path d="M604.3,644.34h-27a65,65,0,0,0,27,27Z" transform="translate(-555.69 -535.24)" fill="url(#f)"/><path d="M691.53,592.23H661.69l-49,49v29.84a21.86,21.86,0,1,0,43.72,0V636h35.13a21.86,21.86,0,0,0,0-43.72Z" transform="translate(-555.69 -535.24)" fill="url(#g)"/><path d="M607.87,635.41h0l48.53-48.53V557.1a21.86,21.86,0,1,0-43.72,0v35.13H577.56a21.86,21.86,0,1,0,0,43.72h29.77Z" transform="translate(-555.69 -535.24)" fill="url(#h)"/><path d="M634.54,622.2a354.56,354.56,0,0,0,78.83-8.61,21.87,21.87,0,0,0-13.43-19.68h0q-1-.4-2-.7h0q-1-.3-2-.51h-.05q-1-.21-2.09-.32h0q-1.08-.11-2.18-.11H661.69l-29.95,29.95Z" transform="translate(-555.69 -535.24)" opacity="0.2" fill="url(#i)"/><path d="M575.34,592.34c-.71.07-1.41.18-2.09.31h-.06c-.68.14-1.35.31-2,.51l-.05,0q-1,.31-1.95.7h0a21.87,21.87,0,0,0-13.43,19.68,349,349,0,0,0,65.6,8.37l35.08-35.08V557.1a21.86,21.86,0,1,0-43.72,0v35.13H577.56q-1.1,0-2.18.11Z" transform="translate(-555.69 -535.24)" opacity="0.2" fill="url(#j)"/><ellipse cx="78.85" cy="191.65" rx="64.67" ry="13.55" opacity="0.15" fill="url(#k)"/></svg>