<svg xmlns="http://www.w3.org/2000/svg" xmlns:xlink="http://www.w3.org/1999/xlink" viewBox="0 0 157.68 199.65"><defs><radialGradient id="a" cx="165.02" cy="478.51" r="46.72" gradientTransform="translate(-84.29 47.37) scale(1 0.29)" gradientUnits="userSpaceOnUse"><stop offset="0" stop-opacity="0.8"/><stop offset="0.21" stop-opacity="0.47"/><stop offset="1" stop-opacity="0"/></radialGradient><linearGradient id="b" x1="40.85" y1="5.79" x2="82.24" y2="47.19" gradientUnits="userSpaceOnUse"><stop offset="0" stop-color="#2ab1eb"/><stop offset="1" stop-color="#1569a3"/></linearGradient><linearGradient id="c" x1="145.64" y1="324.03" x2="145.64" y2="292.48" gradientUnits="userSpaceOnUse"><stop offset="0" stop-color="#fff"/><stop offset="1" stop-color="#fff" stop-opacity="0.2"/></linearGradient><linearGradient id="d" x1="159.34" y1="334.98" x2="230.79" y2="406.44" gradientUnits="userSpaceOnUse"><stop offset="0" stop-color="#97d67a"/><stop offset="1" stop-color="#6bad4a"/></linearGradient><linearGradient id="e" x1="164.93" y1="329.18" x2="222.61" y2="386.86" xlink:href="#c"/><linearGradient id="f" x1="102.92" y1="358.86" x2="171.66" y2="427.6" xlink:href="#b"/><linearGradient id="g" x1="135.1" y1="401.08" x2="135.1" y2="362.41" xlink:href="#c"/></defs><title>about4</title><ellipse cx="80.73" cy="186.1" rx="64.67" ry="13.54" opacity="0.15" fill="url(#a)"/><circle cx="61.35" cy="26.29" r="26.3" fill="url(#b)"/><path d="M145.64,320.45a64.88,64.88,0,0,0,26-5.43,26.29,26.29,0,0,0-52.07,0A64.88,64.88,0,0,0,145.64,320.45Z" transform="translate(-84.29 -292.41)" opacity="0.2" fill="url(#c)"/><path d="M190,318.71A52.09,52.09,0,0,0,178.69,320a33,33,0,0,1-37,31.58,51.88,51.88,0,0,0-2.62,8.86,35.52,35.52,0,0,1,43.59,55.72h0a35.83,35.83,0,0,1-3.24,2.73L176.85,421A52,52,0,1,0,190,318.71Z" transform="translate(-84.29 -292.41)" fill="url(#d)"/><path d="M158.25,354.76a35.54,35.54,0,0,1,32.84,22c19.11-.64,36.6-4.8,50.6-11.4a52,52,0,0,0-63-45.35,33,33,0,0,1-37,31.58,51.62,51.62,0,0,0-2.61,8.85A35.34,35.34,0,0,1,158.25,354.76Z" transform="translate(-84.29 -292.41)" opacity="0.2" fill="url(#e)"/><path d="M185.91,391a28.72,28.72,0,0,0-50.81-18.37,28.72,28.72,0,1,0-41.81,39.24h0a28.9,28.9,0,0,0,2.63,2.21c6.9,5.76,26,21.33,39.18,28.87,13.21-7.54,32.28-23.11,39.19-28.87a29,29,0,0,0,2.62-2.21h0A28.64,28.64,0,0,0,185.91,391Z" transform="translate(-84.29 -292.41)" fill="url(#f)"/><path d="M135.1,396.69a149.64,149.64,0,0,0,50.63-8.79,28.72,28.72,0,0,0-50.63-15.21,28.72,28.72,0,0,0-50.63,15.21A149.66,149.66,0,0,0,135.1,396.69Z" transform="translate(-84.29 -292.41)" opacity="0.1" fill="url(#g)"/></svg>