<svg xmlns="http://www.w3.org/2000/svg" xmlns:xlink="http://www.w3.org/1999/xlink" viewBox="0 0 158.34 193.01"><defs><linearGradient id="a" x1="641.8" y1="336.08" x2="641.8" y2="377.25" gradientUnits="userSpaceOnUse"><stop offset="0" stop-color="#97d67a"/><stop offset="1" stop-color="#71b84f"/></linearGradient><linearGradient id="b" x1="573.24" y1="310.26" x2="641.75" y2="378.77" xlink:href="#a"/><linearGradient id="c" x1="710.93" y1="309.68" x2="653.1" y2="367.51" xlink:href="#a"/><linearGradient id="d" x1="641.8" y1="309.39" x2="641.8" y2="440.06" gradientUnits="userSpaceOnUse"><stop offset="0" stop-color="#2ab1eb"/><stop offset="1" stop-color="#1569a3"/></linearGradient><linearGradient id="e" x1="613.21" y1="355.75" x2="670.38" y2="355.75" xlink:href="#d"/><radialGradient id="f" cx="641.79" cy="475.2" r="46.72" gradientTransform="translate(-562.62 41.7) scale(1 0.29)" gradientUnits="userSpaceOnUse"><stop offset="0" stop-opacity="0.8"/><stop offset="0.21" stop-opacity="0.47"/><stop offset="1" stop-opacity="0"/></radialGradient></defs><title>about3</title><path d="M641.8,335.33a20,20,0,1,0,20,20A20,20,0,0,0,641.8,335.33Zm0,38.2a17.79,17.79,0,1,1,17.79-17.79A17.79,17.79,0,0,1,641.8,373.53Z" transform="translate(-562.62 -295.73)" fill="url(#a)"/><path d="M589.2,359.52a52.6,52.6,0,0,1,47.35-52.33,42.72,42.72,0,0,0-28.93-11.46c-24.86,0-45,21.88-45,48.87a50.94,50.94,0,0,0,12.86,34.19h0a47.39,47.39,0,0,0,3.59,3.58A389.84,389.84,0,0,0,612,410.22C600.1,392.55,589.2,372.74,589.2,359.52Z" transform="translate(-562.62 -295.73)" fill="url(#b)"/><path d="M676,295.73A42.73,42.73,0,0,0,647,307.18a52.6,52.6,0,0,1,47.35,52.33c0,13.22-10.9,33-22.77,50.71a389.3,389.3,0,0,0,32.91-27.85,46.66,46.66,0,0,0,3.59-3.58h0A51,51,0,0,0,721,344.6C721,317.61,700.82,295.73,676,295.73Z" transform="translate(-562.62 -295.73)" fill="url(#c)"/><path d="M641.8,312.64a46.88,46.88,0,0,0-46.88,46.88c0,25.89,46.88,80.17,46.88,80.17s46.88-54.28,46.88-80.17A46.88,46.88,0,0,0,641.8,312.64Zm0,60.9a17.79,17.79,0,1,1,17.79-17.79A17.79,17.79,0,0,1,641.8,373.53Z" transform="translate(-562.62 -295.73)" fill="url(#d)"/><path d="M641.8,327.16a28.59,28.59,0,1,0,28.59,28.59A28.59,28.59,0,0,0,641.8,327.16Zm0,46.37a17.79,17.79,0,1,1,17.79-17.79A17.79,17.79,0,0,1,641.8,373.53Z" transform="translate(-562.62 -295.73)" fill="url(#e)"/><ellipse cx="79.17" cy="179.47" rx="64.67" ry="13.55" opacity="0.15" fill="url(#f)"/></svg>