<svg xmlns="http://www.w3.org/2000/svg" viewBox="0 0 477.36 252.24"><title>arrow_top</title><path d="M374.68,473.2c.11-.42.24-.83.34-1.25a14.54,14.54,0,0,1,4-6.95q59.2-59.17,118.37-118.36L586,258.06q8.57-8.57,17.1-17.18a14.18,14.18,0,0,1,7.94-4.36c.1,0,.18-.13.27-.2h3.84a2.59,2.59,0,0,0,.53.22,13.35,13.35,0,0,1,7.29,3.86q6.78,6.79,13.55,13.59Q741,358.43,845.41,462.83c3,3,5.88,6,6.63,10.37v3.6a5,5,0,0,0-.24.65A13.57,13.57,0,0,1,842.32,488c-.67.22-1.36.38-2,.57h-3.6a22.91,22.91,0,0,1-3.94-1.32,17.56,17.56,0,0,1-4.05-2.92q-107.12-107-214.17-214.14a12.7,12.7,0,0,1-1-1.3c-.53.51-.85.8-1.16,1.11l-61,61Q475.94,406.44,400.54,481.9c-3,3-6.06,5.91-10.5,6.66h-3.6a5.53,5.53,0,0,0-.66-.23A13.46,13.46,0,0,1,375,478c-.11-.41-.23-.83-.35-1.24Z" transform="translate(-374.68 -236.32)" fill="#fff"/></svg>