<svg xmlns="http://www.w3.org/2000/svg" viewBox="0 0 458.25 293.21"><title>gp</title><path d="M160.78,259.37h71.59a91.1,91.1,0,0,1-86.45,60.71c-48.35-.36-88.33-39-90.2-87.35a90.91,90.91,0,0,1,151.94-71,9.86,9.86,0,0,0,13.41,0L247.37,137a9.83,9.83,0,0,0,0-14.29,146.06,146.06,0,0,0-97.88-40.14C68.7,81,.57,147.24,0,228.08a146.6,146.6,0,0,0,293,9.29c.11-1,.19-33.65.19-33.65H160.78a9.82,9.82,0,0,0-9.82,9.82v36A9.82,9.82,0,0,0,160.78,259.37Z" transform="translate(0 -82.52)" fill="#f34a38"/><path d="M414.46,207V171.82a8.61,8.61,0,0,0-8.61-8.61h-29.6a8.61,8.61,0,0,0-8.61,8.61V207H332.47a8.61,8.61,0,0,0-8.61,8.61v29.6a8.61,8.61,0,0,0,8.61,8.61h35.17V289a8.61,8.61,0,0,0,8.61,8.61h29.6a8.61,8.61,0,0,0,8.61-8.61V253.81h35.17a8.61,8.61,0,0,0,8.61-8.61V215.6a8.61,8.61,0,0,0-8.61-8.61Z" transform="translate(0 -82.52)" fill="#f34a38"/></svg>