<svg xmlns="http://www.w3.org/2000/svg" viewBox="0 0 380.25 239.88"><title>ico1</title><path d="M375.25,310.06H5a5,5,0,0,1-4.87-6.14L44.29,114.58a5,5,0,0,1,.13-.69c9.27-36.11,29.5-43.7,44.83-43.7a44.53,44.53,0,0,1,17.58,3.57,42.94,42.94,0,0,1,17.42-3.57,45,45,0,0,1,33,14.43,44.93,44.93,0,0,1,65.85-.13A45,45,0,0,1,256,70.19a42.94,42.94,0,0,1,17.42,3.57A44.54,44.54,0,0,1,291,70.19c15.33,0,35.55,7.59,44.84,43.76a4.75,4.75,0,0,1,.11.6l44.16,189.38a5,5,0,0,1-4.87,6.14Zm-47.67-10H369L326.18,116.64A4.66,4.66,0,0,1,326,116c-6.19-23.74-18-35.8-35-35.8a35.14,35.14,0,0,0-6.66.63c8.61,7.7,14.53,19.25,16.58,33.46h0v0l0,.17c0,.12,0,.25,0,.39Zm-81.86,0h71.76l-26.4-183.85a5,5,0,0,1-.07-.64c-2.18-14.82-9.43-26.42-19.93-31.85l-.36-.21A32.81,32.81,0,0,0,256,80.18a35,35,0,0,0-26.79,12.49,44.72,44.72,0,0,1,6,22.49Zm-100.45,0H235L225,115.76c0-.15,0-.3,0-.45s0-.12,0-.18a34.79,34.79,0,0,0-6.12-19.71,5.06,5.06,0,0,1-.59-1.15,35,35,0,0,0-63,20.61h0v0h0V115h0v0h0v0h0v0h0v.15c0,.15,0,.3,0,.45Zm-82.51,0h72.49l10-184.89v0h0v0h0V115h0v0h0s0,0,0-.07h0a44.72,44.72,0,0,1,5.93-22.09,35,35,0,0,0-26.94-12.66,32.82,32.82,0,0,0-14.7,3.33l-.36.21c-10.51,5.43-17.76,17-19.93,31.85a5,5,0,0,1-.07.64Zm-51.47,0H52.67L79.26,114.9c0-.14,0-.29,0-.43v0h0A63.42,63.42,0,0,1,84.67,96.1c-4.33,1.31-10,4.49-11.81,12.23A5,5,0,0,1,63.13,106C67,89.54,82.4,85.19,90,85.19a5,5,0,0,1,1.47.22,44.24,44.24,0,0,1,4.44-4.59,35.2,35.2,0,0,0-6.66-.63c-17,0-28.84,12-35,35.8a4.86,4.86,0,0,1-.13.65ZM169,112.19a5,5,0,0,1-4.87-6.15C168,89.54,183.4,85.19,191,85.19a5,5,0,0,1,0,10c-.65,0-14.14.34-17.15,13.15A5,5,0,0,1,169,112.19Zm-65,0A5,5,0,0,1,99.13,106C103,89.54,118.4,85.19,126,85.19a5,5,0,0,1,0,10c-.65,0-14.14.34-17.15,13.15A5,5,0,0,1,104,112.19Z" transform="translate(0 -70.19)" fill="#fff"/></svg>