<svg xmlns="http://www.w3.org/2000/svg" viewBox="0 0 476.21 476.21"><title>ico2</title><path d="M476.21,139.13,455,117.91,420.88,152l-68-7.48,86.63-86.63L418.29,36.71l-86.63,86.63-7.48-68L358.3,21.21,337.09,0,78.26,258.83,89.94,365.06,0,455l21.21,21.21,89.94-89.94L217.38,398ZM188.64,266.36l-7.48-68L225.48,154,233,222Zm65.53-23.11,68,7.48-44.32,44.32-68-7.48Zm139.52-64-44.32,44.32-68-7.48,44.32-44.32Zm-89.22-28.69-44.32,44.32-7.48-68L297,82.52ZM109.65,269.86,154,225.54l7.48,68-44.32,44.32Zm28.69,89.22,44.32-44.32,68,7.48-44.32,44.32Z" fill="#fff"/></svg>