<svg xmlns="http://www.w3.org/2000/svg" viewBox="0 0 512 324.02"><title>ico3</title><path d="M477.16,209.63c-22.37-20-52.4-37.15-84.55-48.39l-.06,0-.1,0a278.76,278.76,0,0,0-45.39-11.66c-9-10.95-39-42.73-90.83-54.78A29,29,0,0,0,220.74,123v41.18c-48.7,21.43-87.32,56.39-108.07,77.86-3.09-15.6-9.95-35.33-25.08-50.46C58.78,162.8,12.41,164,10.46,164.07A10.8,10.8,0,0,0,0,174.51c-.07,2-1.25,48.32,27.56,77.12a81.65,81.65,0,0,0,23.68,16.24,83.79,83.79,0,0,0-23.68,16.38C-1.23,313.07,0,359.42,0,361.38a10.8,10.8,0,0,0,10.44,10.44c.19,0,.77,0,1.7,0,8.88,0,49.36-1.49,75.44-27.58,15.26-15.26,22.1-35.43,25.15-51.33,15.23,15.71,40,38.66,71.38,58.28V389a29.07,29.07,0,0,0,28.95,29,29.32,29.32,0,0,0,8.41-1.24c26.13-7.8,45.91-22,55.07-29.55a181.29,181.29,0,0,0,26.22,2,271.58,271.58,0,0,0,87.73-14.75l.06,0C457.53,351.59,512,303.63,512,267.48,512,250.23,499.63,229.69,477.16,209.63ZM42.86,236.35c-14.78-14.78-19.3-37-20.66-50.15,13.16,1.34,35.27,5.82,50.13,20.68S91.61,243.42,93,256.34C80,255.26,57.68,251.18,42.86,236.35ZM72.32,329c-14.77,14.77-36.93,19.29-50.12,20.66,1.37-13.2,5.9-35.36,20.66-50.13S80,280.2,93,278.86C91.67,292,87.19,314.12,72.32,329Zm170-206a7.43,7.43,0,0,1,2.83-5.85,7.15,7.15,0,0,1,6.15-1.4A151,151,0,0,1,312.6,146q-4.92-.19-9.81-.19a193.34,193.34,0,0,0-60.43,10.13Zm-27,273a7.39,7.39,0,0,1-6.59-1.16,7.27,7.27,0,0,1-3-5.95V363.54a246.86,246.86,0,0,0,42.63,17.38A136.17,136.17,0,0,1,215.31,396.07Zm87.48-28.49a161.39,161.39,0,0,1-27.58-2.44c-24.3-4.25-49.44-14.09-74.72-29.24C160.66,312,130.68,281,118.61,267.47c15.37-17.19,59.81-62.87,117-86.08l.21-.08c22.83-9.24,45.36-13.93,67-13.93a244.73,244.73,0,0,1,36.74,2.8,254.07,254.07,0,0,1,27.88,5.88c-22.67,24.06-37.06,59.51-37.06,93.83,0,31.34,13.89,65.17,35.75,89.35A247.36,247.36,0,0,1,302.79,367.57Zm86.5-15.62C366.77,331.66,352,299.43,352,269.9c0-32.31,15.77-66.91,38.88-86.32,61.84,23.13,99.57,63.92,99.57,83.9C490.4,287.79,452.09,328.93,389.28,351.95Z" transform="translate(0 -93.99)" fill="#fff"/><path d="M429.15,254.25a10.8,10.8,0,0,0-10.8,10.8v4.84a10.8,10.8,0,0,0,21.6,0v-4.84A10.8,10.8,0,0,0,429.15,254.25Z" transform="translate(0 -93.99)" fill="#fff"/><path d="M317.3,194.87a10.8,10.8,0,0,0-15.27.39c-1,1.09-2.06,2.23-3,3.4a10.8,10.8,0,1,0,16.52,13.92c.71-.84,1.44-1.66,2.18-2.44A10.8,10.8,0,0,0,317.3,194.87Z" transform="translate(0 -93.99)" fill="#fff"/><path d="M316.05,327c-12-13.82-18.89-34.79-18.89-57.53a101.91,101.91,0,0,1,6.45-36.22,10.8,10.8,0,0,0-20.16-7.76,123.74,123.74,0,0,0-7.89,44c0,27.87,8.82,54,24.19,71.7A10.8,10.8,0,1,0,316.05,327Z" transform="translate(0 -93.99)" fill="#fff"/></svg>