<svg xmlns="http://www.w3.org/2000/svg" viewBox="0 0 348.76 254.7"><title>ico4</title><path d="M174.38,301.73C76.6,301.73,0,269.28,0,227.86c0-.41,0-.81,0-1.21,0-.16,0-.32,0-.48V121.25s0-.07,0-.1,0-.17,0-.25C0,79.48,76.6,47,174.38,47S348.76,79.48,348.76,120.9c0,.08,0,.17,0,.25s0,.07,0,.1v104.9c0,.16,0,.33,0,.49q0,.6,0,1.21C348.76,269.28,272.17,301.73,174.38,301.73ZM10,225.46a4.89,4.89,0,0,1,0,1c0,.47,0,.93,0,1.4,0,34.62,75.28,63.88,164.38,63.88s164.38-29.25,164.38-63.87c0-.47,0-.94,0-1.4a4.93,4.93,0,0,1,0-1V146.23C315,174.92,251.16,195,174.38,195S33.8,174.92,10,146.23Zm0-103.91c.94,34.34,75.83,63.22,164.37,63.22s163.43-28.89,164.37-63.22c0-.11,0-.22,0-.33s0-.12,0-.18v-.14C338.76,86.28,263.49,57,174.38,57S10,86.28,10,120.9V121c0,.06,0,.12,0,.18S10,121.45,10,121.56ZM129.72,266.83a5,5,0,0,1-4-8l12.94-17.57L125.7,223.73a5,5,0,1,1,8.05-5.93L145,233.1c6.39-4.65,19.33-12.2,36-12.2,23.54,0,40.6,15,41.31,15.64a8,8,0,0,1,0,9.51c-.71.64-17.78,15.64-41.31,15.64-16.7,0-29.64-7.54-36-12.2l-11.27,15.3A5,5,0,0,1,129.72,266.83Zm21.06-25.53c5.2,3.79,16.28,10.4,30.27,10.4s25.56-6.55,31.09-10.39c-5.56-3.83-17.12-10.41-31.09-10.41S156,237.51,150.78,241.3Zm23.6-61.53c-40.27,0-78.2-5.74-106.8-16.18-30.19-11-46.82-26.29-46.82-43s16.63-32,46.82-43c28.6-10.43,66.53-16.18,106.8-16.18s78.19,5.75,106.8,16.18c30.19,11,46.82,26.29,46.82,43s-16.63,32-46.82,43C252.58,174,214.65,179.76,174.38,179.76ZM152.29,72c-30.71,1.68-59,6.85-81.28,15-25.57,9.33-40.24,21.58-40.24,33.62S45.43,144.87,71,154.2c27.53,10,64.25,15.57,103.37,15.57s75.84-5.53,103.37-15.57c25.57-9.33,40.24-21.58,40.24-33.62s-14.67-24.3-40.24-33.63c-21.63-7.89-48.91-13-78.58-14.82l.11.3L208,96.31h0a15.08,15.08,0,0,1-14.17,20.23H159.05a15.08,15.08,0,0,1-14.43-19.45l7.24-23.88C152,72.79,152.13,72.38,152.29,72Zm14,.53a5,5,0,0,0-4.86,3.61L154.19,100a5.08,5.08,0,0,0,4.86,6.55H193.8a5.08,5.08,0,0,0,4.77-6.82l-8.68-23.88a5.1,5.1,0,0,0-4.77-3.34H166.29Zm18.95,28.34h0l-18.07-.11a5,5,0,0,1,0-10h0l18.07.11a5,5,0,0,1,0,10Z" transform="translate(0 -47.03)" fill="#fff"/></svg>