<svg xmlns="http://www.w3.org/2000/svg" viewBox="0 0 470.03 470"><title>ico5</title><path d="M377.53,189.82V74.87A22.5,22.5,0,0,0,375,30H275a22.5,22.5,0,0,0-2.5,44.86V189.82a145.28,145.28,0,0,0-58.61,42,7.5,7.5,0,1,0,11.49,9.64,130.19,130.19,0,0,1,57.07-39.36,7.5,7.5,0,0,0,5-7.09V75H330a7.5,7.5,0,0,0,0-15H275a7.5,7.5,0,0,1,0-15H375a7.5,7.5,0,0,1,0,15H360a7.5,7.5,0,0,0,0,15h2.5v120a7.5,7.5,0,0,0,5,7.09A130,130,0,1,1,276.14,445.5a7.5,7.5,0,1,0-5.64,13.9A144.22,144.22,0,0,0,325,470c80,0,145-65,145-145a145.11,145.11,0,0,0-92.5-135.19Z" transform="translate(0 -0.02)" fill="#fff"/><circle cx="380.92" cy="351.38" r="7.5" fill="#fff"/><circle cx="350.92" cy="381.38" r="7.5" fill="#fff"/><path d="M282.67,415.62a7.5,7.5,0,0,0-6.36,13.58A115,115,0,0,0,424.64,267.51a7.49,7.49,0,0,0-7.52-3.67l-2.73.38a7.45,7.45,0,0,0-1,.21c-11.34,3.22-17.45,8.13-22.37,12.08-5.44,4.37-9,7.26-19.42,7.26-8.86,0-12.86-3.43-18.39-8.19-6.12-5.26-13.75-11.81-28.17-11.81s-22,6.55-28.17,11.81c-5.53,4.75-9.53,8.19-18.39,8.19-10.37,0-14-2.89-19.41-7.26-4.91-3.95-11-8.86-22.36-12.08a7.33,7.33,0,0,0-1-.21l-2.73-.38a7.49,7.49,0,0,0-7.51,3.65l-.2.35A7.5,7.5,0,0,0,233,279l.13,0c8.09,2.38,12.22,5.69,16.58,9.2,6.47,5.19,13.15,10.57,28.81,10.57,14.42,0,22-6.55,28.17-11.81,5.53-4.75,9.53-8.19,18.39-8.19s12.86,3.43,18.39,8.19c6.13,5.26,13.75,11.81,28.17,11.81,15.65,0,22.34-5.37,28.81-10.56,3.85-3.1,7.52-6,13.89-8.33A100,100,0,0,1,282.67,415.62Z" transform="translate(0 -0.02)" fill="#fff"/><path d="M181,193.8V44.87A22.5,22.5,0,0,0,178.53,0h-100A22.5,22.5,0,0,0,76,44.87V165.06a7.5,7.5,0,0,0,15,0V45h42.5a7.5,7.5,0,0,0,0-15h-55a7.5,7.5,0,0,1,0-15h100a7.5,7.5,0,1,1,0,15h-15a7.5,7.5,0,0,0,0,15H166v150a7.49,7.49,0,0,0,.41,2.45l72.89,210.75c4.4,12.73,3.41,24.54-2.79,33.25S219.5,455,206,455H51c-13.47,0-24.3-4.8-30.51-13.51s-7.2-20.52-2.8-33.24L90.62,197.51a7.5,7.5,0,0,0-14.18-4.9L3.55,403.36c-6,17.44-4.34,34.08,4.75,46.85S32.58,470,51,470H206c18.45,0,33.63-7,42.72-19.81s10.79-29.41,4.75-46.85L181,193.8Z" transform="translate(0 -0.02)" fill="#fff"/><path d="M64.65,348.79A7.5,7.5,0,0,0,53,352.27L31.9,413.17c-2.77,8-2.48,15,.84,19.64S42.55,440,51,440H206c8.48,0,15-2.56,18.29-7.21s3.61-11.62.84-19.64l-21.06-60.9a7.5,7.5,0,0,0-11.68-3.47c-4.09,3.17-8,5.6-17.32,5.6-8.86,0-12.86-3.43-18.39-8.19-6.12-5.26-13.75-11.81-28.17-11.81s-22,6.55-28.17,11.81c-5.53,4.75-9.53,8.19-18.39,8.19-9.36,0-13.23-2.43-17.32-5.6Zm45.48,8.79c5.53-4.75,9.53-8.19,18.39-8.19s12.86,3.43,18.39,8.19c6.13,5.26,13.75,11.81,28.17,11.81,7.84,0,13.48-1.4,17.89-3.38l18,52.06a14.44,14.44,0,0,1,1,6,14.44,14.44,0,0,1-6,1H51a14.44,14.44,0,0,1-6-1,14.44,14.44,0,0,1,1-6l18-52.05c4.4,2,10,3.38,17.89,3.38,14.42,0,22-6.55,28.17-11.81Z" transform="translate(0 -0.02)" fill="#fff"/></svg>