<svg xmlns="http://www.w3.org/2000/svg" viewBox="0 0 400.86 66.04"><title>Ресурс 1</title><path d="M0,0,80.54,0,77.12,5.6H45L40.44,1.09,35.93,5.6H3.38ZM45.69,17.93h0a10.45,10.45,0,0,1,5.13,8.48L62.92,6.73h5.64L47.76,40.57l-2.61-4.28a10.48,10.48,0,0,1-4.78,1.16,10.25,10.25,0,0,1-4.86-1.2L46.86,54.92l-3,4.71-21.27-35h5.83L29.87,27A10.58,10.58,0,0,1,35,17.93L10.89,18,7.5,12.33H51.65l-3.43,5.6Zm-5.33,2.88h0a6.4,6.4,0,1,0,6.42,6.38,6.41,6.41,0,0,0-6.42-6.38ZM48.3,41.46h0L51.68,47,76.42,6.73H69.69Zm7.9-34.73h0l-7.38,12,2.84,4.63L61.84,6.73Zm-18,31.39h0L47.64,53.6l3.42-5.45-6.1-10ZM14.93,24.66h0L40,66l3.46-5.56L21.7,24.66Zm-3.39-5.6h0l2.72,4.47H29L31.7,19ZM4,6.73H4L6.77,11.2H52.3l2.77-4.47Z" fill="#1b75bc" fill-rule="evenodd"/><path d="M93.45,12.7h8.91a26,26,0,0,1,3.95.22,5.82,5.82,0,0,1,2.33.92,5.72,5.72,0,0,1,1.71,1.85,5,5,0,0,1,.68,2.59,5.14,5.14,0,0,1-.84,2.86,5.22,5.22,0,0,1-2.29,1.95,5.87,5.87,0,0,1,3.13,2,5.32,5.32,0,0,1,1.09,3.34,6.55,6.55,0,0,1-.71,2.94,5.93,5.93,0,0,1-1.93,2.28,6.39,6.39,0,0,1-3,1.05q-1.12.12-5.43.15H93.45Zm4.5,3.69v5.12h3q2.63,0,3.27-.08a3,3,0,0,0,1.82-.79,2.33,2.33,0,0,0,.66-1.73,2.42,2.42,0,0,0-.57-1.67,2.58,2.58,0,0,0-1.7-.78q-.67-.08-3.85-.08Zm0,8.81v5.92h4.17A20.68,20.68,0,0,0,105.2,31a2.79,2.79,0,0,0,1.63-.88,2.71,2.71,0,0,0,.63-1.88,2.88,2.88,0,0,0-.49-1.69,2.75,2.75,0,0,0-1.41-1,15.36,15.36,0,0,0-4-.32Z" fill="#1b75bc"/><path d="M119.08,23.7,115.2,23a6,6,0,0,1,2.25-3.45,8.27,8.27,0,0,1,4.74-1.12,10.27,10.27,0,0,1,4.26.67,4.24,4.24,0,0,1,2,1.71,8.71,8.71,0,0,1,.57,3.8l0,5a17.13,17.13,0,0,0,.21,3.12,9.07,9.07,0,0,0,.77,2.15h-4.23q-.17-.42-.41-1.25c-.07-.25-.12-.42-.15-.5a7.71,7.71,0,0,1-2.34,1.59,6.74,6.74,0,0,1-2.66.53,5.52,5.52,0,0,1-3.93-1.34,4.46,4.46,0,0,1-1.44-3.4,4.54,4.54,0,0,1,.65-2.42,4.26,4.26,0,0,1,1.83-1.63,14.42,14.42,0,0,1,3.4-1,23.26,23.26,0,0,0,4.15-1V24a2.19,2.19,0,0,0-.61-1.75,3.66,3.66,0,0,0-2.3-.52,2.56,2.56,0,0,0-2.81,2Zm5.72,3.45a26.76,26.76,0,0,1-2.6.65,7.86,7.86,0,0,0-2.33.74A1.77,1.77,0,0,0,119,30a2.08,2.08,0,0,0,.67,1.54,2.34,2.34,0,0,0,1.7.65,3.71,3.71,0,0,0,2.2-.76,2.66,2.66,0,0,0,1-1.4A8.34,8.34,0,0,0,124.8,28Z" fill="#1b75bc"/><path d="M133.08,18.8h4v2.36a6,6,0,0,1,2.1-2,5.82,5.82,0,0,1,2.93-.75,6.17,6.17,0,0,1,4.77,2.19,8.84,8.84,0,0,1,2,6.11,9.11,9.11,0,0,1-2,6.25,6.17,6.17,0,0,1-4.79,2.23,5.47,5.47,0,0,1-2.43-.53,8.18,8.18,0,0,1-2.29-1.81V41h-4.27Zm4.23,7.75a6.15,6.15,0,0,0,1.08,4A3.31,3.31,0,0,0,141,31.85a3.09,3.09,0,0,0,2.48-1.19,6.08,6.08,0,0,0,1-3.89,5.77,5.77,0,0,0-1-3.75,3.16,3.16,0,0,0-2.52-1.22,3.29,3.29,0,0,0-2.6,1.2A5.33,5.33,0,0,0,137.31,26.56Z" fill="#1b75bc"/><path d="M165.58,34.85H153.35v4.23h-3.47V31.38h1.75a9.41,9.41,0,0,0,1.81-3.78,40.45,40.45,0,0,0,.85-8.8h13V31.38h1.73v7.71h-3.48Zm-2.48-3.48,0-9.08h-5.17q-.26,6.65-2.13,9.08Z" fill="#1b75bc"/><path d="M169.94,34.85l5.82-8.27-5.58-7.78h5.21l2.86,4.41,3-4.41h5l-5.47,7.6,6,8.45h-5.25l-3.28-5-3.31,5Z" fill="#1b75bc"/><path d="M189.43,18.8h5.29l4,11.18,4-11.18h5.28v16h-3.63V24.29l-3.94,10.56h-3.65l-3.76-10.56V34.85h-3.65Z" fill="#1b75bc"/><path d="M215.54,23.7l-3.88-.7a6,6,0,0,1,2.25-3.45,8.27,8.27,0,0,1,4.74-1.12,10.27,10.27,0,0,1,4.26.67,4.24,4.24,0,0,1,2,1.71,8.71,8.71,0,0,1,.57,3.8l0,5a17.13,17.13,0,0,0,.21,3.12,9.07,9.07,0,0,0,.77,2.15h-4.23q-.17-.42-.41-1.25c-.07-.25-.12-.42-.15-.5a7.71,7.71,0,0,1-2.34,1.59,6.74,6.74,0,0,1-2.66.53,5.52,5.52,0,0,1-3.93-1.34,4.46,4.46,0,0,1-1.44-3.4,4.54,4.54,0,0,1,.65-2.42,4.26,4.26,0,0,1,1.83-1.63,14.42,14.42,0,0,1,3.4-1,23.26,23.26,0,0,0,4.15-1V24a2.19,2.19,0,0,0-.61-1.75,3.66,3.66,0,0,0-2.3-.52,2.56,2.56,0,0,0-2.81,2Zm5.72,3.45a26.76,26.76,0,0,1-2.6.65,7.86,7.86,0,0,0-2.33.74,1.77,1.77,0,0,0-.84,1.5,2.08,2.08,0,0,0,.67,1.54,2.34,2.34,0,0,0,1.7.65,3.71,3.71,0,0,0,2.2-.76,2.66,2.66,0,0,0,1-1.4,8.34,8.34,0,0,0,.17-2.07Z" fill="#1b75bc"/><path d="M229.5,18.8h4.27v5.88h6.11V18.8h4.29v16h-4.29V28.11h-6.11v6.74H229.5Z" fill="#1b75bc"/><path d="M254.89,34.85l7.62-11.56L255.6,12.7h5.26l4.47,7.12,4.38-7.12h5.22L268,23.46l7.62,11.4h-5.43l-4.94-7.66-5,7.66Z" fill="#1b75bc"/><path d="M287.25,29.74l4.26.71A7,7,0,0,1,288.91,34a7.65,7.65,0,0,1-4.43,1.22q-4.21,0-6.23-2.73a9.15,9.15,0,0,1-1.6-5.53,8.83,8.83,0,0,1,2.1-6.25,6.93,6.93,0,0,1,5.31-2.26,7.19,7.19,0,0,1,5.69,2.36q2.08,2.37,2,7.25H281a4.28,4.28,0,0,0,1,2.94,3.24,3.24,0,0,0,2.46,1,2.63,2.63,0,0,0,1.69-.54A3.36,3.36,0,0,0,287.25,29.74Zm.24-4.29a4.07,4.07,0,0,0-1-2.8,3.1,3.1,0,0,0-4.53.05,3.9,3.9,0,0,0-.9,2.75Z" fill="#1b75bc"/><path d="M296.37,18.8h14.31v16h-4.26V22.25h-5.82v7.21a8.33,8.33,0,0,1-.64,3.86,3.32,3.32,0,0,1-1.41,1.46,6.54,6.54,0,0,1-2.49.35,17.71,17.71,0,0,1-2.69-.27V31.72l.71,0c.45,0,.79,0,1,0q.87,0,1.06-.57a14,14,0,0,0,.2-3.15Z" fill="#1b75bc"/><path d="M329.07,23.55l-4.21.75a3,3,0,0,0-1-1.89,2.93,2.93,0,0,0-2-.63,3.2,3.2,0,0,0-2.55,1.1,5.59,5.59,0,0,0-1,3.67,6.46,6.46,0,0,0,1,4A3.18,3.18,0,0,0,322,31.75a2.89,2.89,0,0,0,2-.69,4.12,4.12,0,0,0,1.09-2.37l4.2.71a7.4,7.4,0,0,1-2.51,4.34,7.8,7.8,0,0,1-5,1.46A7.41,7.41,0,0,1,316.16,33,8.58,8.58,0,0,1,314,26.84a8.6,8.6,0,0,1,2.11-6.19,7.53,7.53,0,0,1,5.72-2.21,7.84,7.84,0,0,1,4.69,1.26A7,7,0,0,1,329.07,23.55Z" fill="#1b75bc"/><path d="M332.14,18.8h4.26v6.56a2.21,2.21,0,0,0,1.5-.65A8.58,8.58,0,0,0,339,22.4a6.13,6.13,0,0,1,1.79-3,4.45,4.45,0,0,1,2.55-.67q.49,0,1.69.08l0,2.81a4.59,4.59,0,0,0-2.16.32,4.39,4.39,0,0,0-1,2,4,4,0,0,1-2.14,2.74q2,.56,3.42,3.49l.17.32,2.39,4.43h-4.59L339,30.21a5.65,5.65,0,0,0-1.13-1.81,2.18,2.18,0,0,0-1.42-.4v6.85h-4.26Z" fill="#1b75bc"/><path d="M357.25,29.74l4.26.71A7,7,0,0,1,358.91,34a7.65,7.65,0,0,1-4.43,1.22q-4.21,0-6.23-2.73a9.15,9.15,0,0,1-1.6-5.53,8.83,8.83,0,0,1,2.1-6.25,6.93,6.93,0,0,1,5.31-2.26,7.19,7.19,0,0,1,5.69,2.36q2.08,2.37,2,7.25H351a4.28,4.28,0,0,0,1,2.94,3.24,3.24,0,0,0,2.46,1,2.63,2.63,0,0,0,1.69-.54A3.36,3.36,0,0,0,357.25,29.74Zm.24-4.29a4.07,4.07,0,0,0-1-2.8,3.1,3.1,0,0,0-4.53.05,3.9,3.9,0,0,0-.9,2.75Z" fill="#1b75bc"/><path d="M365.11,18.8h4.11V28.88l6.57-10.08H380v16h-4.11V24.59l-6.66,10.26h-4.11Zm10.23-6.51h2.08A4.77,4.77,0,0,1,376,15.52a5.21,5.21,0,0,1-6.58,0,4.77,4.77,0,0,1-1.45-3.23H370a2.32,2.32,0,0,0,.76,1.63,3.56,3.56,0,0,0,3.8,0A2.33,2.33,0,0,0,375.34,12.29Z" fill="#1b75bc"/><path d="M384.24,18.8h4v2.36a6,6,0,0,1,2.1-2,5.82,5.82,0,0,1,2.93-.75A6.17,6.17,0,0,1,398,20.63a8.84,8.84,0,0,1,2,6.11A9.11,9.11,0,0,1,398,33a6.17,6.17,0,0,1-4.79,2.23,5.47,5.47,0,0,1-2.43-.53,8.18,8.18,0,0,1-2.29-1.81V41h-4.27Zm4.23,7.75a6.15,6.15,0,0,0,1.08,4,3.31,3.31,0,0,0,2.63,1.29,3.09,3.09,0,0,0,2.48-1.19,6.08,6.08,0,0,0,1-3.89,5.77,5.77,0,0,0-1-3.75,3.16,3.16,0,0,0-2.52-1.22,3.29,3.29,0,0,0-2.6,1.2A5.33,5.33,0,0,0,388.46,26.56Z" fill="#1b75bc"/><path d="M95.92,59.58V48.85H100a5,5,0,0,1,2,.33,2.55,2.55,0,0,1,1.17,1,2.63,2.63,0,0,1,.42,1.42,2.42,2.42,0,0,1-.38,1.3,2.68,2.68,0,0,1-1.13,1,2.82,2.82,0,0,1,1.51,1,2.59,2.59,0,0,1,.53,1.63,3.12,3.12,0,0,1-.32,1.4,2.73,2.73,0,0,1-.79,1,3.31,3.31,0,0,1-1.18.53,7.2,7.2,0,0,1-1.74.18Zm1.43-6.23h2.34a5.29,5.29,0,0,0,1.36-.12,1.41,1.41,0,0,0,1.1-1.47,1.72,1.72,0,0,0-.26-.94,1.31,1.31,0,0,0-.74-.56,6.21,6.21,0,0,0-1.64-.15H97.35Zm0,5H100a6.24,6.24,0,0,0,1-.05,2.34,2.34,0,0,0,.83-.29,1.56,1.56,0,0,0,.54-.6,1.86,1.86,0,0,0,.21-.91,1.77,1.77,0,0,0-.31-1,1.64,1.64,0,0,0-.86-.62,5.37,5.37,0,0,0-1.58-.18h-2.5Z" fill="#1b75bc"/><path d="M106.56,51.81h1.33V55h3.68V51.81h1.33v7.78h-1.33V56.13h-3.68v3.45h-1.33Z" fill="#1b75bc"/><path d="M115.56,51.81h1.33v5.93l3.68-5.93H122v7.78h-1.33v-5.9L117,59.58h-1.43Z" fill="#1b75bc"/><path d="M124.71,51.81h2.06L128.83,58l2.29-6.23H133v7.78H131.7V53.32l-2.31,6.26h-1.19L126,53v6.56h-1.3Z" fill="#1b75bc"/><path d="M140.83,58.63a5,5,0,0,1-1.42.88,4.14,4.14,0,0,1-1.46.26,2.86,2.86,0,0,1-2-.63,2.06,2.06,0,0,1-.69-1.6,2.13,2.13,0,0,1,.26-1,2.17,2.17,0,0,1,.69-.76,3.23,3.23,0,0,1,1-.43,9.56,9.56,0,0,1,1.18-.2,12.21,12.21,0,0,0,2.37-.45c0-.18,0-.3,0-.34a1.45,1.45,0,0,0-.38-1.13,2.23,2.23,0,0,0-1.51-.45,2.36,2.36,0,0,0-1.38.33,2,2,0,0,0-.66,1.15l-1.3-.18a3.19,3.19,0,0,1,.58-1.34,2.56,2.56,0,0,1,1.17-.78,5.27,5.27,0,0,1,1.78-.27,4.72,4.72,0,0,1,1.63.23,2.14,2.14,0,0,1,.92.59,2.06,2.06,0,0,1,.41.9,7.39,7.39,0,0,1,.07,1.21v1.76a18.5,18.5,0,0,0,.08,2.33,2.91,2.91,0,0,0,.33.93H141.1A2.8,2.8,0,0,1,140.83,58.63Zm-.11-2.95a9.79,9.79,0,0,1-2.17.5,5,5,0,0,0-1.16.26,1.15,1.15,0,0,0-.52.43,1.16,1.16,0,0,0,.22,1.5,1.74,1.74,0,0,0,1.18.35,2.75,2.75,0,0,0,1.36-.33,2.06,2.06,0,0,0,.88-.91,3.17,3.17,0,0,0,.21-1.32Z" fill="#1b75bc"/><path d="M144.09,51.81h6.36V52.9h-2.52v6.69H146.6V52.9h-2.52Z" fill="#1b75bc"/><path d="M157.75,57.08l1.37.17a3.33,3.33,0,0,1-1.2,1.85,3.63,3.63,0,0,1-2.24.66A3.59,3.59,0,0,1,153,58.71a4.09,4.09,0,0,1-1-2.95,4.28,4.28,0,0,1,1-3,3.45,3.45,0,0,1,2.64-1.08,3.36,3.36,0,0,1,2.56,1.06,4.2,4.2,0,0,1,1,3c0,.08,0,.2,0,.35h-5.84a3,3,0,0,0,.73,2,2.18,2.18,0,0,0,1.64.68,2,2,0,0,0,1.25-.38A2.53,2.53,0,0,0,157.75,57.08Zm-4.35-2.13h4.37a2.62,2.62,0,0,0-.5-1.47,2,2,0,0,0-1.64-.76,2.11,2.11,0,0,0-1.54.61A2.4,2.4,0,0,0,153.39,54.95Z" fill="#1b75bc"/><path d="M162.11,51.81h6.16v7.78H167V52.9h-3.51v3.88a11.09,11.09,0,0,1-.09,1.79,1.29,1.29,0,0,1-.49.75,1.79,1.79,0,0,1-1.15.32c-.31,0-.67,0-1.07-.06v-1.1h.58a1.47,1.47,0,0,0,.59-.08.43.43,0,0,0,.24-.27,6.25,6.25,0,0,0,.06-1.19Z" fill="#1b75bc"/><path d="M170.92,51.81h1.33v3h1.68a4.32,4.32,0,0,1,2.53.63,2,2,0,0,1,.89,1.75,2.2,2.2,0,0,1-.74,1.67,3.39,3.39,0,0,1-2.37.69h-3.32Zm1.33,6.69h1.39a3.85,3.85,0,0,0,1.8-.31,1,1,0,0,0,.54-1,1.24,1.24,0,0,0-.4-.9,2.66,2.66,0,0,0-1.76-.4h-1.57Z" fill="#1b75bc"/><path d="M179.5,51.81h1.33V55h3.68V51.81h1.33v7.78H184.5V56.13h-3.68v3.45H179.5Z" fill="#1b75bc"/><path d="M188.53,51.81h1.33v3h1.68a4.32,4.32,0,0,1,2.53.63,2,2,0,0,1,.89,1.75,2.2,2.2,0,0,1-.74,1.67,3.39,3.39,0,0,1-2.37.69h-3.32Zm1.33,6.69h1.39a3.84,3.84,0,0,0,1.8-.31,1,1,0,0,0,.54-1,1.24,1.24,0,0,0-.4-.9,2.66,2.66,0,0,0-1.76-.4h-1.57ZM196,51.81h1.33v7.78H196Z" fill="#1b75bc"/><path d="M204.89,51.81h1.33v3.36a1.28,1.28,0,0,0,.89-.24,5.29,5.29,0,0,0,.75-1.41,5.59,5.59,0,0,1,.63-1.22,1.21,1.21,0,0,1,.56-.4,3.61,3.61,0,0,1,1-.1h.27V52.9H210a1,1,0,0,0-.67.15,3.84,3.84,0,0,0-.47,1,4,4,0,0,1-.55,1.05,2.23,2.23,0,0,1-.77.53,3.2,3.2,0,0,1,1.68,1.58l1.45,2.41h-1.46l-1.42-2.41a3.29,3.29,0,0,0-.76-1,1.3,1.3,0,0,0-.77-.23v3.6h-1.33Z" fill="#1b75bc"/><path d="M217,51.81h1.33v3.36a1.28,1.28,0,0,0,.89-.24,5.29,5.29,0,0,0,.75-1.41,5.59,5.59,0,0,1,.63-1.22,1.21,1.21,0,0,1,.56-.4,3.61,3.61,0,0,1,1-.1h.27V52.9h-.37a1,1,0,0,0-.67.15,3.84,3.84,0,0,0-.47,1,4,4,0,0,1-.55,1.05,2.23,2.23,0,0,1-.77.53,3.2,3.2,0,0,1,1.68,1.58l1.45,2.41h-1.46l-1.42-2.41a3.29,3.29,0,0,0-.76-1,1.3,1.3,0,0,0-.77-.23v3.6H217Z" fill="#1b75bc"/><path d="M223.84,55.7a4,4,0,0,1,1.21-3.2,3.65,3.65,0,0,1,2.46-.86,3.52,3.52,0,0,1,2.64,1.05,4,4,0,0,1,1,2.9,5.13,5.13,0,0,1-.45,2.36,3.19,3.19,0,0,1-1.32,1.34,3.85,3.85,0,0,1-1.89.48,3.53,3.53,0,0,1-2.66-1A4.17,4.17,0,0,1,223.84,55.7Zm1.36,0a3.3,3.3,0,0,0,.66,2.24,2.19,2.19,0,0,0,3.29,0,3.38,3.38,0,0,0,.66-2.28,3.2,3.2,0,0,0-.66-2.19,2.19,2.19,0,0,0-3.29,0A3.28,3.28,0,0,0,225.21,55.7Z" fill="#1b75bc"/><path d="M233.44,51.81h2.06L237.56,58l2.29-6.23h1.91v7.78h-1.33V53.32l-2.31,6.26h-1.19L234.74,53v6.56h-1.3Z" fill="#1b75bc"/><path d="M244.47,51.81h6.17v7.78h-1.33V52.9h-3.52v6.69h-1.33Z" fill="#1b75bc"/><path d="M254,51.81h6.16v7.78H258.8V52.9h-3.51v3.88a11.09,11.09,0,0,1-.09,1.79,1.29,1.29,0,0,1-.49.75,1.79,1.79,0,0,1-1.15.32c-.31,0-.67,0-1.07-.06v-1.1h.58a1.47,1.47,0,0,0,.59-.08.43.43,0,0,0,.24-.27,6.25,6.25,0,0,0,.06-1.19Z" fill="#1b75bc"/><path d="M268.15,57.08l1.37.17a3.33,3.33,0,0,1-1.2,1.85,3.63,3.63,0,0,1-2.24.66,3.59,3.59,0,0,1-2.72-1.05,4.09,4.09,0,0,1-1-2.95,4.28,4.28,0,0,1,1-3A3.45,3.45,0,0,1,266,51.63a3.36,3.36,0,0,1,2.56,1.06,4.2,4.2,0,0,1,1,3c0,.08,0,.2,0,.35h-5.84a3,3,0,0,0,.73,2,2.18,2.18,0,0,0,1.64.68,2,2,0,0,0,1.25-.38A2.53,2.53,0,0,0,268.15,57.08Zm-4.35-2.13h4.37a2.62,2.62,0,0,0-.5-1.47,2,2,0,0,0-1.64-.76,2.11,2.11,0,0,0-1.54.61A2.4,2.4,0,0,0,263.8,54.95Z" fill="#1b75bc"/><path d="M271.86,51.81h1.33v3.36a1.28,1.28,0,0,0,.89-.24,5.29,5.29,0,0,0,.75-1.41,5.59,5.59,0,0,1,.63-1.22,1.21,1.21,0,0,1,.56-.4,3.61,3.61,0,0,1,1-.1h.27V52.9h-.37a1,1,0,0,0-.67.15,3.84,3.84,0,0,0-.47,1,4,4,0,0,1-.55,1.05,2.23,2.23,0,0,1-.77.53,3.2,3.2,0,0,1,1.68,1.58l1.45,2.41h-1.46l-1.42-2.41a3.29,3.29,0,0,0-.76-1,1.3,1.3,0,0,0-.77-.23v3.6h-1.33Z" fill="#1b75bc"/><path d="M284.26,56.73l1.3.17a3.36,3.36,0,0,1-1.09,2.1,3.2,3.2,0,0,1-2.16.76,3.37,3.37,0,0,1-2.58-1,4.22,4.22,0,0,1-1-3,5.38,5.38,0,0,1,.42-2.21,2.91,2.91,0,0,1,1.28-1.42,3.81,3.81,0,0,1,1.87-.47,3.26,3.26,0,0,1,2.08.64,2.94,2.94,0,0,1,1,1.82l-1.29.2a2.13,2.13,0,0,0-.65-1.18,1.7,1.7,0,0,0-1.13-.4,2.06,2.06,0,0,0-1.63.71,3.37,3.37,0,0,0-.63,2.26,3.49,3.49,0,0,0,.6,2.28,2,2,0,0,0,1.58.71,1.86,1.86,0,0,0,1.3-.48A2.35,2.35,0,0,0,284.26,56.73Z" fill="#1b75bc"/><path d="M287.38,51.81h1.33V55h3.68V51.81h1.33v7.78h-1.33V56.13h-3.68v3.45h-1.33Z" fill="#1b75bc"/><path d="M295.9,55.7a4,4,0,0,1,1.21-3.2,3.65,3.65,0,0,1,2.46-.86,3.52,3.52,0,0,1,2.64,1.05,4,4,0,0,1,1,2.9,5.13,5.13,0,0,1-.45,2.36,3.19,3.19,0,0,1-1.32,1.34,3.85,3.85,0,0,1-1.89.48,3.53,3.53,0,0,1-2.66-1A4.17,4.17,0,0,1,295.9,55.7Zm1.36,0a3.3,3.3,0,0,0,.66,2.24,2.19,2.19,0,0,0,3.29,0,3.38,3.38,0,0,0,.66-2.28,3.2,3.2,0,0,0-.66-2.19,2.19,2.19,0,0,0-3.29,0A3.28,3.28,0,0,0,297.26,55.7Z" fill="#1b75bc"/><path d="M305.5,51.81h2.06L309.62,58l2.29-6.23h1.91v7.78h-1.33V53.32l-2.31,6.26H309L306.79,53v6.56h-1.3Z" fill="#1b75bc"/><path d="M316.46,62.58l-.15-1.24a3,3,0,0,0,.76.12,1.46,1.46,0,0,0,.71-.15,1.2,1.2,0,0,0,.43-.41,6.38,6.38,0,0,0,.41-1l.12-.32-3-7.79h1.43l1.63,4.5q.32.86.57,1.8a17.74,17.74,0,0,1,.55-1.77l1.67-4.53h1.33l-3,7.91a15.48,15.48,0,0,1-.74,1.76,2.59,2.59,0,0,1-.81,1,1.93,1.93,0,0,1-1.09.3A2.67,2.67,0,0,1,316.46,62.58Z" fill="#1b75bc"/><path d="M331.34,56.07V55a7.52,7.52,0,0,0,1.15-.07,1.08,1.08,0,0,0,.58-.35,1,1,0,0,0,.27-.73A1.09,1.09,0,0,0,333,53a1.34,1.34,0,0,0-.92-.32A1.63,1.63,0,0,0,330.49,54l-1.26-.21a2.69,2.69,0,0,1,2.84-2.19,2.73,2.73,0,0,1,2,.68,2.18,2.18,0,0,1,.71,1.63,1.71,1.71,0,0,1-.93,1.52,2.23,2.23,0,0,1,.88.8,2.19,2.19,0,0,1,.29,1.15,2.12,2.12,0,0,1-.77,1.7,3.21,3.21,0,0,1-2.14.65q-2.67,0-3.1-2.37l1.25-.26a2,2,0,0,0,.69,1.16,1.87,1.87,0,0,0,1.19.41,1.67,1.67,0,0,0,1.12-.38,1.26,1.26,0,0,0,.17-1.75,1.19,1.19,0,0,0-.6-.42,5.22,5.22,0,0,0-1.15-.08Z" fill="#1b75bc"/><path d="M338.26,51.81h5.45V58.5h.85v3.29h-1.09V59.58h-6.16v2.21h-1.09V58.5h.7Q338.32,56.61,338.26,51.81Zm1.11,1.09a12.77,12.77,0,0,1-1.18,5.6h4.21V52.9Z" fill="#1b75bc"/><path d="M346.2,55.7a4,4,0,0,1,1.21-3.2,3.65,3.65,0,0,1,2.46-.86,3.52,3.52,0,0,1,2.64,1.05,4,4,0,0,1,1,2.9,5.13,5.13,0,0,1-.45,2.36,3.19,3.19,0,0,1-1.32,1.34,3.85,3.85,0,0,1-1.89.48,3.53,3.53,0,0,1-2.66-1A4.17,4.17,0,0,1,346.2,55.7Zm1.36,0a3.3,3.3,0,0,0,.66,2.24,2.19,2.19,0,0,0,3.29,0,3.38,3.38,0,0,0,.66-2.28,3.2,3.2,0,0,0-.66-2.19,2.19,2.19,0,0,0-3.29,0A3.28,3.28,0,0,0,347.57,55.7Z" fill="#1b75bc"/><path d="M355.77,62.56V51.81H357v1a3,3,0,0,1,1-.89,2.66,2.66,0,0,1,1.3-.3,3.11,3.11,0,0,1,1.77.51,3.16,3.16,0,0,1,1.16,1.45,5.27,5.27,0,0,1,.39,2,5.17,5.17,0,0,1-.43,2.15,3.27,3.27,0,0,1-3,2,2.5,2.5,0,0,1-1.19-.28,2.7,2.7,0,0,1-.87-.7v3.79Zm1.2-6.83a3.37,3.37,0,0,0,.61,2.22,1.88,1.88,0,0,0,1.48.72,1.92,1.92,0,0,0,1.51-.74,3.51,3.51,0,0,0,.63-2.3,3.42,3.42,0,0,0-.62-2.23,1.86,1.86,0,0,0-1.47-.74,1.92,1.92,0,0,0-1.5.79A3.51,3.51,0,0,0,357,55.74Z" fill="#1b75bc"/><path d="M364.35,55.7a4,4,0,0,1,1.21-3.2,3.65,3.65,0,0,1,2.46-.86,3.52,3.52,0,0,1,2.64,1.05,4,4,0,0,1,1,2.9,5.13,5.13,0,0,1-.45,2.36,3.19,3.19,0,0,1-1.32,1.34,3.85,3.85,0,0,1-1.89.48,3.53,3.53,0,0,1-2.66-1A4.17,4.17,0,0,1,364.35,55.7Zm1.36,0a3.3,3.3,0,0,0,.66,2.24,2.19,2.19,0,0,0,3.29,0,3.38,3.38,0,0,0,.66-2.28,3.2,3.2,0,0,0-.66-2.19,2.19,2.19,0,0,0-3.29,0A3.28,3.28,0,0,0,365.71,55.7Z" fill="#1b75bc"/><path d="M373.92,51.81H377a5.59,5.59,0,0,1,1.68.19,2,2,0,0,1,.94.69,1.86,1.86,0,0,1,.39,1.19,2,2,0,0,1-.23,1,1.88,1.88,0,0,1-.7.69,1.84,1.84,0,0,1,.92.69,2,2,0,0,1,.36,1.19,2.09,2.09,0,0,1-.8,1.64,3.49,3.49,0,0,1-2.1.54h-3.53Zm1.33,3.27h1.42a5.09,5.09,0,0,0,1.16-.09,1.22,1.22,0,0,0,.57-.36.91.91,0,0,0,.25-.64.89.89,0,0,0-.44-.86,3.34,3.34,0,0,0-1.5-.24h-1.46Zm0,3.42H377a3.19,3.19,0,0,0,1.55-.26,1,1,0,0,0,.44-.9,1.12,1.12,0,0,0-.24-.69,1.06,1.06,0,0,0-.63-.4,6.56,6.56,0,0,0-1.25-.08h-1.61Z" fill="#1b75bc"/><path d="M382.59,51.81h1.33v3h1.68a4.32,4.32,0,0,1,2.53.63,2,2,0,0,1,.89,1.75,2.2,2.2,0,0,1-.74,1.67,3.39,3.39,0,0,1-2.37.69h-3.32Zm1.33,6.69h1.39a3.85,3.85,0,0,0,1.8-.31,1,1,0,0,0,.54-1,1.24,1.24,0,0,0-.4-.9,2.66,2.66,0,0,0-1.76-.4h-1.57Z" fill="#1b75bc"/><path d="M391.17,51.81h1.33v3.25h1.61a4.11,4.11,0,0,1,1-2.55,3.06,3.06,0,0,1,2.27-.88,3.24,3.24,0,0,1,1.87.48,3.66,3.66,0,0,1,1.13,1.31,4.79,4.79,0,0,1,.45,2.25,4.48,4.48,0,0,1-.92,3.05,3.17,3.17,0,0,1-2.5,1,3,3,0,0,1-2.35-1,4.2,4.2,0,0,1-1-2.65h-1.61v3.44h-1.33Zm6.32.94a1.77,1.77,0,0,0-1.51.74,3.49,3.49,0,0,0-.54,2.08,4,4,0,0,0,.54,2.35,1.72,1.72,0,0,0,1.46.75,1.85,1.85,0,0,0,1.49-.69,3.47,3.47,0,0,0,.58-2.23,4.09,4.09,0,0,0-.5-2.25A1.7,1.7,0,0,0,397.49,52.75Z" fill="#1b75bc"/></svg>