<svg xmlns="http://www.w3.org/2000/svg" viewBox="0 0 80.54 66.04"><title>logo-mini</title><path d="M381.05,265h80.54l-3.42,5.56H426l-4.51-4.42-4.51,4.51H384.38Zm45.69,17.93h0a10.45,10.45,0,0,1,5.13,8.48L444,271.73h5.64l-20.8,33.84-2.61-4.28a10.48,10.48,0,0,1-4.78,1.16,10.25,10.25,0,0,1-4.86-1.2l11.36,18.67-3,4.71-21.27-35h5.83l1.4,2.34A10.58,10.58,0,0,1,416,282.9H391.89l-3.38-5.64h44.14l-3.43,5.6Zm-5.33,2.88h0a6.4,6.4,0,1,0,6.42,6.38A6.4,6.4,0,0,0,421.41,285.81Zm7.93,20.65h0l3.39,5.56,24.73-40.29h-6.73Zm7.9-34.73h0l-7.38,12,2.84,4.63,10.19-16.6Zm-18,31.39h0l9.45,15.48,3.36-5.46-6.1-10ZM396,289.66h0L421.05,331l3.46-5.56-21.78-35.82Zm-3.39-5.6h0l2.72,4.47H410l2.72-4.51Zm-7.55-12.33h0l2.72,4.47H433.3l2.77-4.47Z" transform="translate(-381.05 -265)" fill="#1e76bc"/></svg>