<svg xmlns="http://www.w3.org/2000/svg" viewBox="0 0 511.54 413.19"><title>tw</title><path d="M357,49.17c-59.28.9-106,52.1-106,111.38v14.37C145.05,156.06,93,127.32,35.47,67.14,1.33,133.61,39.06,189.3,80.38,219.84c-27.85,0-51.2-3.59-69.17-19.76-1.8-.9-3.59,0-2.69,1.8C23.79,257.57,75.89,298,116.31,309.66c-36.83,0-61.08,5.39-87.13-10.78-1.8-.9-3.59,0-2.69,1.8,19.76,54.79,59.28,71.86,116.77,71.86C114.51,394.1,75.89,415.66,3.13,417.45c-2.69,0-4.49,3.59-1.8,5.39,26.95,22.46,93.42,39.52,186.84,39.52,153.6,0,278.46-136.53,278.46-305.4v-9c24.25-9,37.73-30.54,44.91-52.1a1.93,1.93,0,0,0-1.8-1.8l-51.2,18a1.72,1.72,0,0,1-.9-2.69c21.56-17.07,37.73-38.63,44.91-59.29a3.14,3.14,0,0,0-1.8-.9c-24.25,9.88-47.61,19.76-65.57,25.15a10.63,10.63,0,0,1-9-.9C414.53,67.14,379.49,49.17,357,49.17" transform="translate(0 -49.17)" fill="#65bbf2"/></svg>